<svg width="22" height="15" fill="none" xmlns="http://www.w3.org/2000/svg"><g clip-path="url(#clip0)"><path d="M20.22 0H1.75A1.75 1.75 0 000 1.75v10.76c0 .966.784 1.75 1.75 1.75h18.47a1.75 1.75 0 001.75-1.75V1.75A1.75 1.75 0 0020.22 0z" fill="url(#paint0_linear)"/><g clip-path="url(#clip1)"><path d="M11.13 14.46H1.81a1.71 1.71 0 01-1.36-.54A1.68 1.68 0 010 12.77v-11A1.66 1.66 0 011.75 0h18.7a1.65 1.65 0 011.75 1.77v10.87a1.77 1.77 0 01-1.81 1.83c-3.08-.03-6.17-.01-9.26-.01zm0-14H1.82A1.22 1.22 0 00.47 1.82v.63a.47.47 0 00.23.46l9.53 7.2a1.228 1.228 0 001.74 0L16.09 7c1.63-1.24 3.25-2.5 4.91-3.7a1.51 1.51 0 00.74-1.5A1.262 1.262 0 0020.39.46h-9.26zM7 8.22L.64 13a.26.26 0 00-.05.27 1.22 1.22 0 001.22.73h18.64a1.25 1.25 0 001.13-.61.28.28 0 00-.09-.45c-1.11-.82-2.21-1.66-3.31-2.5l-2.93-2.21-.11.06-2.87 2.18a1.71 1.71 0 01-2.35 0L7 8.22zM.49 12.54l6.09-4.61-6.09-4.6v9.21zm21.23-9.21l-6.1 4.6 6.1 4.61V3.33z" fill="#fff"/></g></g><defs><clipPath id="clip0"><path fill="#fff" d="M0 0h21.97v14.26H0z"/></clipPath><clipPath id="clip1"><path fill="#fff" d="M0 0h22.21v14.47H0z"/></clipPath><linearGradient id="paint0_linear" x1="0" y1="7.13" x2="21.97" y2="7.13" gradientUnits="userSpaceOnUse"><stop stop-color="#36A9E1"/><stop offset="1" stop-color="#2FAC66"/></linearGradient></defs></svg>