<svg xmlns="http://www.w3.org/2000/svg" viewBox="0 0 49.91 32.75"><g data-name="Слой 2"><path d="M25 32.38H4.35a3.81 3.81 0 01-3-1.2 3.68 3.68 0 01-1-2.55V4.27A3.66 3.66 0 014.23.36h41.43a3.66 3.66 0 013.87 3.92v24.06a3.93 3.93 0 01-4 4.06c-6.84-.05-13.68-.02-20.53-.02zm0-31H4.39a2.72 2.72 0 00-3 3v1.4a1 1 0 00.51 1q10.58 8 21.12 16a2.75 2.75 0 003.86 0L36 15.85c3.62-2.74 7.21-5.54 10.9-8.18a3.34 3.34 0 001.64-3.34c-.15-1.89-1.11-3-3-3zm-9.2 17.2c-4.71 3.55-9.37 7.07-14 10.61a.67.67 0 00-.11.6 2.7 2.7 0 002.7 1.59h41.3A2.75 2.75 0 0048.14 30a.62.62 0 00-.14-1c-2.46-1.83-4.89-3.69-7.34-5.54l-6.49-4.9a1.29 1.29 0 00-.24.13l-6.35 4.83a3.78 3.78 0 01-5.21 0c-2.2-1.64-4.37-3.27-6.59-4.95zM1.43 28.13l13.5-10.21-13.5-10.2zm47-20.41L35 17.92l13.5 10.2z" fill="#3f4495" stroke="#3f4495" stroke-miterlimit="10" stroke-width=".7" data-name="Слой 1"/></g></svg>