<svg xmlns="http://www.w3.org/2000/svg" viewBox="0 0 149.2 166.49"><defs><style>.cls-1{fill:#d5d4d4}</style></defs><g id="Слой_2" data-name="Слой 2"><g id="Слой_1-2" data-name="Слой 1"><path class="cls-1" d="M7.52 86.75c6.07-1.1 7.72-4.49 7.62-10.06-.47-23.94 10.16-42 30.22-54.62A61.71 61.71 0 0156.58 17c1.91-.71 4.38-.83 5.27 1.68s-1 3.86-3 4.6c-7.8 2.87-15 6.66-20.9 12.66C26.41 47.63 21 61.61 21.72 78c.1 2 .16 4 2.44 4.48 6.32 1.46 9.47 6.2 12.36 11.37C41.9 103.5 47.6 113 52.77 122.69c4.72 8.88 2.55 15.93-6 21.6-9.52 6.33-17.51 5.81-23.92-1.79a4 4 0 00-4.75-1.5c-6.56 1.71-10.77-2.1-14-7-3.73-5.67-6.2-12-1.67-18.26 2.07-2.74 2.17-4.61.57-7.35A21.24 21.24 0 01.41 97.07C.76 82.54-.32 68 3.51 53.61c7.17-27 32.9-49.14 60.62-52.84C89-2.55 110 4.92 127.48 22c14.26 14 21.06 31.48 21.31 51.45.1 7.87 0 15.73 0 23.6a10.59 10.59 0 010 1.69c-1.32 7.9-4.46 15.38-.27 23.87 2.32 4.72-1.85 10.08-5.5 13.91-2.44 2.55-3.61 5.12-3.15 8.5 1.88 13.77-9.67 22-21.13 21.44-16.26-.76-32.59-.33-48.89-.11-4.78.07-7-1.3-6.53-6.36.3-3.15 0-6.36.06-9.55.12-6 4.37-11.19 9.77-12A11.84 11.84 0 0186 147c.54 1.76 1.18 3.73.91 5.46-1 6.33 2.07 7.43 7.6 7.2 9.16-.4 18.35 0 27.53-.14 10-.1 12.6-8.48 10.81-16.31-.73-3.19-3.4-3.58-6.22-.5-9.24 10.1-26.65 5.94-30.89-7.14a14.71 14.71 0 011-12.42q9.33-16.32 18.57-32.66a14.55 14.55 0 018.82-7.28c2-.58 3.21-1.5 3.43-3.77a53.27 53.27 0 00-32.75-54.71c-1.55-.65-3.13-1.23-4.66-1.92-1.75-.79-3.68-1.74-2.83-4.1.92-2.51 3.35-2.45 5.26-1.74 4.89 1.82 9.87 3.56 14.21 6.6 18.27 12.78 28 30 27.47 52.62-.08 3.51-.58 7 3.67 9.07 2.88 1.38 3.9 1.33 4.23-2.13 3.77-39.37-20.84-72-60.1-77.22-24.2-3.23-49.55 7.57-64.08 31C8.61 52 6 66.5 7.52 86.75zM48.4 129.5a61.17 61.17 0 00-2.82-6.5c-5.49-9.73-11.09-19.41-16.71-29.08-3.07-5.28-6.73-6.38-12.2-3.84-8.29 3.84-10.67 7.66-8.31 13.8a61.21 61.21 0 004.18 7.87c4.59 8.11 9 16.32 13.9 24.25 2.33 3.79 5.32 7.6 10.78 6.1 6.16-1.7 11.24-7.27 11.18-12.6zm65.48 12.1c4.32.07 7.15-1.27 8.85-4.26 6-10.54 11.94-21.1 17.65-31.78 3.38-6.32 1.43-10.75-5.95-14.87-5.86-3.27-10.7-2.14-14.19 3.82-5.73 9.82-11.35 19.72-16.69 29.75-4.69 8.79 1.07 17.48 10.33 17.34zm-33.69 12.72c.1-4 .31-8-4.79-8.24s-5.29 3.51-5.35 7.36c0 3.69-.1 6.44 5.14 6.28 4.5-.14 5.62-1.87 5-5.4zm-63.57-22.39c-2.1-3.53-4.49-7.94-7.32-12.05-1-1.42-2.35-.15-2.92 1.16-1.49 3.4 4.85 13.64 8.44 13.66 1.18.01 2.31-.16 1.8-2.77zm117.74 2.8c2.55-.16 4.26-2 5.2-4.2 1.34-3 4.74-5.61 2.85-9.59-1.07-2.24-2.09-1.46-3 .19-2.11 3.68-4.22 7.36-6.39 11-.93 1.52-.81 2.42 1.34 2.6z"/><path class="cls-1" d="M87.33 104.46c.6-2.46 1.76-3.62 4-3.4 1.87.18 3.39.87 3.24 3a3.61 3.61 0 01-3.57 3.49c-2.15.06-3.17-1.55-3.67-3.09zm-25.25-.39c-.45 1.89-1.58 3.37-3.63 3.44-2.4.08-2.93-1.73-2.93-3.76 0-2.2 1.34-2.78 3.25-2.69s3.13.94 3.31 3.01zm12.68 3.37a3.63 3.63 0 01-3.27-3.27c-.2-2.11 1.17-3 3.14-3a2.9 2.9 0 013.29 3c.13 2.16-1.38 2.83-3.16 3.27z"/><path d="M48.4 129.5c.06 5.33-5 10.9-11.18 12.6-5.46 1.5-8.45-2.31-10.78-6.1-4.87-7.93-9.31-16.14-13.9-24.25a61.21 61.21 0 01-4.18-7.87c-2.39-6.14 0-10 8.31-13.81 5.47-2.54 9.13-1.44 12.2 3.84 5.62 9.67 11.22 19.35 16.71 29.08a61.17 61.17 0 012.82 6.51zm31.79 24.82c.62 3.53-.5 5.26-5 5.4-5.24.16-5.19-2.59-5.14-6.28.06-3.85.29-7.56 5.35-7.36s4.89 4.2 4.79 8.24zm-63.57-22.39c.51 2.61-.61 2.78-1.8 2.77-3.59 0-9.93-10.26-8.44-13.66.57-1.31 1.94-2.58 2.92-1.16 2.83 4.12 5.22 8.52 7.32 12.05zm117.74 2.8c-2.15-.18-2.27-1.08-1.37-2.59 2.17-3.65 4.28-7.33 6.39-11 .94-1.65 2-2.43 3-.19 1.89 4-1.51 6.55-2.85 9.59-.91 2.14-2.62 4.03-5.17 4.19z" fill="#fafafa"/></g></g></svg>