<svg xmlns="http://www.w3.org/2000/svg" viewBox="0 0 24.97 34.95"><defs><style>.cls-1{fill:#3e4395}</style></defs><g id="Слой_2" data-name="Слой 2"><g id="Слой_1-2" data-name="Слой 1"><path class="cls-1" d="M2.51 10a10 10 0 1110 10 10 10 0 01-10-10z"/><path class="cls-1" d="M12.36 35a28.42 28.42 0 01-8.92-1.4 11.27 11.27 0 01-2.37-1.21A2.23 2.23 0 010 30.22c.13-1.29.19-2.59.44-3.86a8.31 8.31 0 013.53-5c.76-.56 1.53-1.12 2.28-1.7a.38.38 0 01.48 0 11.13 11.13 0 0011.53 0 .39.39 0 01.36 0c1.16.88 2.34 1.73 3.45 2.67a8 8 0 012.72 5.48c.09.82.11 1.66.17 2.49a2.4 2.4 0 01-1 2.14A9.7 9.7 0 0120.28 34a32.72 32.72 0 01-7.92 1z"/></g></g></svg>