<svg xmlns="http://www.w3.org/2000/svg" viewBox="0 0 139.49 167.59"><defs><style>.cls-1{fill:#d5d4d4}.cls-2{fill:#fafafa}.cls-3{fill:#d3d2d2}.cls-4{fill:#dddcdc}.cls-5{fill:#fbfbfb}</style></defs><g id="Слой_2" data-name="Слой 2"><g id="Слой_1-2" data-name="Слой 1"><path class="cls-1" d="M1.53 69.05V14.53c0-9.95 3.54-13.4 13.55-13.41 21.73 0 43.46.07 65.19-.06a10.51 10.51 0 018.41 3.42Q98.82 15 109.38 25.11A13.8 13.8 0 01114 36c-.18 18.36.13 36.72-.21 55.07-.09 5 1.81 7.11 6 9.17a35 35 0 0116.07 47.1c-6.55 13.5-20.21 21.07-36.37 20.15-12.52-.71-26.26-11.41-30-24.42-1.28-4.41-3.4-4.93-7.13-4.9-15 .12-30 .07-45 0-11.94 0-15.8-3.89-15.8-15.79zm6.72-.18c0 18.35.16 36.7-.11 55-.07 5.28 1.74 6.77 6.84 6.68 15.91-.27 31.83-.16 47.74-.05 3.3 0 4.89-.53 5.33-4.44a32.47 32.47 0 016-14.92c6.72-9.61 16.38-13.89 27.48-15.22 4.12-.49 4.71-2.22 4.68-5.74-.15-14.23-.06-28.46-.06-42.69 0-13.66 0-13.66-13.69-13.8-7.07-.07-10.69-2.51-11.93-9.28-.61-3.34-1.64-4.53-4.92-4.26-2.17.18-5.11.48-5.21-2.68-.09-2.94 2.34-3.92 5.08-4 2.11-.07 4.88.67 4.71-3s-3-2.63-5.06-2.64C55.08 7.82 35 8 15 7.72c-5.65-.08-6.94 2-6.87 7.23.27 17.97.12 35.94.12 53.92zM74.54 132c-1.34 15.42 14.14 29.09 28.65 28.89 16.17-.22 29.89-11.64 29.55-29.33-.34-17.39-11.67-28.34-28.86-28.85-17.94-.54-30.23 14.43-29.34 29.29zM101 26.32A120.93 120.93 0 0087.59 13c-2.17 13.94-.54 15.57 13.41 13.32z"/><path class="cls-2" d="M8.25 68.87c0-18 .15-35.95-.1-53.92-.07-5.2 1.22-7.31 6.85-7.23 20 .31 40.06.1 60.09.16 2 0 4.88-1 5.06 2.64s-2.6 2.92-4.71 3c-2.74.08-5.17 1.06-5.08 4 .1 3.16 3 2.86 5.21 2.68 3.28-.27 4.31.92 4.92 4.26 1.24 6.77 4.86 9.21 11.93 9.28 13.69.14 13.69.14 13.69 13.8 0 14.23-.09 28.46.06 42.69 0 3.52-.56 5.25-4.68 5.74-11.1 1.33-20.76 5.61-27.48 15.22a32.47 32.47 0 00-6 14.92c-.44 3.91-2 4.46-5.33 4.44-15.91-.11-31.83-.22-47.74.05-5.1.09-6.91-1.4-6.84-6.68.31-18.35.15-36.7.15-55.05zm35.64 3.06H21.5c-2.2 0-5-.34-5.05 2.86 0 2.62 2.11 3.81 4.63 3.82h45.34c2.52 0 4.58-1.3 4.51-3.94s-2.55-2.73-4.65-2.73zm-5.07-22.49c5.62 0 11.24.06 16.86 0 2.46 0 5.29-.24 5.21-3.64-.08-3.17-2.73-3-5-3H21.61c-2.44 0-4.9.2-4.95 3.15 0 2.78 2.29 3.57 4.75 3.58 5.79-.08 11.59-.1 17.41-.09zM38.37 64h18c2.52 0 4.59-1.31 4.51-4s-2.58-2.74-4.67-2.74H21.44c-2.48 0-4.86.39-4.75 3.33.11 2.72 2.46 3.43 4.91 3.43q8.4.05 16.77-.02zM26.83 86.57h-7.24c-1.63 0-2.94.71-3.19 2.47s.9 2.83 2.39 3.3c5.07 1.57 10.23 1.29 15.33.25 1.93-.4 2.44-2.07 2.16-3.94s-1.8-2.09-3.33-2.11q-3.06 0-6.12.03zm37.55-66.38c1.82-.08 3.32-.83 3.18-2.91A3.65 3.65 0 0064 13.74c-1.72-.11-2.69 1.12-2.8 2.79-.2 2.18.8 3.47 3.18 3.66zM46.3 89.09c-.43-2-1.86-2.65-3.75-2.44-1.7.2-2.83 1.18-2.62 3 .24 2.13 1.84 2.68 3.69 2.49a2.73 2.73 0 002.68-3.05z"/><path class="cls-2" d="M74.54 132c-.89-14.84 11.4-29.81 29.34-29.29 17.19.51 28.52 11.46 28.86 28.85.34 17.69-13.38 29.11-29.55 29.33-14.51.18-29.99-13.49-28.65-28.89zm47.2-5.7c.51-4 .65-8.32-5.48-9-.47 0-1-.61-1.3-1-5.09-6.24-11.71-5-18.35-3.83-3.08.55-3.3 4.73-6.39 5-5.57.55-5.66 4.41-5.46 8.56a31.83 31.83 0 004.35 15.44c5 8.16 14.37 12 20.53 7.81 7.78-5.28 12.91-12.44 12.1-23zM101 26.32c-14 2.25-15.59.62-13.42-13.36A120.93 120.93 0 01101 26.32z"/><path class="cls-1" d="M43.89 71.93h22.39c2.1 0 4.57-.05 4.65 2.73s-2 3.93-4.51 3.94q-22.66.08-45.34 0c-2.52 0-4.65-1.2-4.63-3.82 0-3.2 2.85-2.85 5.05-2.86 7.5-.01 14.93.01 22.39.01zm-5.07-22.5H21.39c-2.46 0-4.79-.8-4.75-3.58.05-3 2.51-3.16 4.95-3.15h34.28c2.29 0 4.94-.13 5 3 .08 3.4-2.75 3.6-5.21 3.64-5.6.16-11.22.1-16.84.09zm-.45 14.62H21.55c-2.45 0-4.8-.71-4.91-3.43-.11-2.94 2.27-3.34 4.75-3.33 11.59.05 23.18 0 34.77 0 2.09 0 4.59 0 4.67 2.74s-2 3.92-4.51 4c-5.98.06-11.96-.03-17.95.02zM26.83 86.56h6.12c1.53 0 3 .1 3.33 2.11s-.23 3.54-2.16 3.94c-5.1 1-10.26 1.32-15.33-.25-1.49-.47-2.64-1.52-2.39-3.3s1.56-2.43 3.19-2.47c2.41-.06 4.83-.02 7.24-.03zm37.55-66.37C62 20 61 18.71 61.16 16.53c.11-1.67 1.08-2.9 2.8-2.79a3.65 3.65 0 013.6 3.54c.14 2.08-1.36 2.83-3.18 2.91zM46.3 89.09a2.73 2.73 0 01-2.68 3c-1.85.19-3.45-.36-3.69-2.49-.21-1.81.92-2.79 2.62-3 1.89-.16 3.32.47 3.75 2.49zm75.44 37.19c.81 10.56-4.32 17.68-12.1 23-6.16 4.22-15.54.35-20.53-7.81A31.83 31.83 0 0184.76 126c-.2-4.15-.11-8 5.46-8.56 3.09-.31 3.31-4.49 6.39-5 6.64-1.19 13.26-2.41 18.35 3.83.35.42.83 1 1.3 1 6.13.73 5.99 4.97 5.48 9.01zm-18-8.18c-4.88 0-12.22 5.41-12.28 9.06-.14 7.86 6.58 17.6 12.1 17.55 5-.05 11.36-9.45 11.45-16.84.1-4.76-5.68-9.77-11.23-9.77z"/><path class="cls-2" d="M103.78 118.1c5.55 0 11.33 5 11.27 9.77-.09 7.39-6.48 16.79-11.45 16.84-5.52 0-12.24-9.69-12.1-17.55.06-3.65 7.4-9.06 12.28-9.06z"/><path class="cls-3" d="M112.06 136.8H11.81A11.81 11.81 0 010 125V11.81A11.81 11.81 0 0111.81 0h71.77l28.48 27.55z"/><rect class="cls-4" x="69.24" y="12.34" width="20.24" height="6.75" rx="1.22" transform="rotate(-180 79.36 15.71)"/><path class="cls-5" d="M105.08 129.44H10.56a3.72 3.72 0 01-3.72-3.72V10.47a3.72 3.72 0 013.72-3.72h73l21.5 20.94z"/><rect class="cls-4" x="15.2" y="41.67" width="44.2" height="6.75" rx="1.22"/><rect class="cls-4" x="15.2" y="56.01" width="44.2" height="6.75" rx="1.22"/><rect class="cls-4" x="15.2" y="85.1" width="20.24" height="6.75" rx="1.22"/><rect class="cls-4" x="15.2" y="70.55" width="54.6" height="6.75" rx="1.22"/><circle class="cls-4" cx="41.91" cy="88.47" r="3.37"/><circle class="cls-4" cx="62.78" cy="15.71" r="3.37"/><circle class="cls-3" cx="102.13" cy="130.71" r="35.84"/><circle class="cls-5" cx="102.13" cy="130.71" r="29.51"/><path class="cls-1" d="M102.13 150.81a26.26 26.26 0 0015-11 17.65 17.65 0 003-9.89v-11.81a1.17 1.17 0 00-1.17-1.18h-.43a8.3 8.3 0 01-5.14-1.68 5.88 5.88 0 01-2.13-3 .83.83 0 00-.81-.58h-9.15z"/><path class="cls-1" d="M102.13 150.81a26.26 26.26 0 01-15-11 17.65 17.65 0 01-3-9.89v-11.81a1.17 1.17 0 011.17-1.18h.43a8.32 8.32 0 005.14-1.68 5.88 5.88 0 002.13-3 .83.83 0 01.81-.58H103z"/><path class="cls-5" d="M102.13 145.7a19.42 19.42 0 0011.25-8.33 12.86 12.86 0 002.05-7.09v-8.44a1.17 1.17 0 00-1.17-1.17 6.14 6.14 0 01-3.6-1.09 4.45 4.45 0 01-1.75-2.27.82.82 0 00-.79-.54h-6.61z"/><path class="cls-5" d="M102.13 145.7a19.42 19.42 0 01-11.25-8.33 12.86 12.86 0 01-2-7.09v-8.44a1.17 1.17 0 011.12-1.17 6.16 6.16 0 003.6-1.09 4.45 4.45 0 001.75-2.27.82.82 0 01.79-.54h6.61z"/><rect class="cls-4" x="69.24" y="12.34" width="20.24" height="6.75" rx="1.22" transform="rotate(-180 79.36 15.71)"/><path class="cls-5" d="M85.55 9.93l15.6 16.12h-17.1l-.24-16.12h1.74z"/><path class="cls-3" d="M105.08 32.51H89.15a9.79 9.79 0 01-9.79-9.79v-16h6.19v19.3h19.53z"/></g></g></svg>