<svg width="202" height="41" fill="none" xmlns="http://www.w3.org/2000/svg"><path d="M102.169 29.235h99.14c.772 0 .767 0 .601.776-.061.29-.207.32-.434.33-1.01.047-2.019.094-3.003.15-2.478.14-4.956.29-7.429.425-1.988.108-3.972.19-5.96.294l-7.712.42c-1.761.092-3.533.165-5.279.258-2.382.13-4.764.28-7.146.408-1.434.073-2.872.12-4.31.197-2.367.124-4.729.264-7.091.388-1.852.103-3.705.186-5.552.284l-9.927.517c-1.176.062-2.347.104-3.533.166-2.649.145-5.294.3-7.944.434-2.568.14-5.142.249-7.716.393a525.95 525.95 0 01-4.936.248c-2.266.11-4.542.26-6.803.383-2.059.114-4.123.212-6.183.316-1.514.077-3.028.14-4.542.222-2.493.134-4.991.29-7.484.424l-7.717.388-8.736.465c-1.703.093-3.405.18-5.108.259-2.493.114-4.986.284-7.484.419-2.362.13-4.729.233-7.066.357l-6.465.351-5.067.28-6.46.346-8.791.46c-2.892.156-5.784.3-8.681.46-1.7.094-3.4.18-5.102.26-1.948.092-3.897.222-5.845.32-1.68.083-3.36.196-5.046.258-.339 0-.677.063-1.01.104-.333.041-.378 0-.323-.341.096-.518.217-1.035.323-1.593.582-2.941 1.168-5.887 1.756-8.838.036-.171.081-.342.117-.518.095-.465.09-.465.504-.475h99.423l.021.005zM20.692 25.95a6.358 6.358 0 01-3.482-.997 7.422 7.422 0 01-2.524-2.643 7.3 7.3 0 01-.933-3.62v-1.691a.159.159 0 01.041-.138.15.15 0 01.135-.043h3.962c.09 0 .141.057.141.18v1.666a2.938 2.938 0 00.778 2.069c.236.269.525.484.848.631a2.47 2.47 0 002.053 0c.323-.147.612-.362.848-.631a2.946 2.946 0 00.778-2.033c0-.896-.566-1.668-1.696-2.317l-1.772-1.034c-.797-.469-1.552-.91-2.266-1.324a7.51 7.51 0 01-2.887-2.917 8.346 8.346 0 01-.933-3.966 7.029 7.029 0 01.954-3.62A7.21 7.21 0 0117.26.967a6.683 6.683 0 013.432-.951c1.206 0 2.39.328 3.432.95a7.196 7.196 0 012.523 2.587 7.05 7.05 0 01.939 3.62v2.968a.126.126 0 01-.033.11.12.12 0 01-.108.035h-3.972a.118.118 0 01-.108-.034.124.124 0 01-.034-.11l-.035-2.97a2.85 2.85 0 00-.18-1.116 2.802 2.802 0 00-.597-.952 2.527 2.527 0 00-.83-.607 2.427 2.427 0 00-2.023-.002 2.483 2.483 0 00-.846.635 2.867 2.867 0 00-.778 2.012 3.69 3.69 0 00.505 1.99 4.742 4.742 0 001.802 1.521c.121.073.348.202.691.383.343.181.712.388 1.116.615.403.228.757.43 1.075.6.317.17.504.28.585.326a8.522 8.522 0 012.796 2.482 6.16 6.16 0 011.01 3.62 7.382 7.382 0 01-.897 3.637 7.163 7.163 0 01-2.55 2.688 6.555 6.555 0 01-3.483.947zm9.538-.361c-.095 0-.146-.062-.146-.181L30.16.517a.128.128 0 01.023-.109.12.12 0 01.098-.046h4.315a.302.302 0 01.248.145l3.215 4.783 3.24-4.773a.302.302 0 01.247-.155h4.35a.118.118 0 01.108.034.126.126 0 01.034.11l.07 24.902c0 .119-.045.18-.141.18H41.97c-.091 0-.142-.061-.142-.18l-.035-18.483-3.714 5.487-3.674-5.487-.036 18.483c0 .119-.05.18-.146.18H30.23zm17.65-.181L52.264.517a.166.166 0 01.06-.11.159.159 0 01.117-.035h5.127a.164.164 0 01.116.037.172.172 0 01.061.108l4.21 24.901c0 .119-.026.181-.142.181h-3.927c-.096 0-.151-.062-.176-.18l-.389-2.664h-4.81l-.388 2.648a.171.171 0 01-.177.18H48.02c-.076.006-.142-.056-.142-.175zm5.339-6.527h3.396L55.162 8.698 54.95 7.36l-.141 1.34-1.59 10.182zm11.103 6.708c-.09 0-.141-.062-.141-.181l.07-24.89a.13.13 0 01.085-.14.123.123 0 01.057-.006h7.146a6.722 6.722 0 013.533.962 7.227 7.227 0 012.564 2.586 6.99 6.99 0 01.959 3.646c.01.82-.12 1.637-.389 2.41a7.673 7.673 0 01-.923 1.81 6.286 6.286 0 01-.954 1.107 7.504 7.504 0 011.897 5.083l.036 7.432a.165.165 0 01-.045.136.156.156 0 01-.132.045h-3.997c-.096 0-.141-.036-.141-.109v-7.504a3.233 3.233 0 00-.23-1.225 3.171 3.171 0 00-.674-1.04 2.942 2.942 0 00-1.005-.722 2.88 2.88 0 00-1.205-.24h-2.337l-.035 10.659c0 .119-.046.181-.142.181h-3.997zM68.496 10.4h3.028c.362 0 .721-.073 1.056-.216a2.73 2.73 0 00.892-.617c.266-.26.477-.572.621-.917a2.842 2.842 0 000-2.188 2.785 2.785 0 00-.62-.918 2.718 2.718 0 00-.9-.62 2.663 2.663 0 00-1.064-.213h-3.028l.015 5.69zm15.57 15.189c-.096 0-.142-.062-.142-.181V4.748h-4.597a.153.153 0 01-.133-.046.16.16 0 01-.044-.136l.035-4.049a.128.128 0 01.034-.11.12.12 0 01.108-.035h13.44c.115 0 .176.047.176.145v4.05c0 .118-.045.18-.141.18h-4.633l.035 20.687c0 .119-.045.18-.141.18l-3.997-.025z" fill="#386AB2"/><path d="M92.862 25.589c-.096 0-.146-.062-.146-.181L92.741.517a.128.128 0 01.023-.109.12.12 0 01.098-.046h11.351c.096 0 .141.062.141.18v4.06a.126.126 0 01-.033.11.12.12 0 01-.108.035h-7.227V10.4h4.613l.03 4.385h-4.643v6.346h7.282c.096 0 .142.062.142.18v4.138c.003.02.002.04-.004.06a.12.12 0 01-.138.085l-11.406-.005z" fill="#30AC67"/><path d="M104.177 25.589c-.096 0-.131-.062-.106-.181l4.038-12.93-3.967-11.96c0-.098 0-.145.106-.145h3.962a.186.186 0 01.132.031.199.199 0 01.08.114l2.366 8.626 2.408-8.626a.197.197 0 01.079-.114.188.188 0 01.133-.03h3.926c.096 0 .132.046.106.144l-3.962 11.895 3.998 12.975c.045.119 0 .181-.106.181h-3.962c-.096 0-.167-.062-.212-.18l-2.408-9.351-2.437 9.35a.208.208 0 01-.071.133.2.2 0 01-.141.048l-3.962.02zm16.181 0a.156.156 0 01-.17-.108.165.165 0 01-.007-.073l.071-24.891a.126.126 0 01.033-.11.12.12 0 01.108-.035h6.788c2.17 0 3.886.676 5.148 2.027 1.261 1.352 1.901 3.186 1.918 5.503a9.51 9.51 0 01-1.01 4.458 7.432 7.432 0 01-2.584 2.896 6.316 6.316 0 01-3.467 1.034h-2.685v9.118a.165.165 0 01-.044.135.154.154 0 01-.133.046h-3.966zm4.138-13.694h2.685c.39-.01.771-.117 1.113-.309a2.46 2.46 0 00.85-.798c.586-.837.88-1.852.833-2.88a3.554 3.554 0 00-.742-2.323 2.547 2.547 0 00-.922-.71 2.493 2.493 0 00-1.132-.22l-2.685.035v7.205zm12.274 13.694c-.091 0-.141-.062-.141-.181l.065-24.89a.135.135 0 01.036-.108.125.125 0 01.106-.038h7.146a6.723 6.723 0 013.533.962 7.29 7.29 0 012.569 2.586c.642 1.1.972 2.364.953 3.646a7.05 7.05 0 01-.388 2.41 7.481 7.481 0 01-.924 1.81 6.254 6.254 0 01-.954 1.107 7.484 7.484 0 011.913 5.11l.036 7.43a.165.165 0 01-.045.136.155.155 0 01-.132.046h-3.997c-.096 0-.142-.036-.142-.109v-7.53a3.229 3.229 0 00-.229-1.225 3.166 3.166 0 00-.674-1.04 2.944 2.944 0 00-1.005-.722 2.88 2.88 0 00-1.205-.24h-2.337l-.036 10.659c0 .119-.045.181-.141.181h-4.007zm4.174-15.189h3.028a2.68 2.68 0 001.056-.216c.334-.143.637-.352.892-.617a2.801 2.801 0 00.839-2.011 2.801 2.801 0 00-.839-2.012 2.72 2.72 0 00-.899-.62 2.661 2.661 0 00-1.064-.213h-3.028l.015 5.69zm12.869 15.189c-.091 0-.141-.062-.141-.181l.035-24.89c-.002-.02 0-.04.006-.06a.125.125 0 01.136-.087h11.355c.096.001.141.063.141.182v4.05a.126.126 0 01-.033.11.12.12 0 01-.108.035h-7.237V10.4h7.252a.123.123 0 01.057.006.132.132 0 01.049.03.128.128 0 01.035.108l.036 4.097c.003.02.002.04-.004.06a.124.124 0 01-.079.082.121.121 0 01-.059.003h-7.287v6.345h7.287c.096 0 .142.062.142.181v4.137c.003.02.002.04-.004.06a.125.125 0 01-.079.082.121.121 0 01-.059.003l-11.441-.005zm20.516.361a6.361 6.361 0 01-3.483-.997 7.422 7.422 0 01-2.523-2.643 7.25 7.25 0 01-.934-3.62v-1.691a.17.17 0 01.004-.075.171.171 0 01.038-.063.151.151 0 01.135-.043h3.957c.096 0 .146.057.146.18v1.666a2.913 2.913 0 00.777 2.069c.237.269.526.484.849.631a2.473 2.473 0 002.052 0 2.53 2.53 0 00.849-.631c.505-.55.784-1.278.777-2.033 0-.896-.567-1.668-1.701-2.317l-1.766-1.034a253.42 253.42 0 01-2.266-1.303 7.504 7.504 0 01-2.882-2.917 8.281 8.281 0 01-.933-3.966 7.022 7.022 0 01.953-3.62 7.215 7.215 0 012.524-2.555A6.547 6.547 0 01174.329 0a6.468 6.468 0 013.447.962 7.213 7.213 0 012.523 2.586 7.048 7.048 0 01.939 3.62v2.968a.14.14 0 01-.006.058.125.125 0 01-.135.087h-3.952a.118.118 0 01-.108-.034.126.126 0 01-.033-.11l-.036-2.97a2.88 2.88 0 00-.181-1.115 2.821 2.821 0 00-.596-.953 2.522 2.522 0 00-.841-.593 2.47 2.47 0 00-1.001-.203 2.41 2.41 0 00-1.027.217 2.466 2.466 0 00-.845.636 2.869 2.869 0 00-.778 2.012c-.023.7.152 1.391.505 1.99a4.74 4.74 0 001.802 1.521c.116.073.348.202.691.383.343.18.712.388 1.116.615.403.228.757.43 1.074.6.318.17.505.28.586.326a8.527 8.527 0 012.796 2.482 6.163 6.163 0 011.009 3.62 7.35 7.35 0 01-.895 3.64 7.131 7.131 0 01-2.557 2.685 6.536 6.536 0 01-3.497.92zm15.034 0a6.363 6.363 0 01-3.487-.997 7.446 7.446 0 01-2.523-2.643 7.252 7.252 0 01-.939-3.62v-1.691a.18.18 0 01.006-.073.167.167 0 01.038-.063.154.154 0 01.133-.045h3.961c.096 0 .142.057.142.18v1.666a2.949 2.949 0 00.777 2.069c.235.271.524.488.848.635.324.147.675.222 1.029.218.36.001.716-.079 1.042-.234.326-.156.615-.383.846-.666a2.948 2.948 0 00.777-2.032c0-.897-.565-1.669-1.696-2.317l-1.766-1.034c-.804-.456-1.56-.89-2.266-1.304a7.49 7.49 0 01-2.882-2.917 8.296 8.296 0 01-.939-3.966 7.033 7.033 0 01.954-3.62A7.29 7.29 0 01185.942.94a6.557 6.557 0 013.421-.94 6.49 6.49 0 013.427.962 7.216 7.216 0 012.524 2.586 7.107 7.107 0 01.933 3.62v2.968a.126.126 0 01-.033.11.12.12 0 01-.108.035h-3.962a.125.125 0 01-.135-.087.116.116 0 01-.006-.058l-.035-2.968a2.85 2.85 0 00-.18-1.117 2.8 2.8 0 00-.598-.952 2.516 2.516 0 00-.838-.592 2.473 2.473 0 00-.999-.204 2.428 2.428 0 00-1.029.218 2.477 2.477 0 00-.848.635 2.89 2.89 0 00-.742 1.986c-.021.7.154 1.39.505 1.99a4.806 4.806 0 001.806 1.521c.117.073.349.202.687.383.338.181.716.388 1.115.615.399.228.762.43 1.08.6.318.171.505.28.581.326a8.479 8.479 0 012.796 2.482 6.131 6.131 0 011.009 3.62 7.329 7.329 0 01-.89 3.64 7.113 7.113 0 01-2.557 2.685 6.549 6.549 0 01-3.503.947z" fill="#30AC67"/></svg>