<svg xmlns="http://www.w3.org/2000/svg" viewBox="0 0 27.22 35.52"><g data-name="Слой 2"><path d="M20.89 35.47a11.81 11.81 0 01-8.62-4 50.68 50.68 0 01-11.66-19 11.25 11.25 0 01.75-9C2.27 1.74 4 .88 5.68.16A2.89 2.89 0 019 1.41c.76 1.16 1.5 2.34 2.2 3.59a2.63 2.63 0 01-.81 3.56c-.85.58-1.74 1.1-2.63 1.62a2.57 2.57 0 00-1 3.92q3.84 6.16 7.69 12.34c.95 1.52 2.16 1.74 3.65.72.79-.54 1.59-1.06 2.41-1.55a3.07 3.07 0 014.11.9c.77 1.16 1.5 2.35 2.21 3.55a2.43 2.43 0 01-.38 3.19c-1.64 1.28-3.34 2.55-5.56 2.22z" fill="#3e4395" data-name="Слой 1"/></g></svg>