<svg xmlns="http://www.w3.org/2000/svg" viewBox="0 0 15.38 20.07"><defs><linearGradient id="a" y1="10.03" x2="15.38" y2="10.03" gradientUnits="userSpaceOnUse"><stop offset="0" stop-color="#36a9e1"/><stop offset="1" stop-color="#2fac66"/></linearGradient></defs><g data-name="Слой 2"><path d="M11.8 20a6.71 6.71 0 01-4.87-2.2A28.68 28.68 0 01.35 7.09 6.32 6.32 0 01.77 2 4.25 4.25 0 013.21.09 1.64 1.64 0 015.08.8c.43.65.85 1.32 1.25 2a1.49 1.49 0 01-.46 2c-.48.33-1 .62-1.49.91a1.45 1.45 0 00-.58 2.22l4.35 7a1.27 1.27 0 002.06.4c.44-.3.9-.6 1.36-.87a1.73 1.73 0 012.32.51c.44.65.85 1.32 1.25 2a1.38 1.38 0 01-.21 1.8A4 4 0 0111.8 20z" fill="url(#a)" data-name="Слой 1"/></g></svg>