<svg xmlns="http://www.w3.org/2000/svg" xmlns:xlink="http://www.w3.org/1999/xlink" viewBox="0 0 62.51 62.22"><defs><linearGradient id="a" y1="21.73" x2="43.51" y2="21.73" gradientUnits="userSpaceOnUse"><stop offset="0" stop-color="#36a9e1"/><stop offset="1" stop-color="#2fac66"/></linearGradient><linearGradient id="b" x1="36.09" y1="45.8" x2="55.52" y2="45.8" xlink:href="#a"/><linearGradient id="c" x1="50.3" y1="56.24" x2="62.51" y2="56.24" xlink:href="#a"/><linearGradient id="d" x1="48.06" y1="53.16" x2="58.28" y2="53.16" xlink:href="#a"/></defs><g data-name="Слой 2"><g data-name="Слой 1"><path d="M21.67 43.46a21.73 21.73 0 1121.84-21.7 21.7 21.7 0 01-21.84 21.7zm16.15-21.64a16.08 16.08 0 10-16.1 16 16.09 16.09 0 0016.1-16z" fill="url(#a)"/><path d="M49.19 55.5l-13.1-14.36 5.09-5 14.34 13.04z" fill="url(#b)"/><path d="M50.3 56.72c2.16-2.16 4.25-4.26 6.47-6.47 1.62 1.56 3.38 3 4.85 4.73a4.26 4.26 0 01-.34 5.56 5 5 0 01-6.08 1.09 4.75 4.75 0 01-1.2-.87c-1.22-1.31-2.44-2.67-3.7-4.04z" fill="url(#c)"/><path fill="url(#d)" d="M54.77 48.49l3.51 3.17-6.97 6.16-3.25-3.56 6.71-5.77z"/></g></g></svg>