<svg xmlns="http://www.w3.org/2000/svg" viewBox="0 0 148.08 166.41"><defs><style>.cls-1{fill:#d5d4d4}.cls-2{fill:#fafafa}</style></defs><g id="Слой_2" data-name="Слой 2"><g id="Слой_1-2" data-name="Слой 1"><path class="cls-1" d="M80.28 166.41C37 166.35 5.52 138.54.75 102.74c-3.18-23.87 3.77-44.2 20.14-61.54 4.4-4.66 4.43-4.49-1.61-7-2.07-.87-3.52-2.43-1.23-4.72 1.86-1.86 3.89-4 6.4-4.09 2 0 2.08 2.62 2.23 4.53.27 3.29 1.53 4.4 4.68 2.2 11.1-7.76 23.23-12.52 36.94-13.19 4.07-.2 4.45-2.94 1.67-5.76-1.17-1.17-1.91-2.36-1.28-3.95.73-1.87 2.5-1.27 3.9-1.35 7.09-.35 7-.3 4 6.58-1 2.27-.85 4.51 2.63 4.65 13.67.51 25.84 5.42 37.07 12.91 3.94 2.63 5.58 1.38 5.28-3-.17-2.41 1.21-4.16 2.92-3.77 2.94.66 5 3.26 6.34 5.91.59 1.16-.44 2.76-2.19 3.32-5.07 1.6-5.47 2.89-1.73 6.63 9.79 9.8 15.89 21.55 19 35 5.35 22.63.12 43.08-13.52 61.3-14.54 19.52-34.83 28.43-52.11 29.01zm62.25-72.75c.89-39.77-30.7-69.14-66.82-69.95A68.29 68.29 0 005.38 89c-1.59 42.23 30.15 72.22 68.47 72.37a68 68 0 0068.68-67.71zM74.75 0H82c1.64 0 3 .35 3 2.41 0 1.75-.94 3-2.66 3-5.4.12-10.8.09-16.2.07-1.62 0-2.25-1.05-2.3-2.56-.08-1.78.62-2.92 2.52-2.92h8.39zM25.59 18.75a5.81 5.81 0 01-1 1.76C20.31 24.06 16 27.57 11.67 31c-1 .79-2.1.44-2.86-.66s-1-2.05.06-3c4.21-3.61 8.36-7.29 12.71-10.71 2.06-1.57 3.42-.32 4.01 2.12zm114.64 9.84c-.44 2.2-1.71 3.61-3.82 2-4.41-3.38-8.57-7.09-12.8-10.7a1.51 1.51 0 01-.23-2.41c.76-.82 1.79-2.08 2.76-1.33 4.66 3.65 9.16 7.52 13.7 11.33.24.2.24.68.39 1.11z"/><path class="cls-2" d="M143.08 93.66c-.34 37.81-30.76 67.85-69 67.7-38.43-.15-70.3-30.14-68.7-72.36C6.7 54 36.06 22.81 76 23.71c36.25.81 68 30.18 67.08 69.95zm-68 64.87c36.59-1.11 64.75-28.37 65.37-65.12.63-37.24-29.19-66.77-67-66.68C39.63 26.81 8 54.59 8.09 92.26c.11 38.38 30.29 66.07 66.97 66.27z"/><path class="cls-1" d="M74.79 158.53c-36.54-.2-66.6-27.89-66.71-66.27C8 54.59 39.49 26.81 73.12 26.73c37.7-.09 67.4 29.44 66.78 66.68-.61 36.75-28.66 64.01-65.11 65.12zm-.46-5.53c32 1.48 60.82-27.73 60.46-60.51-.38-34.31-27.14-61-61-60.69-34.79.31-60.38 27.04-60.52 61.27C13.13 126.62 42 154.29 74.33 153z"/><path class="cls-2" d="M74.33 153c-32.33 1.29-61.2-26.38-61.06-59.93.14-34.23 25.75-61 60.49-61.31 33.89-.34 60.65 26.38 61 60.69.39 32.78-28.44 61.99-60.43 60.55zM129 91.88c.76-6-.87-12.52-3.2-18.89-.66-1.82-1.58-2.39-3.35-1.61-1.56.69-2.25 1.46-1.56 3.43a51 51 0 012.78 22.91c-1.64 15.38-8.89 26.9-20.92 36-8.1 6.16-17.51 7.94-27.21 9-1.93.21-3.86.06-3.85 2.82 0 3.24 2.37 2.87 4.37 2.73 1.84-.12 3.65-.76 5.49-.92C106.9 145.26 131 119.06 129 91.88zM71.64 119.6v16.85c0 1.59-.44 3.72 2.06 3.85 3 .16 2.46-2.25 2.46-4 0-9.92.08-19.84 0-29.76 0-3.43.18-6.19 3.38-8.79 3.53-2.86 2.88-7.09-.07-10.51a7.37 7.37 0 00-10.47-.7c-3.36 3-4.38 8.54-1 10.92 4.14 2.9 3.64 6.5 3.66 10.34s-.02 7.87-.02 11.8zM121 64.14c0-2-7.64-11.68-9.51-12.06-1.32-.27-2 .61-2.79 1.43a1.92 1.92 0 000 3 56.81 56.81 0 018.13 9.84c.64 1 1.54.79 2.44.33s1.91-1.15 1.73-2.54zm-25.3-22.5c-2-.06-3 .6-3.49 2s.31 2.07 1.41 2.67c3 1.6 5.88 3.27 8.83 4.88a2 2 0 002.9-.7c.6-.93 1.53-2.12.52-3a25.33 25.33 0 00-10.17-5.85zM26.13 98.13c-1.6 2.28-6.66-1.5-7.08 3.53a2.59 2.59 0 003.83 2.59c2.32-1.24 6.63 1 7-3.52.12-1.93-1.29-2.96-3.75-2.6zm34.15 39.92c.33-2.66-1.43-4.11-2.82-3.66-3.52 1.11-2.94 5.13-4.32 7.8-.92 1.77 1 2.89 2.47 2.69 4.17-.58 2.92-4.98 4.67-6.83zM43.86 59.19c1.28-.63 3.06-1.59 2.57-3.07-1-2.85-3.39-4.79-5.89-6.36-1.24-.78-2.58 0-3.2 1.32-.73 1.57 4.66 8.29 6.52 8.11zM57 50.46c2.13-.11 3.73-1.11 3.2-2.68-.93-2.72-.28-6.79-4.66-7.28-1.24-.14-3.08 0-2.35 2 1.03 2.79.81 6.37 3.81 7.96zm-21.3 66.17c-.44-1.77-1.22-3.37-3-2.86-2.94.86-6.14 1.89-7 5.37a1.84 1.84 0 002.42 2.19c2.95-.82 6.04-1.63 7.56-4.7zm-.28-47.8c0-1.24-5.71-5.53-7.25-5.54s-2.33 1-2.46 2.44c-.17 1.87 5.29 6.06 7.47 5.82 1.63-.19 1.76-1.64 2.22-2.72zm10.39 60.51c-.18-1.82-.94-3.44-2.28-3a11 11 0 00-6.39 6.49c-.69 1.74 1.44 2.92 2.68 2.76 3.65-.46 4.09-4.25 5.97-6.25zM25.15 86.53c2.56.09 5.14-.35 4.52-2.61-.88-3.2-4.53-2.39-7.08-2.9-1.83-.36-3.9.65-3.41 2.61.82 3.21 4.14 2.37 5.97 2.9zm46.41-44.25c.78 1.91-1.49 5.51 2.32 5.69 3.53.17 2.29-3.22 2.22-5.11s1.62-5.55-2.4-5.5c-3.13.05-1.62 3.09-2.14 4.92zm10.13 32c-1.75-.1-3.29.31-3.1 2.65.17 2.06 1.5 2.87 3.44 2.79A2.77 2.77 0 0085 77c.2-2.38-1.26-2.86-3.31-2.77zm-16.12 0c-1.36 0-2.74.28-2.73 2.33A2.84 2.84 0 0066 79.67c2 0 3.2-.91 3.29-2.94.07-2.43-1.66-2.54-3.72-2.51zm11.58 2.25c-.08-2.33-1.85-2.25-3.56-2.26s-3 .45-2.88 2.47 1.27 3 3.26 3 3.08-1.12 3.18-3.27z"/><path class="cls-1" d="M129 91.88c2 27.18-22.09 53.38-47.45 55.5-1.84.16-3.65.8-5.49.92-2 .14-4.35.51-4.37-2.73 0-2.76 1.92-2.61 3.85-2.82 9.7-1.05 19.11-2.83 27.21-9 12-9.14 19.28-20.66 20.92-36a51 51 0 00-2.78-22.91c-.69-2 0-2.74 1.56-3.43 1.77-.78 2.69-.21 3.35 1.61 2.32 6.34 3.95 12.81 3.2 18.86z"/><path class="cls-1" d="M71.64 119.6v-11.8c0-3.93.48-7.44-3.66-10.34-3.38-2.38-2.36-8 1-10.92a7.37 7.37 0 0110.52.69c3 3.42 3.6 7.65.07 10.51-3.2 2.6-3.41 5.36-3.38 8.79.08 9.92 0 19.84 0 29.76 0 1.76.51 4.17-2.46 4-2.5-.13-2-2.26-2.06-3.85-.06-5.61-.03-11.23-.03-16.84zM121 64.14c.19 1.39-.75 2-1.78 2.49s-1.8.65-2.44-.33a56.81 56.81 0 00-8.13-9.84 1.92 1.92 0 010-3c.75-.82 1.47-1.7 2.79-1.43 1.91.43 9.56 10.06 9.56 12.11zm-25.3-22.5a25.33 25.33 0 0110.17 5.84c1 .9.08 2.09-.52 3a2 2 0 01-2.9.7c-3-1.61-5.87-3.28-8.83-4.88-1.1-.6-1.82-1.37-1.41-2.67s1.51-2.05 3.49-1.99zM26.13 98.13c2.46-.36 3.89.67 3.73 2.6-.35 4.56-4.66 2.28-7 3.52a2.59 2.59 0 01-3.83-2.59c.44-5.03 5.5-1.25 7.1-3.53zm34.15 39.92c-1.75 1.85-.5 6.25-4.67 6.83-1.46.2-3.39-.92-2.47-2.69 1.38-2.67.8-6.69 4.32-7.8 1.39-.45 3.15 1 2.82 3.66zM43.86 59.19c-1.86.18-7.25-6.54-6.52-8.11.62-1.33 2-2.1 3.2-1.32 2.5 1.57 4.94 3.51 5.89 6.36.49 1.48-1.29 2.44-2.57 3.07zM57 50.46c-3-1.59-2.76-5.17-3.81-8-.73-2 1.11-2.13 2.35-2 4.38.49 3.73 4.56 4.66 7.28.51 1.61-1.09 2.61-3.2 2.72zm-21.32 66.17c-1.52 3.07-4.61 3.88-7.56 4.7a1.84 1.84 0 01-2.42-2.19c.89-3.48 4.09-4.51 7-5.37 1.76-.51 2.54 1.09 2.98 2.86zm-.28-47.8c-.46 1.08-.59 2.53-2.24 2.72-2.18.24-7.64-4-7.47-5.82.13-1.41.83-2.45 2.46-2.44s7.23 4.3 7.25 5.54zm10.39 60.51c-1.88 2-2.32 5.79-6 6.28-1.24.16-3.37-1-2.68-2.76a11 11 0 016.39-6.49c1.35-.47 2.11 1.15 2.29 2.97zM25.15 86.53c-1.83-.56-5.17.31-6-2.9-.49-2 1.58-3 3.41-2.61 2.55.51 6.2-.3 7.08 2.9.65 2.26-1.93 2.7-4.49 2.61zm46.41-44.25c.52-1.83-1-4.87 2.14-4.92 4 0 2.32 3.49 2.4 5.5s1.31 5.28-2.22 5.11c-3.81-.18-1.54-3.78-2.32-5.69zm10.13 31.95c2-.09 3.51.39 3.29 2.73a2.77 2.77 0 01-3 2.71c-1.94.08-3.27-.73-3.44-2.79-.14-2.34 1.4-2.75 3.15-2.65zm-16.12-.01c2.06 0 3.79.08 3.68 2.51-.09 2-1.31 3-3.29 2.94a2.84 2.84 0 01-3.12-3.12c-.01-2.05 1.37-2.38 2.73-2.33zm11.58 2.25c-.1 2.15-1.19 3.17-3.18 3.2s-3.16-1-3.26-3 1.19-2.49 2.88-2.47 3.48-.06 3.56 2.27z"/></g></g></svg>