<svg xmlns="http://www.w3.org/2000/svg" viewBox="0 0 666.17 444.43"><defs><style>.cls-3{fill:#e7f5fc}.cls-4{fill:#b1dcdf}.cls-5{fill:#525b8a}.cls-6{fill:#364b8a}.cls-7{fill:#273052}.cls-8{fill:#d4ecfb}.cls-9{fill:#283a6d}.cls-10{fill:#aacaeb}.cls-13{fill:#707bad}.cls-14{fill:#6989b9}.cls-15{fill:#84c4db}.cls-16{fill:#e9456d}.cls-17{fill:#fff}.cls-19{fill:#4265ad}.cls-20{fill:#94a4c2}.cls-22{fill:#6d87c2}</style></defs><g id="Слой_2" data-name="Слой 2"><g id="Слой_1-2" data-name="Слой 1"><path d="M210.21 288.38a4.11 4.11 0 01-1.11-.12 4.11 4.11 0 001.11.12zm379.18 110.86a2.57 2.57 0 002 2.6 4.23 4.23 0 00.41.33 4.23 4.23 0 01-.41-.33 2.57 2.57 0 01-2-2.6zM210.72 279.62a36.41 36.41 0 011.06-3.88c1.46.32 2.93.66 4.4.95-1.47-.29-2.94-.63-4.4-.95a36.41 36.41 0 00-1.06 3.88zm9.99-23.79l-.87.15zm121.76 146.72h13.57-13.57zM200.46 282a1.38 1.38 0 00-.48.26 1.38 1.38 0 01.48-.26zm17.34 58c.35.87.74 1.73 1 2.61-.31-.88-.7-1.74-1-2.61zm85.46 59.32c0-.06-.05-.14-.08-.2s.05.14.08.2zm-82.55-143.49a6.57 6.57 0 011.76-.17 6.57 6.57 0 00-1.76.17zM273.75 287c-.41-6.63.28-13.22.84-19.81-.56 6.59-1.25 13.17-.84 19.81a41.1 41.1 0 01.75 9 41.1 41.1 0 00-.75-9zm-56.86 15.92a112.81 112.81 0 00-5.47-14.73 112.81 112.81 0 015.47 14.73zM274.5 296c0 1.51-.09 3-.18 4.53.09-1.53.16-3 .18-4.53zm-62.18-39.74a18.23 18.23 0 013-.31 18.23 18.23 0 00-3 .31zm52.55 71.15a2.91 2.91 0 001.77-.93c.41 0 .82-.05 1.23-.08-.41 0-.82.07-1.23.08a2.91 2.91 0 01-1.77.93zm9.45-26.86c-.08 1.5-.19 3-.27 4.5.08-1.5.19-3 .27-4.5zm-56.42 26.74c-3-3.56-6-7.15-9-10.67 3.02 3.51 5.99 7.1 9 10.67zm-9.8-69.2zm94.19 135.3c0 1.17.1 2.34.16 3.51 0 .12.06.21.09.32 0-.11-.06-.2-.09-.32-.06-1.17-.16-2.34-.16-3.51zm225.55 9.15a49.81 49.81 0 006.31-.57 49.81 49.81 0 01-6.31.57zm-71.04-.74l13.26.13-13.26-.13zm64.88-1.15c.1.67.51 1.19 1.8 1.24l.28.05-.28-.05c-1.29-.05-1.7-.57-1.8-1.24zm17.6-57.97v-8.57 36.78zm-.1 52.39a8.13 8.13 0 01-5 6.9 8.13 8.13 0 005-6.9zm82.75-24.16q-18.85.06-37.69.18l37.69-.18zm-261.16-97.73a11.42 11.42 0 01-1.27.22 11.42 11.42 0 001.27-.22zm-4.77.49l2.33-.15-2.33.15zm102.4 40.56a2.5 2.5 0 01-1.15.23 2.5 2.5 0 001.15-.23zm.6-69.52h4.23H459c0-7.7-.08-15.4 0-23.1-.13 7.7 0 15.39 0 23.1zm-96.61 27.62a2.52 2.52 0 01-.87.61 2.52 2.52 0 00.87-.61zm96.5 41.48l11.2-.06-11.2.06zm-112.01 20.42l.03.01-.03-.01zm277.28 66.53l.7-.76-.06.06c-.21.23-.42.47-.64.7zM200.09 280.9a2.42 2.42 0 010-1 2.42 2.42 0 000 1zM99.66 324.35c0-1.81-.06-3.62 0-5.42-.06 1.8-.05 3.61 0 5.42zm370.4 77.58l13.51.19-13.51-.19zm3.12 23.13zm-272.96-73.29a157.26 157.26 0 01-2.11 17.46 157.26 157.26 0 002.11-17.46zm155.93 54.72v.38zM69.86 420.9zm32.44 4.9a5.5 5.5 0 00-1.24-1.23 5.5 5.5 0 011.24 1.23zm-32.45-2.21a10.08 10.08 0 010-2.69 10.08 10.08 0 000 2.69zM551.24 402l.09 1.33a3.47 3.47 0 01.72 2.49 3.47 3.47 0 00-.72-2.49l-.09-1.33h-13.6zM13.5 404a28.06 28.06 0 01-2.19-5.46A28.06 28.06 0 0013.5 404a16.05 16.05 0 014.59.37 16.05 16.05 0 00-4.59-.37zm-2.19-5.51A39.83 39.83 0 0110 390a39.83 39.83 0 001.31 8.49zm612.91 2.27l-1 .88zm-487.66-18.59c1.65-.23 2.16.37 2.32 1.28-.16-.91-.68-1.51-2.32-1.28zm488.2-8.75a1.92 1.92 0 011.64.49 1.92 1.92 0 00-1.64-.49zm-342.4-140.76c3.87 0 7.74 0 11.61.13-3.87-.12-7.74-.14-11.61-.13zm340.8 132.93a18.55 18.55 0 01.41 2.1 18.55 18.55 0 00-.41-2.1zM19.82 425.83c0-1.86.05-3.73.08-5.59-.03 1.86-.05 3.76-.08 5.59zm114.94-43.02v17.65q-.03-8.83 0-17.65zM87 369.8zm49 12.42a4.71 4.71 0 00.54-.05 4.71 4.71 0 01-.54.05zm-54.91-42.37v-1.74 1.74a1.2 1.2 0 000 2.09 1.2 1.2 0 010-2.09zm31.58 42.52a1.17 1.17 0 00-.5.4h-7 7a1.17 1.17 0 01.5-.4zM624.86 400l.62-.66zM76.74 411.78a4.19 4.19 0 00-2.19-.56 4.13 4.13 0 012.18.56c0 2 .23 4 .08 6 .19-2.01-.04-4.01-.07-6zm.2-11.31zm62.22-81.86q-.12 17.75-.21 35.5.05-17.76.21-35.5zm-10.79 21.24a17.22 17.22 0 01.1-2.46 15.87 15.87 0 00-.1 2.46zM99.8 329.79l2.31.07zm-8.8 6.53c-.06-.72-.13-1.45-.14-2.17.03.72.14 1.45.14 2.17zm.05 14.9v6.16h-.33.33c-.05-2.05-.05-4.1 0-6.16zm7 6.13a35.37 35.37 0 017 .16 35.37 35.37 0 00-7-.16zm1.75-27.56h-4 4zm36.54-11.24c.07.31.14.63.22.95-.08-.32-.15-.64-.22-1-1.09-3.07-2.49-5-4.6-6 2.11 1.05 3.51 2.97 4.6 6.05zm104.11-71.76a4.44 4.44 0 00-1.22 0 4.44 4.44 0 011.22 0zm377.06 104.92a35.66 35.66 0 00-2.69-3.49 12.37 12.37 0 00-1-1.65 12.37 12.37 0 011 1.65 35.66 35.66 0 012.69 3.49zm-94.86 63.95a89.26 89.26 0 01-2.11 9.48c-.32.94-.65 1.87-1 2.81.32-.94.65-1.87 1-2.81a89.26 89.26 0 002.11-9.48zm-507.73-1.81a60.52 60.52 0 01-12-13.41l6.3 1.45-6.3-1.45L0 399v26.84h17c0-4.13.57-8.34-2.08-11.99zm13.34 11.3l40.4-.09zM475.6 207.06c-.25-.68-.72-.95-1.66-1.06.94.11 1.41.38 1.66 1.06zm33.29 3.68q-16.51-.08-33-.2a12.87 12.87 0 00-.27-3.48 12.87 12.87 0 01.27 3.48q16.5.11 33 .2zm-279.63 38.6c0-1.46-.91-2.59-2.84-3.31a10.73 10.73 0 00-2-.11 10.58 10.58 0 012 .11c1.93.72 2.88 1.85 2.84 3.31zM24.07 425.89a10.36 10.36 0 002.78-.23 10.36 10.36 0 01-2.78.23zm599.84-52.34l-.15-.83.15.83zm1.57 25.79l.75-.76z" fill="none"/><path d="M3.59 257.38c0-3.12 1.18-3.68 4.11-3.31A74.13 74.13 0 0028 254c1.84-.27 4.21.76 5.39-.71 1.41-1.76.51-4.3.52-6.49.08-9.05.11-18.09 0-27.13 0-2.44.79-2.93 3.16-3.31 5.87-.94 11.65.27 17.46.11 4.79-.12 9.56.12 14.37-.56 6.51-.92 13.06.83 19.63.62 2.25-.08 1.79 1.74 1.79 3.05 0 6.93.11 13.86 0 20.79-.06 2.62.5 3.75 3.46 3.68 8.34-.2 16.68-.17 25 0 2.7 0 3.41-.86 3.35-3.44-.16-6.81 0-13.62-.1-20.43 0-2.51.31-3.82 3.38-3.8s6.17-1 9.36 0c1.79.55 2.83-.6 2.81-2.56 0-3.41.08-6.82 0-10.22-.06-2 .71-2.69 2.68-2.64 4 .1 8-.08 12 .06 2.29.09 3.09-.67 3.05-3-.12-7.16-.05-14.33 0-21.49 0-4.43 0-4.44 4.59-4.45 2.7 0 5.4.11 8.1 0 2.15-.11 2.87.69 2.84 2.84-.09 7.63.05 15.27-.08 22.9 0 2.42.65 3.42 3.17 3.23s4.94.1 7.4-.07c2.84-.2 3.76 1 3.6 3.74s.05 5.17-.06 7.75c-.08 2 .66 2.76 2.65 2.67 2.46-.12 4.94.12 7.4-.07s3.49.64 3.43 3.33c-.16 8.1-.07 16.21 0 24.31 0 .47-.06.95-.06 1.43a2.26 2.26 0 001 2.12c1.65-.61 3.32-1.14 4.93-1.83 4.25-1.82 8.2-1.87 11.55 1.81.86.95 1.78.76 2.86.6.67-.1 1.32-.22 2-.35a26.83 26.83 0 014-.55 10.73 10.73 0 012 .11c1.93.72 2.88 1.85 2.84 3.31a5.61 5.61 0 01-1.15 2.95 8.49 8.49 0 003.46.89c2 .12 3.94-.2 5.89-.05a29.22 29.22 0 00.24-3.84c-.1-1.57.46-2.29 1.53-2.48a4.44 4.44 0 011.22 0c.12-4.1.26-8.19.39-12.29s.23-8.18.28-12.28c0-2.38.86-3 3.09-2.91q12.1.47 24.21.66c1.9 0 2.41.81 2.36 2.55-.08 3.39 0 6.8 0 10.19 3.87 0 7.75 0 11.62-.05s7.74 0 11.61.13c3.33.1 4.36-.78 4.35-4.23-.13-32.62 0-65.24-.16-97.85 0-3.51.78-4.56 4.43-4.52 17.6.21 35.2.16 52.8 0 2.84 0 3.88.87 3.46 3.59 6.44-3.65 13.28-4.48 19.73-.84 3.28 1.85 6.2 3.34 10 3a5.67 5.67 0 012.61.92c2 1 3.53 3 6.27 2 .66-.24 1.85.79 2.71 1.36a1.68 1.68 0 01.84 1.81c-.22.85-1 .86-1.71.88h-40.46c0 13.15.11 26.31 0 39.46 0 2.83.85 3.58 3.6 3.54 10-.15 20 0 29.94-.1 2.45 0 3.28.71 3.22 3.19-.14 6.46 0 12.92-.08 19.38 0 2.09.59 3 2.8 2.88a45.26 45.26 0 018.79 0c4 .6 5.66-1.56 7.28-4.53 4.68-8.65 9.56-17.19 14.23-25.84 1.39-2.6 2-2.1 3.33.06 5.29 8.7 10.78 17.27 16.1 25.94a5.42 5.42 0 005.39 2.95c6-.21 12-.07 18-.07 1.11 0 1.95 0 2.58.07.94.11 1.41.38 1.66 1.06a12.87 12.87 0 01.27 3.48q16.51.11 33 .2c7.38 0 14.76-.07 22.14 0 5.63.09 8.12 2.72 8.14 8.28q.06 22.5.11 45c5.86 0 11.73.07 17.59-.17 2.65-.11 3.87.7 4.81 3.25a523.45 523.45 0 0020.57 49c1.45 2.94 3 5.81 4.68 8.67 2.65 4.64 5.59 8.61 11.45 10 4.49 1.11 8.32 4.2 11.41 7.87a16.17 16.17 0 014.05 3.9 12.37 12.37 0 011 1.65 35.66 35.66 0 012.69 3.49 35 35 0 015.09 12c.21.64.4 1.28.56 1.93a18.55 18.55 0 01.41 2.1 12.38 12.38 0 010 3.84c.07.39.14.79.22 1.19l.15.83a5.88 5.88 0 01.85-.13 1.92 1.92 0 011.64.49 3.69 3.69 0 01.57 2.59c-.15 6.79 0 13.58 0 20.37 0 .77 0 1.39-.77 1.75l-.75.76-.62.66-.7.76h.06l-1 .88c-7.77.51-15.55.19-23.32.17l-8.15.36c0 2.75-.21 5.5-.47 8.23s-.63 5.46-1 8.18A57.76 57.76 0 00609 417c16.2-3.92 30.31-12.22 43.75-21.79a50.36 50.36 0 0012.91-12.72c.17-.25.33-.51.49-.76v-69a103.43 103.43 0 00-19.47-26.63c-13.25-13.3-27.25-25.81-40.56-39a35.24 35.24 0 01-2.61-2.86c-8-9.88-10.39-21.64-10.53-33.83a129.78 129.78 0 012.39-24.41c2.41-13.43 4.91-26.79 3.29-40.66a136.2 136.2 0 00-5.48-26c-6.3-19.62-17.17-36.53-31.41-51.33A280.79 280.79 0 00530.85 40c-21.1-16.24-44.07-28.64-70.21-34.79A171.81 171.81 0 00427.83.26C411.59-.35 395.35 0 379.2 2.82a284.06 284.06 0 00-49 13A203.37 203.37 0 00286 38.54c-12 8.18-23.16 17.46-34.24 26.75-8.13 6.85-16.07 13.93-24.38 20.57a290.35 290.35 0 01-40.26 27.39c-18.94 10.53-38.85 18.07-60.5 19.95-12.09 1.05-24.21 1.5-36.19 3.63a199.75 199.75 0 00-35.69 10.1A176.27 176.27 0 0031.64 158 163.32 163.32 0 00.22 180.88c-.08.06-.15.14-.22.2v100.73a19.11 19.11 0 013.62-.47c0-7.99.08-15.97-.03-23.96zM233.84 179c3.86-4.36 11.23-5.63 16.28-2.49 1.93 1.2 3.76 2.22 6.15 2a3.83 3.83 0 012.61.77 7.41 7.41 0 005.71 2.06 1.53 1.53 0 011.75 1.73c-.1 1.11-1.12 1-1.92 1H236c-1.07 0-2.55.59-3.09-.86a3.93 3.93 0 01.93-4.21z" fill="#ecf2fb"/><path class="cls-3" d="M624.8 400.06l.06-.06z"/><path class="cls-4" d="M9.23 401.89a10.47 10.47 0 01-.64-2c-.62-5.35-2.09-9.79-7.95-12a6.31 6.31 0 01-.64-.31V399l2.93 1.46z"/><path class="cls-4" d="M6.49 385.71c.28-9 2.3-17.36 8.23-24.45a16.88 16.88 0 001.47-2.8c1.37-2.51 1.18-4.14-1.94-5.31a11.13 11.13 0 01-7-8.14c2.71 1.86 4.57 4.27 7.27 5.57 2.34 1.13 3.71 1.37 4.5-1.93a58.43 58.43 0 00-4.05-39 9.59 9.59 0 01-1.25-5.05c3.11 2.39 4.47 5.41 5.51 8.59.81 2.49 1.17 5.65 4.67 1.14 0 1.1.13 1.62 0 1.72-3.57 2.43-2.42 5.72-1.94 9.09 1.94 13.42 1 26.39-6.43 38.27a31 31 0 00-3.08 7.45c-.63 2 .17 2.31 1.93 1.7a25.82 25.82 0 007.81-4.28c-.72 4.11-3.79 6-7.16 6.55-4.19.65-5 3-5.05 6.51-.06 2.91-.12 5.81 0 8.69a39.83 39.83 0 001.32 8.48 28.06 28.06 0 002.2 5.49 16.05 16.05 0 014.59.37 33.62 33.62 0 014.3 1.31c5.08 1.86 9.08.14 13-2.46a32.92 32.92 0 005.42-4.42c6.86-7 6.62-14.45-.14-21.6-3.14-3.32-7.28-5.55-9.83-9.47-3-4.65-2.28-8.77 2.11-12.24a58.36 58.36 0 0011.73-12c2.67-3.79 2.63-7.62 0-11.43-1.6-2.3-3.26-4.58-4.68-7-1.84-3.14-3.67-6.52-3.21-10.23 1.17-9.49-2.72-16.55-9.77-22.38-6.87-5.68-14.32-10.1-23.42-11.05a19.11 19.11 0 00-3.62.47V307c.48 1.1.94 2.2 1.35 3.32a11.15 11.15 0 01-1.35 11v63.17a14.43 14.43 0 004 2.62c1.43.55 2.45.75 2.51-1.4z"/><path class="cls-5" d="M238.85 389.39c-5-16.42-14.29-30.8-20-46.79-.31-.88-.7-1.74-1-2.61-1.58.15-3.16.23-4.73.24a115.61 115.61 0 01-14.14-1c0 2.11 0 4.23.13 6.33a24.73 24.73 0 001.16 6.22 2.3 2.3 0 012.06 1.08 141.28 141.28 0 007.91 12.44c.93 1.36 1.84 2.71 2.74 4.09a81.94 81.94 0 017.52 9.61 28.73 28.73 0 014.5 11.28c1.54 10.34 6.05 19.31 10.92 28.25 1.06 1.94 2 3.93 3 5.9.76 1.41 1.52 2.81 2.27 4.22l4.09 6.38c5.63 1.75 9.86-.52 13.44-4.68l-.11-.72a14.27 14.27 0 01-1.55-2.48 18.85 18.85 0 01-1.07-2.73c-6.41-11.35-13.38-22.61-17.14-35.03z"/><path class="cls-6" d="M522.65 415.66a46.19 46.19 0 00.56-9.71c-.08-1.32.54-2.68.83-4h-.28l-.28-.05c-1.29-.05-1.7-.57-1.8-1.24s.1-1.5 0-2.16c-.79-8.68-2.24-17.16-7.2-24.61-5.91-8.89-15-8.94-21.11-.14-4.17 6-5.79 12.95-7 20-.36 2.18-.53 4.4-.72 6.6a1.42 1.42 0 01-1.54 1.51.83.83 0 00-.61.26c.37 6.62.86 13.18 2.49 19.51a45.63 45.63 0 004.38 11.1 22.31 22.31 0 0010.05 9.78c6.1 1.11 10.57-1.49 14.2-6.14 2-2.59 3.24-5.63 4.88-8.42.32-.94.65-1.87 1-2.81a89.26 89.26 0 002.15-9.48zM511.23 421c-4.58 7.39-10.82 7.18-15.05-.47-3.62-6.55-4.51-13.76-3.94-21.05.35-4.61 1-9.31 3.49-13.45.24-.4.41-.85.65-1.25 4.38-7 10.36-7.12 14.76-.13 3.55 5.64 4.51 11.95 4.19 18.38.29 6.5-.74 12.58-4.1 17.97zm80.54-18.83a4.23 4.23 0 01-.41-.33 2.57 2.57 0 01-2-2.6v-2c-.61-8.76-2.53-17.07-7.81-24.36s-13.23-7.53-18.95-.39c-6.08 7.61-7.52 16.66-8.51 25.89-.16 1.44.8 3.59-2 3.53l-.82.09.09 1.33a3.47 3.47 0 01.72 2.49 20.46 20.46 0 00-.1 2.59 52.92 52.92 0 007.73 26.4c2.11 3.47 5 6.48 9.13 7.7 5.92 1.15 10.18-1.53 13.67-6 4.17-5.29 6-11.58 7.77-17.92.42-2.72.78-5.45 1-8.18s.45-5.49.49-8.24zM577.66 423c-4.55 5-9.55 4.3-13.08-1.62a25.26 25.26 0 01-3.75-10.48c-.85-9-1.47-18.05 3.73-26.19 4.63-7.26 10.89-7 15.1.65 2.33 4.22 4 11.62 4 18.59-.77 6.05-.85 13.4-6 19.05z"/><path class="cls-7" d="M206.51 388c3.6-5.18 4.39-11.48 5.89-17.46a7.75 7.75 0 01.53-1.18c-.9-1.38-1.81-2.73-2.74-4.09a141.28 141.28 0 01-7.91-12.44 2.3 2.3 0 00-2.06-1.08 157.26 157.26 0 01-2.11 17.46c-.3 1.93-.58 3.87-.81 5.81a10.94 10.94 0 01-4.13 7.81c-3.59 2.79-6 6.49-8.08 10.46-5.63 10.63-11.38 21.2-17.08 31.8.18 1.92-.91 3.21-2.19 4.4-.3.63-.59 1.27-.9 1.88-2.33 4.56-1.41 6.1 4 6.55a2.24 2.24 0 011.7 1.07c4.22 5.71 10.5 4.68 16.36 5a1.42 1.42 0 001.64-1c.18-.77-.36-1.27-.92-1.75-1.06-.89-2.44-.71-3.63-1.16-2.46-.92-5.3-5.32-4.06-6.58 1.43-1.45 1.9-3.47 3.34-4.85a12.71 12.71 0 012.35-4.22c6.69-12.26 12.79-24.87 20.81-36.43z"/><path class="cls-8" d="M1.35 310.31C.94 309.19.48 308.09 0 307v14.3a11.15 11.15 0 001.35-10.99z"/><path class="cls-6" d="M393.78 402.12c-5.1-1-5.84-.36-6 4.84a28.23 28.23 0 01-4 14c-4.67 7.51-10.94 7.23-15.26-.57-2.42-4.38-3.32-9.2-3.9-14.06-.54-4.54-1-5.05-5.45-4.35-1 .16-2.05.41-3.08.62 0 1.3 0 2.61.11 3.9v.38c.13 2.57.36 5.12.74 7.64a53.45 53.45 0 006.26 18.76 21.33 21.33 0 009.74 9.25c5.78 1 10.16-1.25 13.76-5.64 2.09-2.54 3.37-5.54 5-8.35L393 425a88.66 88.66 0 002.37-11.09 77.42 77.42 0 00.82-11.31c-.81-.19-1.61-.32-2.41-.48zm-253.65 23.77c.91 0 1.84 0 2.17-1.25a4.66 4.66 0 010-3.27.6.6 0 00-.25-.46 2.43 2.43 0 00-1.27-.08c-.76.06-1.48.05-1.57-1.28q-.13-17.15-.25-34.29a10.58 10.58 0 00-.07-1.81c-.16-.91-.67-1.51-2.32-1.28v37.85c0 .73-.32.93-.69 1s-.81-.12-1.17-.09c-9.72 0-19.44-.07-29.15.1-3 .05-4.4-.83-4-4 .17-1.51 0-3 0-4.57s-.57-2.09-2.07-2.09-2.2.56-2.09 2.07v.7c-.29 7.8-.29 7.8-8.31 7.8-3 0-6.1-.15-9.13 0-2.52.16-3.33-.81-3.14-3.23.15-2 0-4-.08-6a4.13 4.13 0 00-2.18-.56 1.19 1.19 0 00-.84.55 4.66 4.66 0 00-.45 2.35c0 2.25 1.28 4.92-1.24 6.77h-2.17a10.08 10.08 0 000 2.69c.26 1.22 1.16 1.82 3.69 1 1.17-.38 3.33-1.12 4.09 1.23h19.73c1.23-1.67 2.46-2.08 3.7-1.25a5.5 5.5 0 011.24 1.23h31.49c-1.35 1.62-2.24 2.7-3.14 3.77-1.68 5 2.15 8.92 6.42 8.27 3.7-.56 5.3-3.42 4.61-8.33l-3-3.24a2.4 2.4 0 011.44-.3zm-1.13 6.16a2.75 2.75 0 01-2.9 2.91 2.57 2.57 0 01-2.76-2.57c-.12-1.94 1-3 3-3.08 1.66-.08 2.66.69 2.66 2.74z"/><path class="cls-9" d="M490.44 432.73a45.63 45.63 0 01-4.38-11.1c-1.63-6.33-2.12-12.89-2.49-19.51l-13.51-.19a64.79 64.79 0 00.76 11.67c.28 1.93.64 3.84 1 5.75s.85 3.82 1.32 5.71c.46 1.2.92 2.39 1.37 3.58 1.76 3 3.14 6.26 5.53 8.88s5.15 4.94 8.85 5.14 7.7-.08 11.56-.15a22.31 22.31 0 01-10.01-9.78zm69.24 2.04a52.92 52.92 0 01-7.73-26.4c-1.2-1.58-.46-3.38-.62-5.08l-.09-1.33h-13.6c.74 7.81 1.2 15.65 3.59 23.2l1 2.81c2.2 4.07 4.17 8.26 7.72 11.48 5.69 5.16 12.45 3 18.9 3.05-4.22-1.25-7.06-4.26-9.17-7.73zm-196.5-1.5a53.45 53.45 0 01-6.26-18.76c-.38-2.52-.61-5.07-.74-7.64v-.38c-.06-1.29-.09-2.6-.11-3.9H342.5a67.56 67.56 0 00.75 11c.53 3.64 1.3 7.25 2.15 10.85.52 1.4 1.05 2.81 1.58 4.21 1.79 3.13 3.28 6.46 5.79 9.14s5.06 4.7 8.62 4.88c3.84.2 7.7-.07 11.56-.14a21.33 21.33 0 01-9.77-9.26z"/><path class="cls-10" d="M8.59 399.9a10.47 10.47 0 00.64 2 21.87 21.87 0 003.88 7.22 7 7 0 011.81 4.74c2.65 3.65 2.08 7.86 2.11 12h2.79c0-1.86.05-3.73.08-5.59.22-4.94-2.46-8.81-4.71-12.85-.63-1.12-1.13-2.29-1.69-3.44a28.06 28.06 0 01-2.19-5.46A39.83 39.83 0 0110 390c-.16-2.88-.1-5.78 0-8.69.07-3.47.86-5.86 5.05-6.51 3.37-.53 6.44-2.44 7.16-6.55a25.82 25.82 0 01-7.81 4.28c-1.76.61-2.56.33-1.93-1.7a31 31 0 013.08-7.45c7.44-11.88 8.37-24.85 6.43-38.27-.48-3.37-1.63-6.66 1.94-9.09.15-.1 0-.62 0-1.72-3.5 4.51-3.86 1.35-4.67-1.14-1-3.18-2.4-6.2-5.51-8.59a9.59 9.59 0 001.26 5.06 58.43 58.43 0 014.05 39c-.79 3.3-2.16 3.06-4.5 1.93-2.7-1.3-4.56-3.71-7.27-5.57a11.13 11.13 0 007 8.14c3.12 1.17 3.31 2.8 1.94 5.31a16.88 16.88 0 01-1.47 2.8c-5.93 7.09-8 15.49-8.23 24.45-.06 2.15-1.08 2-2.46 1.37a14.43 14.43 0 01-4-2.62v3.13a6.31 6.31 0 00.64.31c5.8 2.23 7.3 6.67 7.89 12.02z"/><path class="cls-3" d="M256 424.42a18.85 18.85 0 001.07 2.73 14.27 14.27 0 001.55 2.48c1.13-1.56 2.8-.95 4.23-.95q42.07-.06 84.13 0c-.53-1.4-1.06-2.81-1.58-4.21zm217.18.64c-24.07 0-48.15.11-72.22 0-2.65 0-5.32.38-8-.07l-1.31 3.57 82.87.11c-.45-1.19-.91-2.38-1.37-3.58zm-287.51-.63a12.71 12.71 0 00-2.35 4.22h57.85c-.75-1.41-1.51-2.81-2.27-4.22zM13.41 428c15.26-.27 30.53-.15 45.8 0 3.38 0 6.94-.11 10.12 1.61 2.15-1.49 1.44-2.55.39-3.57-.35-.34-.73-.67-1.06-1l-40.4.09a6.66 6.66 0 01-1.41.51 10.36 10.36 0 01-2.78.23 26.24 26.24 0 00-4.25-.06H0v2c4.47.19 8.93.27 13.41.19z"/><path class="cls-9" d="M245.26 435c1.83 1.49 2 3.84 2.84 5.8 2 4.41 4.63 4.8 7.78 1a2 2 0 011.68-1c6.15.08 10.73-3.53 15.51-6.64.68-.45 2.07-.66 1.62-1.88s-1.74-1.21-2.72-.8c-4.65 1.91-8.94.18-13.27-1.16-3.58 4.19-7.81 6.46-13.44 4.68z"/><path class="cls-5" d="M77.63 425.8c-.76-2.35-2.92-1.61-4.09-1.23-2.53.84-3.43.24-3.69-1a10.08 10.08 0 010-2.69 1.85 1.85 0 00-1 .83 1.54 1.54 0 00-.17.51 4.42 4.42 0 000 1.14 3.28 3.28 0 010 1.68c.33.34.71.67 1.06 1 1 1 1.76 2.08-.39 3.57a7.38 7.38 0 000 4.46 6 6 0 007.43 3.6c3.27-1.05 4.54-3.94 3.64-8.29-.72-1.38-2.54-1.86-2.79-3.58zM75 434.92a2.57 2.57 0 01-2.94-2.75c0-1.8 1.15-2.72 2.92-2.82s2.65.69 2.68 2.75a2.7 2.7 0 01-2.66 2.82z"/><path class="cls-3" d="M145.69 425.11c-1.15 0-2.34.26-3.39-.47-.33 1.25-1.26 1.23-2.17 1.25a2.4 2.4 0 00-1.49.38l3 3.24c.16-.17.31-.47.47-.49a151 151 0 0123.2 0c.16 0 .31.32.47.49 1.28-1.19 2.37-2.48 2.19-4.4-7.4 0-14.84.02-22.28 0z"/><path class="cls-5" d="M102.3 425.8a5.5 5.5 0 00-1.24-1.23c-1.24-.83-2.47-.42-3.7 1.25-.72 1.62-2.35 2.41-3.38 3.73-.29 2.76-.32 5.46 2.3 7.28a5.65 5.65 0 006.62.23c3-1.85 3.13-4.66 2.27-7.71-.7-1.35-2.48-1.91-2.87-3.55zm-2.45 9.2c-1.76 0-3-.88-3.09-2.65s1-2.81 2.74-3 2.91.65 2.83 2.5c.09 1.88-.43 3.15-2.48 3.15z"/><path class="cls-8" d="M110 425.8h-7.7c.39 1.64 2.17 2.16 2.87 3.55a8.83 8.83 0 012.31-.69c7-.05 14 0 21 0a2.2 2.2 0 012.12.93c.9-1.07 1.79-2.15 3.14-3.77z"/><path class="cls-3" d="M520.54 425.14c-.32.94-.65 1.87-1 2.81h22.62l-1-2.81z"/><path class="cls-8" d="M97.36 425.82H77.63c.25 1.72 2.07 2.24 2.78 3.61a22.37 22.37 0 0113.57.14c1.02-1.34 2.66-2.13 3.38-3.75zM9.23 401.89l-6.3-1.45a60.52 60.52 0 0012 13.41 7 7 0 00-1.81-4.74 21.87 21.87 0 01-3.89-7.22z"/><path d="M68.66 425.06a3.28 3.28 0 000-1.68 4.42 4.42 0 010-1.14 1.54 1.54 0 01.17-.51 1.85 1.85 0 011-.83H72a8.68 8.68 0 00.52-4.35c0-.49-.09-1-.14-1.44-.38-3.56.44-5.72 4.54-5.21v-9.42c0-5.26 0-10.51-.13-15.77 0-2 .7-2.68 2.65-2.58 1.22.06 2.44.06 3.67.06h3.68l.21-11.28v-13.43c-3.66-.11-5-.15-5.55-1.61a15.93 15.93 0 01-.31-4.47v-9.46a1.2 1.2 0 010-2.09v-1.74c0-8.86 0-8.86 9.14-8.68a1.39 1.39 0 011.48.45h8c0-1.81-.1-3.63-.14-5.44s-.06-3.62 0-5.42c.32-6.09 4.36-9.9 10.47-10 5.5-.11 11 0 16.49 0 7.93 0 10.39 1.93 12.5 9.72a3.24 3.24 0 01.54 1.85c0 .63-.08 1.28-.08 1.91 0 10.57.11 21.15 0 31.72 0 2.68.82 3.73 3.4 3.28 3.27-.57 3.93 1 3.82 3.95-.21 5.75-.18 11.51 0 17.26.08 2.68-.57 4.06-3.48 3.57s-3.79.72-3.74 3.66c.18 10 .08 20 .05 30 0 1.26.35 2.59-.42 3.78.09 1.33.81 1.34 1.57 1.28a2.43 2.43 0 011.27.08.6.6 0 01.25.46 4.66 4.66 0 000 3.27c1 .73 2.24.47 3.39.47h22.32c5.7-10.6 11.45-21.17 17.08-31.8 2.1-4 4.49-7.67 8.08-10.46a10.94 10.94 0 004.17-8.02c.23-1.94.51-3.88.81-5.81a157.26 157.26 0 002.11-17.46 24.73 24.73 0 01-1.16-6.22c-.14-2.1-.12-4.22-.13-6.33a11.57 11.57 0 01-1-4.12 39.17 39.17 0 01.44-6.94 95 95 0 00-.64-24.06c-1-6.89-2.3-13.94 1.44-20.55a4.34 4.34 0 01.84-1.3 1.38 1.38 0 01.48-.26 4 4 0 01-.37-1.09 2.42 2.42 0 010-1 2.63 2.63 0 011.36-1.57c.69-2 0-3.82-1-5.54-2.21-1.54-4.83-2.77-4.49-6.16-4.58-5.07-3.93-10.83-2.15-16.7.76-2.5 3.61-2.29 5.22-3.72a2.26 2.26 0 01-1-2.12c0-.48.06-1 .06-1.43 0-8.1-.12-16.21 0-24.31.06-2.69-.84-3.54-3.43-3.33s-4.94-.05-7.4.07c-2 .09-2.73-.7-2.65-2.67.11-2.58-.09-5.18.06-7.75s-.76-3.94-3.6-3.74c-2.46.17-4.94-.11-7.4.07s-3.21-.81-3.17-3.23c.13-7.63 0-15.27.08-22.9 0-2.15-.69-3-2.84-2.84-2.7.14-5.4 0-8.1 0-4.58 0-4.59 0-4.59 4.45 0 7.16-.08 14.33 0 21.49 0 2.33-.76 3.09-3.05 3-4-.14-8 0-12-.06-2-.05-2.74.64-2.68 2.64.11 3.4 0 6.81 0 10.22 0 2-1 3.11-2.81 2.56-3.19-1-6.25 0-9.36 0s-3.42 1.29-3.38 3.8c.12 6.81-.06 13.62.1 20.43.06 2.58-.65 3.49-3.35 3.44-8.33-.16-16.67-.19-25 0-3 .07-3.52-1.06-3.46-3.68.14-6.93.06-13.86 0-20.79 0-1.31.46-3.13-1.79-3.05-6.57.21-13.12-1.54-19.63-.62-4.81.68-9.58.44-14.37.56-5.81.16-11.59-1-17.46-.11-2.37.38-3.2.87-3.16 3.31.12 9 .09 18.08 0 27.13 0 2.19.89 4.73-.52 6.49-1.18 1.47-3.55.44-5.39.71a74.13 74.13 0 01-20.29.06c-2.93-.37-4.15.19-4.11 3.31.11 8 0 16 0 24 9.1 1 16.55 5.37 23.42 11.05 7.05 5.83 10.94 12.89 9.77 22.38-.46 3.71 1.37 7.09 3.21 10.23 1.42 2.41 3.08 4.69 4.68 7 2.65 3.81 2.69 7.64 0 11.43a58.36 58.36 0 01-11.73 12c-4.39 3.47-5.14 7.59-2.11 12.24 2.55 3.92 6.69 6.15 9.83 9.47 6.76 7.15 7 14.57.14 21.6a32.92 32.92 0 01-5.42 4.42c-4 2.6-8 4.32-13 2.46a33.62 33.62 0 00-4.3-1.31 16.05 16.05 0 00-4.36-.25c.56 1.15 1.06 2.32 1.69 3.44 2.25 4 4.93 7.91 4.71 12.85 3.51.4 5.21 3.89 8.36 4.91zm113.07-181.78c-2.33.36-4.41.16-4.1-3.84.36-4.58.09-4.62 4.84-4.61 4.38 0 4.42.06 4.41 4.62-.01 3.83-.01 3.83-5.15 3.83zm.75-19.8c3.08-.13 4.51.35 4.55 4.05.06 4-1.94 4.06-4.77 3.69-2.84.42-4.65.24-4.71-3.72-.06-4.23 2.09-3.9 4.93-4.02zm-35.32 19.8c-2.41.41-4.36.05-4.06-3.86.34-4.48.17-4.6 4.46-4.59 4.5 0 4.8.31 4.78 4.73-.01 3.72-.01 3.72-5.18 3.72zm.88-19.8c3.24-.23 4.34.64 4.45 4.13.13 4.2-2.17 3.87-5 3.62-2.89.54-4.41 0-4.5-3.82-.07-4.32 2.3-3.74 5.01-3.93zm-14.54 19.69c-3.25.73-4.74-.25-4.49-3.9.31-4.41.09-4.44 4.65-4.44s4.31 0 4.67 4.43c.33 4.08-1.7 4.52-4.83 3.91zm.5-19.67c2.85-.13 4.36.22 4.39 3.84 0 4.08-1.84 4.43-4.91 3.85-3.18.69-4.43-.23-4.56-3.85-.14-4.44 2.42-3.71 5.08-3.84zm-70.46 10.85c0-7.28 0-7.28 7.12-7.28 7 0 7 0 7 7.09v3.52c-.08 1.42-1 2.35-2.31 2-3.13-.91-6.29-.5-9.43-.56-1.62 0-2.42-.59-2.32-2.26-.02-.86-.06-1.68-.06-2.51zm7.29 10.35c6.8 0 6.8 0 6.8 6.83v3.5a2.12 2.12 0 01-2.42 2.33h-9.1a2.23 2.23 0 01-2.55-2.58v-2.8c.03-8.17-.9-7.23 7.27-7.28zM47.5 227.07a5.61 5.61 0 01.71 0c2.63.29 6.29-1.3 7.68.72 1.76 2.55.45 6.34.56 9.59 0 1.46-1 1.67-2.14 1.66H49.4c-5.26 0-6.58 0-6.9-3-.11-1-.11-2.3-.11-4.06.01-4.9.01-4.9 5.11-4.91zm-5.11 23.19a20 20 0 000-2.45c-.33-2.52.8-3.3 3.21-3.15 2.8.16 5.61.1 8.42 0 1.79-.06 2.62.59 2.49 2.44-.08 1 0 2.1 0 3.16 0 7.1 0 7.1-6.93 7.1-8.01-.03-7.14.85-7.19-7.1zm227.73-9.82c-.07 2.58-.05 5.17 0 7.75 5.22 1.34 5 1.34 5.07 7.09 0 4-.24 7.93-.58 11.89-.56 6.59-1.25 13.18-.84 19.81a41.1 41.1 0 01.75 9c0 1.51-.09 3-.18 4.53s-.19 3-.27 4.5c-.32 5.61-.47 11.22-.36 16.81.07 3.58-.81 5.26-4.6 4.58a5 5 0 00-1.22 0c-.41 0-.82.07-1.23.08a2.91 2.91 0 01-1.77.93 20 20 0 01-3.19-.16c-11.81-.16-23.61-.47-35.42-.61-2.78 0-5.57.42-8.36.64q0 6.34-.1 12.7c.35.87.74 1.73 1 2.61 5.71 16 15 30.37 20 46.79 3.76 12.42 10.73 23.68 17.12 35h89.4c-.85-3.6-1.62-7.21-2.15-10.85a67.56 67.56 0 01-.75-11q-16.7-.26-33.38-.5c-2.1 0-3.55-.36-4.57-1.16a4.72 4.72 0 01-1.26-1.57c0-.06-.05-.14-.08-.2a10.54 10.54 0 01-.64-1.9c0-.11-.06-.2-.09-.32-.06-1.17-.16-2.34-.16-3.51v-174c0-1.17.11-2.34.16-3.51.37-3.84 2.94-5.06 6.32-5.1 7.5-.08 15-.1 22.5-.1h118.85c2.22 0 4.45.21 6.67.32l19.08-.42a12.87 12.87 0 00-.27-3.48c-.25-.68-.72-.95-1.66-1.06-.63-.07-1.47-.07-2.58-.07-6 0-12-.14-18 .07a5.42 5.42 0 01-5.39-2.95c-5.32-8.67-10.81-17.24-16.1-25.94-1.31-2.16-1.94-2.66-3.33-.06-4.67 8.65-9.55 17.19-14.23 25.84-1.62 3-3.32 5.13-7.28 4.53a45.26 45.26 0 00-8.79 0c-2.21.11-2.83-.79-2.8-2.88.09-6.46-.06-12.92.08-19.38.06-2.48-.77-3.22-3.22-3.19-10 .11-20 0-29.94.1-2.75 0-3.63-.71-3.6-3.54.14-13.15 0-26.31 0-39.46-1.35-.34-3.3.81-4-1s.23-3.61 1.32-5.12c.8-1.11 1.8-2.07 2.7-3.1.42-2.72-.62-3.61-3.46-3.59-17.6.13-35.2.18-52.8 0-3.65 0-4.44 1-4.43 4.52.14 32.61 0 65.23.16 97.85 0 3.45-1 4.33-4.35 4.23-3.87-.12-7.74-.14-11.61-.13s-7.75.05-11.62.05a69.21 69.21 0 00-.52 7.64zm112.08-39.5c4.55.25 4.57.38 4.93 4.71.34 4-1.83 4.12-4.78 3.7-3.2.71-4.72-.21-4.59-4 .11-3.35 1.05-4.6 4.44-4.41zm-18.49 4.64c.35-4.57.07-4.6 4.87-4.58 4.33 0 4.09.1 4.46 4.64.33 4.07-1.85 4.12-4.73 3.73-2.91.48-4.91.16-4.6-3.79zm-19-42.3c0 5.29 0 5.29-6.93 5.29-8 0-7.13.84-7.15-7.07 0-5.6 0-5.58 5.66-5.62 9.85-.06 8.41-.07 8.46 7.4zm-14.08-19.91c0-5.1 0-5.1 4.95-5.1h2.11c7.73 0 7-.81 7 6.88 0 5.8 0 5.83-6.36 5.79-8.65-.05-7.61 1.06-7.66-7.57zm-7.29 24.34c-.1 1-1.27.84-2.07.85h-4.56c-1.58-.29-3.8.53-5.13.07a1.55 1.55 0 01-1-1c-1.16-3.24-1.82-7-.18-10.55.8-1.71 12.27-1.94 12.74-.16.98 3.53.6 7.2.24 10.79zm-13.84-25.24c.33-2.87 1.3-4.94 4.78-4.21a3.26 3.26 0 00.7 0c9.94.15 8.36-1.43 8.65 8.52.1 3.25-1 4.61-4.22 4.17a20.17 20.17 0 00-2.46 0c-6.54.05-8.17-1.88-7.41-8.48z" fill="#aad3f2"/><path d="M456.79 211c2.29 3.23 2.25 6.9 2.2 10.65-.12 7.7 0 15.4 0 23.1h4.23c1.41 0 2.81 0 4.22-.06 2.18-.11 2.81.72 2.81 2.85-.09 22.06-.09 44.13-.12 66.2 1.74.66 1.51 2.16 1.51 3.56v73.45c0 2.55-.61 3.6-3.33 3.43-3.14-.19-6.31 0-9.47.09a5.64 5.64 0 01-.34 4c-.5 1.21-1.23 2.35-1.71 3.57l13.26.13 13.51.19a.83.83 0 01.61-.26c-.1-10 1.55-19.6 6.37-28.46 2.87-5.29 6.45-10.12 13.17-10.21s10.42 4.72 13.34 10c5 8.91 6.7 18.61 6.42 28.73l.28.05h.25a12.61 12.61 0 001.27.34 14.5 14.5 0 002.53.27 49.81 49.81 0 006.31-.57 8.13 8.13 0 005-6.9 18.34 18.34 0 00.13-3.18c-.23-7 0-14 0-21V264q-.06-22.49-.11-45c0-5.56-2.51-8.19-8.14-8.28-7.38-.11-14.76 0-22.14 0q-16.51-.08-33-.2z" fill="#7ab0de"/><path class="cls-13" d="M539.31 370.89c6.63.12 13.27-.34 19.9.26 1.71-1.72 3.3-3.6 5.16-5.15 5-4.13 10.75-3.87 15.47.59 1.53 1.44 2.94 3 4.4 4.5q18.84-.1 37.69-.18a5 5 0 011.61.62 12.38 12.38 0 000-3.84 18.55 18.55 0 00-.41-2.1c-.16-.65-.35-1.29-.56-1.93-.06 1.49-.56 2.35-2.32 2.31-4.57-.1-9.16 0-13.74 0a5.14 5.14 0 01-3.48-1.47c-1.66-1.51-2.81-9.57-1.45-12.14a7.27 7.27 0 017.58-4 53 53 0 005.63-.08 12.37 12.37 0 00-1-1.65 16.17 16.17 0 00-4.05-3.9h-70.46zm8.12-21.89c3 .08 6.07.09 9.1 0 1.76-.05 2.54.53 2.52 2.39s-.48 2.65-2.38 2.53c-1.62-.1-3.26 0-4.89 0-1.4 0-2.81-.07-4.2 0-1.91.14-2.75-.52-2.72-2.56s.86-2.36 2.57-2.36z"/><path class="cls-14" d="M236.2 285.58l37.55 1.4c-.41-6.64.28-13.22.84-19.81.34-4 .62-7.92.58-11.89-.06-5.75.15-5.75-5.07-7.09-9.91 0-19.77-.81-29.65-1.4a4.44 4.44 0 00-1.22 0c-1.07.19-1.63.91-1.53 2.48a29.22 29.22 0 01-.24 3.84q-.61 14-1.23 27.9c-.06 1.53-.02 3.05-.03 4.57z"/><path class="cls-5" d="M539.28 272.87c4.46 0 8.92 0 13.38-.11a3.22 3.22 0 013.63 2.42c6.38 16.39 12.9 32.74 19.33 49.12 1.6 4.05-2.42 9.9-6.75 9.9-9.86 0-19.72-.06-29.58-.09v8.57h70.51c-3.09-3.67-6.92-6.76-11.41-7.87-5.86-1.43-8.8-5.4-11.45-10-1.63-2.86-3.23-5.73-4.68-8.67a523.45 523.45 0 01-20.57-49c-.94-2.55-2.16-3.36-4.81-3.25-5.86.24-11.73.14-17.59.17z"/><path class="cls-8" d="M226.43 252.82q-.45.31-.93.6a3.87 3.87 0 00-2.14 2.46c2.08 2.26 1.26 3.49-.25 4.48-.51.33-1.1.63-1.68.93.26 3.45.68 6.9.74 10.36.09 5.09-1.13 6-6 5-1.47-.29-2.94-.63-4.4-.95a36.41 36.41 0 00-1.06 3.88 9.74 9.74 0 01-1.31 3.19 10.19 10.19 0 011.73 3.95c.11.47.2.95.28 1.43a112.81 112.81 0 015.47 14.73c.49 1.68 1 3.37 1.36 5.08a6.94 6.94 0 01.21 3.1 7.52 7.52 0 002.68 5.11 7.09 7.09 0 003.59 1.25 61.48 61.48 0 017.8 1.8c1-9.9.87-19.84.82-29.76 0-2.28.68-3.5 2.85-3.92v-4.55q.6-13.95 1.23-27.9c-2-.15-3.94.17-5.89.05a8.49 8.49 0 01-3.46-.89z"/><path class="cls-15" d="M270.1 248.19c0-2.58-.05-5.17 0-7.75a69.21 69.21 0 01.62-7.73v-10.19c.05-1.74-.46-2.52-2.36-2.55q-12.1-.21-24.21-.66c-2.23-.09-3.06.53-3.09 2.91q-.08 6.15-.28 12.28c-.13 4.1-.27 8.19-.39 12.29 9.94.59 19.8 1.41 29.71 1.4z"/><path class="cls-9" d="M624.15 400.76a.63.63 0 01.67-.77.69.69 0 01.69-.73.72.72 0 01.72-.72c-.08-7.08-.24-14.16-.19-21.25 0-1.77-.47-2.85-2.1-3.43-6.1-.07-12.2-.24-18.3-.17-3.78 0-5.66 2.48-5.72 7.35-.09 6.92 0 13.85 0 20.77 7.77 0 15.55.34 23.32-.17.04-.58.23-1 .91-.88zm2.09-2.14z"/><path class="cls-16" d="M193.87 250c-1.78 5.87-2.43 11.63 2.15 16.7a1.55 1.55 0 01.08-.84c.27-.73 1-1.22 1.34-1.93a20.92 20.92 0 014.68-3.08 34.37 34.37 0 015.21-2c.26-.24.52-.48.77-.73a10.48 10.48 0 014.22-1.83 18.23 18.23 0 013-.31h4.51l.87-.15a6.57 6.57 0 011.76-.17 2.7 2.7 0 01.89.22 3.87 3.87 0 012.14-2.46q.48-.28.93-.6v-6.79a10.58 10.58 0 00-2-.11 26.83 26.83 0 00-4 .55c-.66.13-1.31.25-2 .35-1.08.16-2 .35-2.86-.6-3.35-3.68-7.3-3.63-11.55-1.81-1.61.69-3.28 1.22-4.93 1.83-1.6 1.43-4.45 1.22-5.21 3.76z"/><path class="cls-5" d="M621.93 370.91q-18.85.06-37.69.18a71.66 71.66 0 015.76 15.82c.42 1.83.77 3.68 1 5.57a55.35 55.35 0 01.3 9.36 4.23 4.23 0 00.41.33l8.15-.36c0-6.92-.09-13.85 0-20.77.06-4.87 1.94-7.31 5.72-7.35 6.1-.07 12.2.1 18.3.17.11-.12.1-.22 0-.31l-.15-.83c-.08-.4-.15-.8-.22-1.19a5 5 0 00-1.58-.62z"/><path class="cls-17" d="M354.83 138c.69 1.8 2.64.65 4 1h40.46c.71 0 1.49 0 1.71-.88a1.68 1.68 0 00-.84-1.81c-.86-.57-2.05-1.6-2.71-1.36-2.74 1-4.3-1-6.27-2a5.67 5.67 0 00-2.61-.92c-3.77.3-6.69-1.19-10-3-6.45-3.64-13.29-2.81-19.73.84-.9 1-1.9 2-2.7 3.1-1.08 1.45-1.99 3.26-1.31 5.03z"/><path class="cls-5" d="M609.19 348.3a7.27 7.27 0 00-7.58 4c-1.36 2.57-.21 10.63 1.45 12.14a5.14 5.14 0 003.48 1.47c4.58 0 9.17-.06 13.74 0 1.76 0 2.26-.82 2.32-2.31a35 35 0 00-5.09-12 35.66 35.66 0 00-2.69-3.49 53 53 0 01-5.63.19z"/><path class="cls-17" d="M236 184.05c4.45.07 8.89 0 13.34 0h15.08c.8 0 1.82.1 1.92-1a1.53 1.53 0 00-1.75-1.73 7.41 7.41 0 01-5.71-2.06 3.83 3.83 0 00-2.61-.77c-2.39.23-4.22-.79-6.15-2-5.05-3.14-12.42-1.87-16.28 2.49a3.93 3.93 0 00-.93 4.19c.54 1.47 2.02.83 3.09.88z"/><path class="cls-7" d="M623.94 373.86c1.63.58 2.11 1.66 2.1 3.43 0 7.09.11 14.17.19 21.25.75-.36.77-1 .77-1.75-.07-6.79-.19-13.58 0-20.37a3.69 3.69 0 00-.57-2.59 1.92 1.92 0 00-1.64-.49 5.88 5.88 0 00-.85.13c.06.17.11.27 0 .39z"/><path class="cls-16" d="M226.41 246v6.79l1.68-.53a5.61 5.61 0 001.15-2.95c.06-1.43-.89-2.56-2.83-3.31z"/><path class="cls-7" d="M624.14 400.78c-.68-.12-.87.3-.91.88l1-.88h-.06zm.68-.78h.07l-.09.09.06-.07.62-.65v-.08a.69.69 0 00-.66.71z"/><path class="cls-7" d="M624.89 400h-.07a.63.63 0 00-.67.77c.22-.23.43-.47.64-.7zm1.39-1.47a.72.72 0 00-.72.72v.08l.75-.77z"/><path class="cls-8" d="M212.4 370.56c-1.5 6-2.29 12.28-5.89 17.46-8 11.54-14.12 24.15-20.84 36.41h53.23c-1-2-2-4-3-5.9-4.87-8.94-9.38-17.91-10.92-28.25A28.73 28.73 0 00220.5 379a81.94 81.94 0 00-7.57-9.65 7.75 7.75 0 00-.53 1.21z"/><path d="M217.9 327.29c-3-3.57-6-7.16-9-10.68-1.23-1.42-1.08-2.42.52-3.35a13.4 13.4 0 002.57-1.82c2.1-2 4.17-3.12 6.5-.34a6.94 6.94 0 00-.21-3.1c-.41-1.71-.87-3.4-1.36-5.08a112.81 112.81 0 00-5.47-14.73 5.33 5.33 0 01-1.21.19 4.11 4.11 0 01-1.11-.12 5.6 5.6 0 01-2.13-1.15c-2.15-1.73-3.88-4-6.51-5.12a1.38 1.38 0 00-.48.26 4.34 4.34 0 00-.84 1.3c-3.74 6.61-2.47 13.66-1.44 20.55a95 95 0 01.64 24.06 39.17 39.17 0 00-.44 6.94 11.57 11.57 0 001 4.12 115.61 115.61 0 0014.14 1c1.57 0 3.15-.09 4.73-.24l.1-12.69z" fill="#f49b1e"/><path class="cls-19" d="M511.14 384.69c-4.4-7-10.38-6.88-14.76.13-.24.4-.41.85-.65 1.25-2.47 4.14-3.14 8.84-3.49 13.45-.57 7.29.32 14.5 3.94 21.05 4.23 7.65 10.47 7.86 15.05.47 3.36-5.43 4.39-11.51 4.1-18 .32-6.4-.64-12.71-4.19-18.35zM506.92 403c0 1.95.06 4.47-1.2 5.59a2.48 2.48 0 01-1.75.58c-3-.05-3.48-3.68-3.41-6.43s.63-6.12 3.48-6a3.16 3.16 0 011 .2c2.01.75 1.88 3.76 1.88 6.06z"/><path class="cls-8" d="M534.18 402a49.81 49.81 0 01-6.31.57 14.5 14.5 0 01-2.53-.27 12.61 12.61 0 01-1.27-.34c-.29 1.34-.91 2.7-.83 4a46.19 46.19 0 01-.56 9.71 89.26 89.26 0 01-2.11 9.48h20.69c-2.39-7.55-2.85-15.39-3.59-23.2h-3.46z"/><path class="cls-9" d="M523.48 401.89c.28-10.12-1.47-19.82-6.42-28.73-2.92-5.25-6.57-10.07-13.34-10s-10.3 4.92-13.17 10.21c-4.82 8.86-6.47 18.48-6.37 28.46a1.42 1.42 0 001.54-1.51c.19-2.2.36-4.42.72-6.6 1.18-7.06 2.8-14 7-20 6.08-8.8 15.2-8.75 21.11.14 5 7.45 6.41 15.93 7.2 24.61.06.66-.14 1.49 0 2.16s.44 1.21 1.73 1.26z"/><path class="cls-19" d="M564.56 384.74c-5.2 8.14-4.58 17.2-3.73 26.19a25.26 25.26 0 003.75 10.48c3.53 5.92 8.53 6.64 13.08 1.62 5.15-5.68 5.23-13 6-19 0-7-1.68-14.37-4-18.59-4.21-7.66-10.47-7.96-15.1-.7zm10.63 18.48c-.1 2.6-.63 6.11-3.55 5.93a2.5 2.5 0 01-1.71-.71c-1.22-1.2-1.1-3.69-1.09-5.64 0-2.27 0-5.32 2-6a2.82 2.82 0 011-.13c2.92.15 3.46 3.78 3.35 6.55z"/><path class="cls-5" d="M557.94 374.4c.49-1 .85-2.17 1.27-3.25-6.63-.6-13.27-.14-19.9-.26 0 7-.23 14 0 21a18.34 18.34 0 01-.13 3.18 8.13 8.13 0 01-5 6.9h17.06l.82-.09a58 58 0 015.88-27.48z"/><path class="cls-9" d="M591.36 401.84a55.35 55.35 0 00-.3-9.36c-.27-1.89-.62-3.74-1-5.57a71.66 71.66 0 00-5.78-15.82c-1.46-1.5-2.87-3.06-4.4-4.5-4.72-4.46-10.52-4.72-15.47-.59-1.86 1.55-3.45 3.43-5.16 5.15-.42 1.08-.78 2.2-1.27 3.25a58 58 0 00-5.88 27.47c2.82.06 1.86-2.09 2-3.53 1-9.23 2.43-18.28 8.51-25.89 5.72-7.14 13.59-7 18.95.39s7.2 15.6 7.81 24.36v2a2.57 2.57 0 001.99 2.64z"/><path class="cls-5" d="M552 408.37a20.46 20.46 0 01.1-2.59 3.47 3.47 0 00-.72-2.49c.11 1.71-.63 3.5.62 5.08z"/><path class="cls-19" d="M458.51 398.23a5.64 5.64 0 00.34-4c-9.15 0-18.32-.57-27.42 0q-3.26.21-6.5.28c-6.49.15-13 0-19.45.07l-50.19.07h-8.4c-11.27 0-22.55-.07-33.82.05-2.64 0-3.64-.52-3.63-3.46q.13-85.07 0-170.13c0-2.73.88-3.31 3.43-3.31q67.62.11 135.26 0c3 0 3.81 1 3.75 3.85-.16 7.63 0 15.27 0 22.9H459c0-7.7-.08-15.4 0-23.1.05-3.75.09-7.42-2.2-10.65-2.22-.11-4.45-.32-6.67-.32H331.28c-7.5 0-15 0-22.5.1-3.38 0-5.95 1.26-6.32 5.1 1.15 1 .67 2.43.67 3.65v173.78c0 1.22.48 2.6-.67 3.64 0 .12.06.21.09.32a10.54 10.54 0 00.64 1.9c0 .06.05.14.08.2a4.72 4.72 0 001.26 1.57c1 .8 2.47 1.13 4.57 1.16q16.7.27 33.38.5h13.57c1-.21 2-.46 3.08-.62 4.47-.7 4.91-.19 5.45 4.35.58 4.86 1.48 9.68 3.9 14.06 4.32 7.8 10.59 8.08 15.26.57a28.23 28.23 0 004-14c.2-5.2.94-5.87 6-4.84.8.16 1.6.29 2.4.44q23.49-.1 47-.21c4.55 0 9.12.31 13.64-.55.5-1.02 1.22-2.16 1.73-3.37zm-82.32 11.13c-2.53 0-2.94-2.9-3.18-5-.27-2.36 1.51-2.49 3.39-2.42 1.65-.15 3.14 0 3 2.44s-.68 4.98-3.21 4.98z"/><path class="cls-8" d="M401 425c24.07.14 48.15.05 72.22 0-.47-1.89-.92-3.8-1.32-5.71s-.76-3.82-1-5.75a64.79 64.79 0 01-.76-11.67l-13.26-.13c-4.52.86-9.09.53-13.64.55q-23.49.13-47 .21a77.42 77.42 0 01-.82 11.31A88.66 88.66 0 01393 425c2.64.41 5.31 0 8 0z"/><path class="cls-20" d="M139.62 415.77c0-10 .13-20-.05-30 0-2.94.82-4.15 3.74-3.66s3.56-.89 3.48-3.57c-.17-5.75-.2-11.51 0-17.26.11-3-.55-4.52-3.82-3.95-2.58.45-3.44-.6-3.4-3.28.15-10.57.07-21.15 0-31.72 0-.63.09-1.28.08-1.91a3.24 3.24 0 00-.54-1.85q-.12 17.75-.21 35.5v1.24c0 1.2-.39 2.17-2.29 2.1l-8.17-.12-23.39.18v4c0 1.31 0 2.68.1 4 .16 2.39-.61 3.33-3.13 3.24-5-.19-10-.1-15-.12v2.23c5.14 0 10.28 0 15.41-.11 2.19-.06 2.86.8 2.78 2.88-.12 3 0 6.07 0 9.11h7a1.17 1.17 0 01.5-.4 1.71 1.71 0 01.93-.18c3.53.1 7.06-.06 10.59-.09a56.82 56.82 0 0110.57.71 1.42 1.42 0 011.26-.59 4.71 4.71 0 00.54-.05c1.64-.23 2.16.37 2.32 1.28a10.58 10.58 0 01.07 1.81q.11 17.14.25 34.29c.76-1.12.38-2.48.38-3.71z"/><path class="cls-13" d="M134.72 402.57h-9c-3 0-6 0-9-.08-2.41-.06-3.33.66-3.23 3.17.17 4.56 0 9.13 0 14.07-1.61-1.18-1.39-2.58-1.4-3.88 0-3.4-.14-6.81 0-10.2.14-2.54-.86-3.18-3.25-3.16-10.68.1-21.36 0-32 0v7.33c-.07.63-.14 1.26-.2 1.89 0 2 .22 4 .07 6-.19 2.42.62 3.39 3.14 3.23 3-.19 6.09 0 9.13 0 8 0 8 0 8.31-7.8v-.7c-.11-1.51.61-2.07 2.09-2.07s2.13.6 2.07 2.09.14 3.06 0 4.57c-.36 3.14 1 4 4 4 9.71-.17 19.43-.09 29.15-.1 0-.27.07-.54.1-.81q.07-8.8.02-17.55z"/><path class="cls-3" d="M136 382.22a1.42 1.42 0 00-1.26.59v19.76q0 8.76.1 17.51l1.76-.06v-37.85a4.71 4.71 0 01-.6.05z"/><path class="cls-13" d="M136.32 429.31c-1.93.09-3.1 1.14-3 3.08a2.57 2.57 0 002.78 2.61 2.75 2.75 0 002.9-2.91c0-2.09-1-2.86-2.68-2.78z"/><path class="cls-5" d="M76.74 411.78c.06-.63.13-1.26.2-1.89-4.1-.51-4.92 1.65-4.54 5.21 0 .47.1.95.14 1.44a8.68 8.68 0 01-.52 4.35c2.52-1.85 1.24-4.52 1.24-6.77a4.66 4.66 0 01.45-2.35 1.19 1.19 0 01.84-.55 4.19 4.19 0 012.19.56z"/><path class="cls-20" d="M134.82 420.08c0 .27-.06.54-.1.81.36 0 .81.11 1.17.09s.65-.23.69-1z"/><path d="M142 420.91a.6.6 0 01.25.46" stroke-linecap="round" stroke-linejoin="round" stroke-width="0" stroke="#e7f5fc" fill="none"/><path class="cls-17" d="M19.9 420.24c0 1.86 0 3.73-.08 5.59a26.24 26.24 0 014.25.06 10.36 10.36 0 002.78-.23 6.66 6.66 0 001.41-.51c-3.15-1.02-4.85-4.51-8.36-4.91z"/><path class="cls-13" d="M75 429.35c-1.77.1-2.94 1-2.92 2.82a2.57 2.57 0 002.92 2.75 2.7 2.7 0 002.66-2.82c-.03-2.1-.98-2.85-2.66-2.75zm24.5.01c-1.76.16-2.87 1.18-2.74 3s1.33 2.64 3.09 2.64c2.05 0 2.57-1.25 2.48-3.12.08-1.88-.97-2.69-2.83-2.52zm9.35-28.84c2.61 0 3.49-.73 3.38-3.37-.19-4.79-.06-9.58-.06-14.38h-7c-4.79-.73-9.56.37-14.35.06-1.37-.08-2.77.08-4-.71h-3.68c-1.23 0-2.45 0-3.67-.06-1.95-.1-2.7.57-2.65 2.58.13 5.26.1 10.51.13 15.77 10.63.05 21.26-.02 31.9.11z"/><path class="cls-22" d="M216.18 276.69c4.86 1 6.08.05 6-5-.06-3.46-.48-6.91-.74-10.36-1.19-1.57-.87-3.6-1.59-5.31h-4.51a18.23 18.23 0 00-3 .31 10.48 10.48 0 00-4.22 1.83c-.25.25-.51.49-.77.73-1 2.5-2.77 4.57-3 7.51-.13 1.81-1.56 1-2.38-.05-1.17-1.45-2.3-3-4.55-2.38-.32.71-1.07 1.2-1.34 1.93a1.55 1.55 0 00-.08.84c-.34 3.39 2.28 4.62 4.49 6.16l11.27 2.92c1.48.24 2.95.58 4.42.87z"/><path class="cls-15" d="M90.88 334.15c0 .72.08 1.45.14 2.17s.11 1.45.12 2.16c0 1.94 1.89 1.35 3 1.36h34.18a15.87 15.87 0 01.1-2.46c.27-2.54.74-5.16-.71-6.72-2-2.14-6-.62-9.11-.71-5.51-.15-11-.08-16.54-.1l-2.31-.07h-8a8.49 8.49 0 00-.87 4.37z"/><path class="cls-6" d="M102.11 329.85c.06-2.91.1-5.83.17-8.75.15-5.9 3.54-9.4 9.37-9.51 5.14-.1 10.28-.08 15.42 0a11.08 11.08 0 014.67.94c2.11 1 3.51 3 4.6 6l.22 1q0 19 .1 37.95c1.9.07 2.24-.9 2.29-2.1v-1.24q.08-17.76.21-35.5c-2.11-7.79-4.57-9.71-12.5-9.72-5.49 0-11-.08-16.49 0-6.11.11-10.15 3.92-10.47 10-.1 1.8-.08 3.61 0 5.42s.11 3.63.14 5.44z"/><path class="cls-14" d="M90.83 382.85c4.79.31 9.56-.79 14.35-.06 0-3-.12-6.08 0-9.11.08-2.08-.59-2.94-2.78-2.88-5.13.14-10.27.09-15.41.11l-.18 11.23c1.25.79 2.65.63 4.02.71zm11.22-14.05c2.52.09 3.29-.85 3.13-3.24-.08-1.34-.1-2.68-.1-4v-4a35.37 35.37 0 00-7-.16 47.4 47.4 0 01-7 0h-.67l-3.36.09v11.2c4.95.01 9.95-.08 15 .11z"/><path class="cls-3" d="M56.49 250.28c0-1.06-.07-2.12 0-3.16.13-1.85-.7-2.5-2.49-2.44-2.81.08-5.62.14-8.42 0-2.41-.15-3.54.63-3.21 3.15a20 20 0 010 2.45c0 7.95-.82 7.07 7.17 7.12 6.95-.02 6.95-.02 6.95-7.12zm7.05 1.72v2.8a2.23 2.23 0 002.55 2.58h9.1a2.12 2.12 0 002.42-2.38v-3.5c0-6.83 0-6.83-6.8-6.83-8.15.08-7.22-.86-7.27 7.33z"/><path class="cls-22" d="M109 402.52c2.39 0 3.39.62 3.25 3.16-.18 3.39 0 6.8 0 10.2 0 1.3-.21 2.7 1.4 3.88 0-4.94.12-9.51 0-14.07-.1-2.51.82-3.23 3.23-3.17 3 .07 6 .08 9 .08h9v-2.11c-6.1 0-12.21-.07-18.31 0-2.11 0-2.93-.63-2.87-2.82.13-5.16 0-10.33.06-15.49a1.71 1.71 0 00-.93.18 1.17 1.17 0 00-.5.4c0 4.8-.13 9.59.06 14.38.11 2.64-.77 3.4-3.38 3.37-10.64-.13-21.27-.06-31.91 0v2.09c10.51-.04 21.19.02 31.9-.08z"/><path class="cls-3" d="M65.85 239.08c3.14.06 6.3-.35 9.43.56 1.32.39 2.23-.54 2.31-2 .07-1.17 0-2.35 0-3.52 0-7.09 0-7.09-7-7.09-7.13 0-7.13 0-7.12 7.28v2.47c-.04 1.71.76 2.27 2.38 2.3zm-16.45-.03h4.91c1.16 0 2.19-.2 2.14-1.66-.11-3.25 1.2-7-.56-9.59-1.39-2-5-.43-7.68-.72a5.61 5.61 0 00-.71 0c-5.1 0-5.1 0-5.11 5 0 1.76 0 3.07.11 4.06.32 2.92 1.64 2.92 6.9 2.91z"/><path class="cls-15" d="M90.33 357.39c0-4.29-.08-8.57 0-12.85 0-2-.69-2.71-2.64-2.62-2.19.11-4.39 0-6.59 0v9.46a15.93 15.93 0 00.31 4.47c.51 1.46 1.89 1.5 5.55 1.61z"/><path class="cls-10" d="M81.09 339.85a1.2 1.2 0 000 2.09c2.2 0 4.4.09 6.59 0 2-.09 2.68.66 2.64 2.62-.09 4.28 0 8.56 0 12.85h.67v-6.16c0-2.06 0-4.11-.08-6.15-.11-2.53.84-3.19 3.24-3.17 11.39.11 22.77.05 34.15.06v-2.11H94.12c-1.16 0-3 .58-3-1.36 0-.71-.06-1.44-.12-2.16s-.13-1.45-.14-2.17a8.49 8.49 0 01.85-4.27 1.39 1.39 0 00-1.48-.45v1.05c.19 9.39.19 9.39-9.14 9.33z"/><path class="cls-15" d="M90.3 330.48v-1.05c-9.12-.18-9.12-.18-9.14 8.68v1.74c9.26.06 9.26.06 9.14-9.37z"/><path class="cls-3" d="M182.47 234.83c-4.75 0-4.48 0-4.84 4.61-.31 4 1.77 4.2 4.1 3.84 5.14 0 5.14 0 5.15-3.83.01-4.56-.03-4.61-4.41-4.62zm-48.81 0c-4.56 0-4.34 0-4.65 4.44-.25 3.65 1.24 4.63 4.49 3.9 3.13.61 5.16.17 4.83-3.91-.33-4.41-.09-4.43-4.67-4.43zm13.9 0c-4.29 0-4.12.11-4.46 4.59-.3 3.91 1.65 4.27 4.06 3.86 5.17 0 5.17 0 5.18-3.72.02-4.42-.28-4.72-4.78-4.73zm-14.07-3.64c3.07.58 4.95.23 4.91-3.85 0-3.62-1.54-4-4.39-3.84-2.67.13-5.23-.6-5.08 3.84.13 3.66 1.38 4.54 4.56 3.85zm14.03.04c2.8.25 5.1.58 5-3.62-.11-3.49-1.21-4.36-4.45-4.13-2.75.19-5.12-.39-5 3.93.04 3.77 1.56 4.36 4.45 3.82zm34.74-.01c2.83.37 4.83.34 4.77-3.69 0-3.7-1.47-4.18-4.55-4.05-2.84.12-5-.21-4.93 4 .06 3.98 1.87 4.16 4.71 3.74z"/><path class="cls-5" d="M209.41 282.81a9.74 9.74 0 001.31-3.19 36.41 36.41 0 011.06-3.88l-11.27-2.92c1 1.72 1.67 3.51 1 5.54 2.54 1.64 4.81 3.77 7.9 4.45z"/><path class="cls-6" d="M207 287.11a5.6 5.6 0 002.13 1.15 4.11 4.11 0 001.11.12 5.33 5.33 0 001.21-.19c-.08-.48-.17-1-.28-1.43a10.19 10.19 0 00-1.73-3.95c-3.09-.68-5.36-2.83-7.92-4.45a2.63 2.63 0 00-1.36 1.57 2.42 2.42 0 000 1 4 4 0 00.37 1.09c2.56 1.07 4.29 3.36 6.47 5.09z"/><path class="cls-20" d="M251.19 320.64a12.11 12.11 0 0111.55 1.47c-1.09 1.53-2.88.33-4.49 1.37 2.72 1.65 5.3 2.94 8.39 3 .41 0 .82-.05 1.23-.08a5 5 0 011.22 0c3.79.68 4.67-1 4.6-4.58-.11-5.59 0-11.2.36-16.81.08-1.5.19-3 .27-4.5s.16-3 .18-4.53a41.1 41.1 0 00-.75-9l-37.55-1.4c-2.17.42-2.86 1.64-2.85 3.92.05 9.92.21 19.86-.82 29.76 2.05.45 4.11.84 6.14 1.36 4.17 1.05 8.08 1.9 12.52.02z"/><path class="cls-22" d="M212 311.44a13.4 13.4 0 01-2.57 1.82c-1.6.93-1.75 1.93-.52 3.35 3 3.52 6 7.11 9 10.67 2.79-.22 5.58-.67 8.36-.64 11.81.14 23.61.45 35.42.61a20 20 0 003.19.16 2.91 2.91 0 001.77-.93c-3.09-.06-5.67-1.35-8.39-3 1.61-1 3.4.16 4.49-1.37a12.11 12.11 0 00-11.55-1.47c-4.44 1.88-8.35 1-12.52 0-2-.52-4.09-.91-6.14-1.36a61.48 61.48 0 00-7.8-1.8 7.09 7.09 0 01-3.59-1.25 7.52 7.52 0 01-2.68-5.11c-2.34-2.8-4.41-1.67-6.47.32z"/><path class="cls-3" d="M338.4 150.94c6.36 0 6.37 0 6.36-5.79 0-7.69.7-6.84-7-6.88h-2.11c-4.95 0-5 0-4.95 5.1.02 8.63-1.02 7.52 7.7 7.57zm-2.07 4.94c-5.66 0-5.68 0-5.66 5.62 0 7.91-.81 7 7.15 7.07 6.94 0 7 0 6.93-5.29-.05-7.47 1.39-7.46-8.42-7.4zM317 151a20.17 20.17 0 012.46 0c3.25.44 4.32-.92 4.22-4.17-.29-9.95 1.29-8.37-8.65-8.52a3.26 3.26 0 01-.7 0c-3.48-.73-4.45 1.34-4.78 4.21-.77 6.55.86 8.48 7.45 8.48zm-6.55 6.1c-1.64 3.51-1 7.31.18 10.55a1.55 1.55 0 001 1c1.33.46 3.55-.36 5.13-.07h4.56c.8 0 2 .12 2.07-.85.36-3.59.74-7.26-.19-10.77-.48-1.8-11.95-1.57-12.75.14z"/><path class="cls-6" d="M303.12 393.26V219.48c0-1.22.48-2.6-.67-3.65-.05 1.17-.16 2.34-.16 3.51v174c0 1.17.1 2.34.16 3.51 1.15-.99.67-2.37.67-3.59z"/><path class="cls-3" d="M368.31 209.37c2.88.39 5.06.34 4.73-3.73-.37-4.54-.13-4.63-4.46-4.64-4.8 0-4.52 0-4.87 4.58-.31 3.95 1.69 4.27 4.6 3.79zm14.04-.02c2.95.42 5.12.33 4.78-3.7-.36-4.33-.38-4.46-4.93-4.71-3.39-.19-4.33 1-4.44 4.37-.13 3.83 1.39 4.75 4.59 4.04z"/><path class="cls-20" d="M458.4 314.23a2.5 2.5 0 01-1.15.23h-24.67c-.89 0-1.87.19-2.52-.71h-21.8c-2 0-2.92.51-2.92 2.75q.15 39.08.14 78.15c6.48-.08 13 .08 19.45-.07q3.24-.07 6.5-.28c9.1-.59 18.27-.06 27.42 0 3.16 0 6.33-.28 9.47-.09 2.72.17 3.34-.88 3.33-3.43-.08-24.49 0-49 0-73.45 0-1.4.23-2.9-1.51-3.56l-11.2.06a1.72 1.72 0 01-.54.4z"/><path class="cls-10" d="M451.83 244.67h-2c-5.63 0-11.25.13-16.87 0-2.29 0-3.05.7-3 3 .06 8.67 0 17.34-.1 26q.11 20 .23 40.05l28.8.08 11.2-.06c0-22.07 0-44.14.12-66.2 0-2.13-.63-3-2.81-2.85-1.41.07-2.81.08-4.22.06s-2.82 0-4.23 0zm117.04 89.53c4.33 0 8.35-5.85 6.75-9.9-6.43-16.38-13-32.73-19.33-49.12a3.22 3.22 0 00-3.63-2.42c-4.46.14-8.92.09-13.38.11v61.24c9.87.03 19.72.08 29.59.09z"/><path class="cls-5" d="M547.58 353.92c1.39-.09 2.8 0 4.2 0 1.63 0 3.27-.08 4.89 0 1.9.12 2.36-.81 2.38-2.53s-.76-2.44-2.52-2.39c-3 .09-6.07.08-9.1 0-1.71 0-2.54.46-2.57 2.36s.81 2.7 2.72 2.56z"/><path class="cls-7" d="M221.43 261.29c.58-.3 1.17-.6 1.68-.93 1.51-1 2.33-2.22.25-4.48a2.7 2.7 0 00-.89-.22 6.57 6.57 0 00-1.76.17l-.87.15c.72 1.71.4 3.74 1.59 5.31zM202 266.27c.82 1 2.25 1.86 2.38.05.22-2.94 2-5 3-7.51a34.37 34.37 0 00-5.21 2 20.92 20.92 0 00-4.68 3.08c2.2-.61 3.33.93 4.51 2.38z"/><path d="M207.33 258.82c.26-.24.52-.48.77-.73m-.78.74" stroke="#273052" stroke-linecap="round" stroke-linejoin="round" stroke-width="0" fill="none"/><path class="cls-22" d="M505 396.9a3.16 3.16 0 00-1-.2c-2.85-.11-3.42 3.4-3.48 6s.44 6.38 3.41 6.43a2.48 2.48 0 001.75-.58c1.26-1.12 1.19-3.64 1.2-5.59.04-2.26.17-5.27-1.88-6.06zm66.85-.19a2.82 2.82 0 00-1 .13c-2.05.64-2 3.69-2 6 0 1.95-.13 4.44 1.09 5.64a2.5 2.5 0 001.71.71c2.92.18 3.45-3.33 3.55-5.93.1-2.81-.44-6.44-3.35-6.55z"/><path class="cls-9" d="M346.87 337h-15.73c-1 0-2.32.35-2.44-1.22-.14-1.87 1.36-1.53 2.45-1.53h15.73v-55.89c0-4.86 0-4.86 4.94-4.81.7 0 1.4.07 2.1.11h2l2.33-.15 1.18-.12a11.42 11.42 0 001.27-.22 6 6 0 00.75-.24 2.52 2.52 0 00.87-.61 2.75 2.75 0 00.53-.94 7.21 7.21 0 00.27-1.37c.12-1.08.12-2.51.13-4.42q0-3.3.11-6.6c.05-2.2.11-4.4.16-6.6v-1.28a122 122 0 01-.27-14.18v-4.73c0-1.41.56-2.19 2.07-2.17q13.67.14 27.34.24l12.7-.4a2.05 2.05 0 011.9-.68h39.55c1 0 2.15-.35 2.84.8l.14 14.62h2c0-7.63-.12-15.27 0-22.9.06-2.86-.77-3.86-3.75-3.85q-67.64.12-135.26 0c-2.55 0-3.44.58-3.43 3.31q.12 85.07 0 170.13c0 2.94 1 3.49 3.63 3.46 11.27-.12 22.55-.05 33.82-.05v-57.76z"/><path class="cls-14" d="M405.34 316.5c0-2.24.88-2.78 2.92-2.75h21.8q-.12-20-.23-40.05c-11.13 0-22.25-.18-33.37 0-3.19.05-4-.95-3.86-4 .24-4.67-.05-9.37.11-14.05.08-2.42-.67-3.26-3.16-3.22-8.67.11-17.33 0-26 0 0 2.2-.11 4.4-.16 6.6s-.09 4.4-.11 6.6c0 1.91 0 3.34-.13 4.42a7.21 7.21 0 01-.27 1.37 2.75 2.75 0 01-.53.94 2.52 2.52 0 01-.87.61 6 6 0 01-.75.24 11.42 11.42 0 01-1.27.22l-1.18.12-2.33.15v28.33c0 9.44 0 18.88-.08 28.32 0 3.05.71 4.07 3.89 4 8-.23 15.95-.11 23.93-.05 1.13 0 3-.71 3.08 1.25.07 2.32-2 1.46-3.2 1.47-8 .08-15.95.16-23.93 0-2.91-.07-3.79.78-3.76 3.73.13 16.54.07 33.08.06 49.62 0 1.5.26 3.07-.72 4.42l50.19-.07q.02-39.14-.07-78.22zm-51.4 73.82v-48.44c0-4.86 0-4.86-4.94-4.87h-2.11v57.76h7.79a3.67 3.67 0 01-.52-1.05 11.11 11.11 0 01-.22-3.4z"/><path class="cls-20" d="M356 390.3c0-16.54.07-33.08-.06-49.62 0-2.95.85-3.8 3.76-3.73 8 .18 16 .1 23.93 0 1.19 0 3.27.85 3.2-1.47-.06-2-1.95-1.24-3.08-1.25-8-.06-16-.18-23.93.05-3.18.09-3.91-.93-3.89-4 .07-9.44.08-18.88.08-28.32v-28.33h-2v55.3c0 6 .61 5.2-5.25 5.27h-1.77v2.8H349c4.94 0 4.94 0 4.94 4.87v48.44a11.11 11.11 0 00.2 3.36 3.67 3.67 0 00.52 1.05h.63c.98-1.35.71-2.92.71-4.42z"/><path class="cls-22" d="M376.4 401.9c-1.88-.07-3.66.06-3.39 2.42.24 2.14.65 5 3.18 5s3-2.7 3.17-5-1.31-2.57-2.96-2.42z"/><path class="cls-8" d="M136.56 319.5c-.08-.32-.15-.64-.22-.95-1.09-3.08-2.49-5-4.6-6a11.08 11.08 0 00-4.67-.94c-5.14-.07-10.28-.09-15.42 0-5.83.11-9.22 3.61-9.37 9.51-.07 2.92-.11 5.84-.17 8.75 5.51 0 11-.05 16.54.1 3.11.09 7.13-1.43 9.11.71 1.45 1.56 1 4.18.71 6.72a17.22 17.22 0 00-.1 2.46v2.11q.06 7.68.13 15.37l8.17.12q-.05-18.98-.11-37.96z"/><path class="cls-15" d="M128.36 342c-11.38 0-22.76.05-34.15-.06-2.4 0-3.35.64-3.24 3.17.09 2 .1 4.1.08 6.15s0 4.11 0 6.17a47.4 47.4 0 007 0 35.37 35.37 0 017 .16l23.39-.18q-.01-7.77-.08-15.41z"/><path class="cls-13" d="M113.54 397.68c-.06 2.19.76 2.85 2.87 2.82 6.1-.11 12.21 0 18.31 0v-17.65a56.82 56.82 0 00-10.57-.71c-3.53 0-7.06.19-10.59.09.03 5.12.11 10.29-.02 15.45z"/><path d="M136.34 318.55c.07.31.14.63.22.95" stroke="#94a4c2" stroke-linecap="round" stroke-linejoin="round" stroke-width="0" fill="none"/><path class="cls-14" d="M430.06 313.74c.65.9 1.63.71 2.52.71h24.67a2.5 2.5 0 001.15-.23 1.72 1.72 0 00.49-.42l-28.8-.08z"/><path class="cls-20" d="M405.43 229.88l-12.7.4c0 5.74-.15 11.48 0 17.21.08 2.71-.65 3.66-3.51 3.6-8.54-.15-17.09 0-25.63 0v1.28c8.66 0 17.32.13 26 0 2.49 0 3.24.8 3.16 3.22-.16 4.68.13 9.38-.11 14.05-.16 3 .67 4 3.86 4 11.12-.17 22.24 0 33.37 0 .05-8.66.16-17.33.1-26 0-2.31.74-3.05 3-3 5.62.11 11.24 0 16.87 0q-.08-7.31-.14-14.62z"/><path class="cls-14" d="M389.24 251.09c2.86.06 3.59-.89 3.51-3.6-.17-5.73 0-11.47 0-17.21l-27.34-.24c-1.51 0-2.1.76-2.07 2.17v4.73a122 122 0 00.27 14.18c8.54-.03 17.09-.18 25.63-.03zm-42.32 27.26v55.89h1.77c5.86-.07 5.24.71 5.25-5.27v-55.3c-.7 0-1.4-.1-2.1-.11-4.92-.07-4.92-.07-4.92 4.79z"/><path class="cls-13" d="M328.7 335.79c.12 1.57 1.46 1.22 2.44 1.22h15.73v-2.8h-15.73c-1.08.05-2.58-.29-2.44 1.58z"/><path class="cls-7" d="M449.72 230c-.69-1.15-1.85-.8-2.84-.8h-39.55a2.05 2.05 0 00-1.9.68z"/></g></g></svg>