<svg xmlns="http://www.w3.org/2000/svg" viewBox="0 0 449.33 378.8"><defs><style>.cls-2{fill:#3d63ac}.cls-3{fill:#fff}.cls-4{fill:#ecf2fb}.cls-5{fill:#aad3f2}.cls-6{fill:#7ab0de}.cls-7{fill:#4e81c1}.cls-8{fill:#fefefd}.cls-9{fill:#6aa4d8}.cls-10{fill:#e6e6e6}.cls-12{fill:#f49b1e}.cls-13{fill:#f8c5b7}.cls-14{fill:#e9456d}.cls-15{fill:#1d4e5f}.cls-16{fill:#f5f5f5}</style></defs><g id="Слой_2" data-name="Слой 2"><g id="Слой_1-2" data-name="Слой 1"><path d="M136.39 131.9l-.65-.88zm-5.2 14.32c.35-.2.71-.4 1.09-.58-.38.18-.74.36-1.09.58zm122.6-16.58c-.07-2.59.66-3.74 3.46-3.66 6 .16 12.07.08 18.1 0 1.14 0 2 .06 2.37.65-.38-.7-1.23-.77-2.44-.76-6 0-12.07.12-18.1 0-2.8-.08-3.53 1.07-3.47 3.66.14 5.59.15 11.19 0 16.78a4.59 4.59 0 00.43 2.42 5 5 0 01-.36-2.31c.16-5.59.15-11.19.01-16.78zM186.38 237.7l-.02.02.02-.02zm-57.03-90.24q.47-.37 1-.72-.53.34-1 .72zm-1.6 1.45c.28-.29.55-.58.85-.85-.3.27-.6.56-.85.85zm40.01 110.06l-.02.03.02-.03zm-41.38-108.38c.24-.33.47-.67.73-1-.26.33-.49.67-.73 1zm4.02-29.02c-.11-.3-.23-.59-.33-.9.1.33.22.6.33.9zm3.24 6.43l-.57-.91zm33.22 123.89l.01.01-.01-.01zm-37.19-132.73c-.07-.26-.15-.52-.21-.79.06.27.14.53.21.79zm1.66 4.64c-.14-.31-.3-.62-.43-.93.1.31.29.62.43.93zm1.09 2.11c-.17-.31-.35-.61-.51-.92.16.31.34.61.51.92zm-12.94 207.01l-.27 3.05zm5.73-180.42c.21-.39.41-.79.64-1.16-.23.37-.43.77-.64 1.16zM251 282.67c2.06-2.45 4.06-1.64 6 .34a22.4 22.4 0 012.55 3.22 22.58 22.58 0 00-2.62-3.33c-1.9-2-3.9-2.79-6-.34-1.51 1.8-2 3.55-.93 5.21-1-1.62-.49-3.34 1-5.1zm-3 12.17c1.93-1 3.37.24 4.57 1.61a25.35 25.35 0 012.66 3.47l-.06-.1a25.51 25.51 0 00-2.67-3.48c-1.2-1.37-2.64-2.65-4.58-1.62s-3.32 2.48-3.18 4.93a5.75 5.75 0 001.16 3.35 5.78 5.78 0 01-1.07-3.26c-.14-2.43 1.32-3.91 3.17-4.9zm-127.81 29.75c-.09 1.11-.17 2.22-.26 3.34.07-1.12.17-2.23.26-3.34zm.6-8.18c-.08 1.15-.14 2.3-.23 3.45.09-1.15.15-2.3.23-3.45zm.46-8.2c-.06 1.2-.1 2.4-.17 3.6.07-1.2.11-2.4.17-3.6zM257.38 270c2.21-2.53 4.46-2.53 6.06-.15-1.6-2.5-3.89-2.53-6.13 0-1.81 2.07-1.93 4.19-.46 6.19-1.39-1.97-1.24-4.04.53-6.04zm-1.6 30.71c.43.61.9 1.24 1.34 1.87-.43-.58-.91-1.26-1.34-1.87zm-69.41-55.9c.3-.3.6-.59.89-.89a5.36 5.36 0 001.14-.23 5.36 5.36 0 01-1.14.23c-.26.3-.59.59-.89.89zm-62.15-90.12c.18-.48.37-1 .58-1.42-.21.45-.4.94-.58 1.42zm-.97 2.99zm43.67 214.72l-24-4.6 24 4.6zm-55.1-117.55v-2.49c-.01.83-.03 1.64 0 2.49zm6.84 86.91c-.08.76-.15 1.53-.22 2.3.07-.77.14-1.54.22-2.3zm2.97-45.96v-.56c0-6.45-1-12.72-4.09-18.38-.42-.78-.78-1.56-1.16-2.34.22.45.41.91.65 1.37a42.87 42.87 0 014.6 19.91zM135 129.94l-.62-.9zM149.28 235a40.52 40.52 0 004.64 1.21 40.52 40.52 0 01-4.64-1.21zM181 188l9.82.22L181 188l-8.28-.37c2.8.16 5.56.29 8.28.37zm-22.25 48.83a33.2 33.2 0 01-4.83-.59 33.2 33.2 0 004.83.59zm32.77-54.4h-.39zM135.4 95.12a21.37 21.37 0 013.23-2.41 21.37 21.37 0 00-3.23 2.41zm73.16 120.44q-.08-13.71-.17-27.42.09 13.71.17 27.42zm-.9-28.01c.48-.22.7-.12.75.2 0-.32-.27-.42-.75-.2l-1.74.07zm11.64-28.86c.09-.08.15-.17.24-.26a9.35 9.35 0 01-1.26 1 117.67 117.67 0 00-23.84 21.07 6.67 6.67 0 01-1.43 1.34 4.92 4.92 0 00.6-.47c8.51-7.58 17.13-15.1 25.69-22.68zm-51.91 8.02c-2.84-2.33-5.67-4.68-8.52-7 2.85 2.29 5.68 4.67 8.52 7zm-16.03-18.32c1 1.1 1.87 2.25 2.72 3.42-.85-1.17-1.75-2.32-2.72-3.42a21.21 21.21 0 00-9.88-3.87 21.21 21.21 0 019.88 3.87zM172.15 111c0-1-.07-1.9-.11-2.85.04.92.08 1.85.11 2.85zm-36.87 86l17.43-2.27c1.88 6.61 3.7 13.23 5.67 19.81-2-6.58-3.79-13.2-5.67-19.82zm.72-59.18c-.63 2.17-1.18 4.08-2.05 7.11-.25.08-.46.2-.69.29a17.23 17.23 0 011.71-.62q.54-3.39 1.03-6.78zm25.25 30.26c1.83 8.43 2.11 17.08 2.11 25.76a7.78 7.78 0 01.81.17q-.4-.1-.81-.18c0-8.67-.28-17.32-2.11-25.75zm-2.35 47.29a6.46 6.46 0 002.79 1 6.46 6.46 0 01-2.79-1zm62.71-60.31a8.43 8.43 0 00.32-1.73 8.43 8.43 0 01-.32 1.73zm-.61 1.54a7.46 7.46 0 00.46-1 7.46 7.46 0 01-.46 1zm-31.24 25.62l.46.12zm.71.16l.41.06zM66.36 337.19a64.69 64.69 0 0012.25-26.14 86.94 86.94 0 01-12.25 26.14zm105.89-220.98zm16.59 65.71l.7.24zm-71.92 178.14c.24-2.69.5-5.38.75-8.06-.25 2.68-.51 5.37-.75 8.06zm58.54-309.39c3.39 0 6.78.08 10.18 0-3.4.08-6.79 0-10.18 0zM80.53 285.94a22.5 22.5 0 00-3.42-11.31 5 5 0 00-1.76-1.83 46.13 46.13 0 015.31 19.8q.03-3.32-.13-6.66zm158.29-148.43c1.5-.85 2.91-.67 3.81.67v-.05c-.91-1.41-2.34-1.59-3.87-.73-1.76 1-3.25 2.48-5.32 2.87v.14c2.1-.41 3.56-1.91 5.38-2.9zm-46.44 44.71a3.11 3.11 0 00.62-.33 3.11 3.11 0 01-.62.33zM220 158a8.81 8.81 0 00.66-.85 8.81 8.81 0 01-.66.85zM61.79 276.15a30.55 30.55 0 015.92-3.81 22.44 22.44 0 00-5.92 3.81zm129.97-93.75a3.25 3.25 0 00.42-.11zm-25.12 150a12 12 0 00-.53-3.59q.09-3.17 0-6.31v6.31a12 12 0 01.53 3.59zM35.67 182.62V180a10.07 10.07 0 000 2.62zM39.2 37.4zm5.35 12.67c0-5 .07-10 0-15 .07 5 0 10 0 15zM211 217.59a12 12 0 011.84 2.36 12 12 0 00-1.84-2.36zm58.88 55.34l.35-1.28c-11.78 31-13.74 64-18.42 96.41 0 .08 0 .16.05.25 4.64-32.08 6.62-64.66 18.02-95.38zm161.51-60.46c.15-.08.28-.17.43-.24a.75.75 0 00-.43.24zm-265.88 97.36q.54 6.29.64 12.63-.09-6.34-.64-12.63zm77.77 24.83a10.39 10.39 0 014.18-1.27c2.86-.13 4.49.32 5.39 1.75-.88-1.53-2.53-2-5.46-1.86a10.49 10.49 0 00-4.19 1.27c-2 1-3.5.62-4.49-1 .98 1.72 2.51 2.12 4.57 1.11zm70.78-230.56a5 5 0 00.69 2.74 5 5 0 01-.69-2.74zm19.38 143.29a1.06 1.06 0 01.12.1 1.06 1.06 0 00-.12-.1zM314.35 97.55c-.08-1.76-.23-3.52-.22-5.28 0 1.76.14 3.52.22 5.28zm19.21 240.35a2.75 2.75 0 01-.68-.88 2.75 2.75 0 00.68.88 1.67 1.67 0 001.1 1 1.67 1.67 0 01-1.1-1zm-.33-132.3a1.42 1.42 0 00.34.23 1.42 1.42 0 01-.34-.23zm-.06-.11s-.06-.08-.06-.12.04.08.06.12zM319 101c-.24-.1-.53-.33-.7-.27.17-.06.46.17.7.27zm-4.22 266.8l-.09.09c-.2.57-.4 1.14-.59 1.7.19-.56.39-1.13.59-1.7zm17.9-31.33a4.34 4.34 0 01-.13-1.35 4.34 4.34 0 00.13 1.35zm-211.15-36.41c0 1.23 0 2.46-.08 3.68.04-1.22.06-2.45.08-3.68zm-9.47-52.61a65 65 0 00-.23 3.65c.04-1.21.17-2.42.23-3.65zM271.6 266a12.25 12.25 0 01.88-6.83 5.65 5.65 0 015.12-3.6 4 4 0 013.68 2.24c-.82-1.32-2-2.47-3.76-2.35a5.66 5.66 0 00-5.12 3.6 12.41 12.41 0 00-.88 6.82c.18.63-.78 2.37.05 3.32-.68-1 .19-2.63.03-3.2zm-156.7 5c.24.63.48 1.27.75 1.91-.27-.63-.51-1.27-.75-1.91zm-3-14.67c0 .74.07 1.49.14 2.23-.04-.74-.1-1.49-.14-2.23zm166.43 16.84a3.81 3.81 0 012.91 1.35 3.74 3.74 0 00-3-1.46c-2.49-.17-8.36 5.82-8.23 8.39a1.45 1.45 0 00.34 1 1.63 1.63 0 01-.27-.9c-.08-2.55 5.76-8.55 8.25-8.38zm-166.1-13.05c.09.7.17 1.41.29 2.1-.12-.69-.2-1.4-.29-2.1zm152.33 46.13a14.84 14.84 0 019.9-5.31 4.31 4.31 0 014.15 1.64 4.29 4.29 0 00-4.23-1.75 14.82 14.82 0 00-9.89 5.31c-.88 1-1 1.86-.51 2.42-.4-.56-.24-1.34.58-2.31zm-150.84-38.81c.19.66.37 1.31.58 2-.21-.69-.39-1.34-.58-2zm159.66 19.78c2-.76 3.93-1.34 5.76.36a3.78 3.78 0 01.74.94 4 4 0 00-.81-1c-1.84-1.7-3.79-1.12-5.77-.36-2.66 1-6 2.6-5.76 5.24a2.1 2.1 0 00.33 1 2.35 2.35 0 01-.26-.87c-.27-2.71 3.1-4.3 5.77-5.31zm-160.54-23.41c.13.68.26 1.36.43 2-.17-.64-.27-1.32-.43-2zm311.29-59.69l-.36-.11zm1.39.88a3.11 3.11 0 00-1.14-.82 3.28 3.28 0 011.14.82c1.65 1.55 1.23 3.41 1 5.23.23-1.79.65-3.65-1-5.23zm-271.01 57.08q-.66 4.32-1.38 8.64.72-4.32 1.38-8.64zm-12.89-149.91c-.18 0-.37.11-.55.18.18-.07.37-.13.55-.18zm26.12 252.73v1.88c-.01-.62 0-1.25 0-1.88zm259.62-137.98a10 10 0 011.72-1.56 10 10 0 00-1.72 1.56zM152.64 248.2a107.77 107.77 0 01-18.49 1.45 107.77 107.77 0 0018.49-1.45zm269.84-44.31z" fill="none"/><path class="cls-2" d="M47.21 73.74h-8.92a8.48 8.48 0 00-.87-.06l-.9.1h-.85v101a3.31 3.31 0 01.83 0v3.57a3.34 3.34 0 00-.8 1.65v134.83l2.64 2.05a121.28 121.28 0 018.9-21.77z"/><path class="cls-3" d="M46.83 309.36a1 1 0 00-.75 1.07l1.41 11a12.32 12.32 0 001.8.23L48 310.2a1 1 0 00-1.17-.84z"/><path class="cls-4" d="M118.44 344.06c.07-.77.14-1.54.22-2.3.18-1.93.37-3.86.55-5.79l.27-3.05.45-5c.09-1.12.17-2.23.26-3.34.13-1.57.26-3.15.37-4.73.09-1.15.15-2.3.23-3.45.1-1.53.2-3.06.29-4.6.07-1.2.11-2.4.17-3.6.07-1.49.15-3 .2-4.47 0-1.22.06-2.45.08-3.68 0-1.42.08-2.84.1-4.26a42.87 42.87 0 00-4.63-19.9c-.24-.46-.43-.92-.65-1.37s-.51-1.07-.74-1.6-.51-1.28-.75-1.91-.42-1.07-.6-1.61-.39-1.3-.58-2-.32-1.07-.45-1.6-.3-1.35-.43-2-.23-1.05-.32-1.59c-.12-.69-.2-1.4-.29-2.1-.06-.52-.14-1-.19-1.56-.07-.74-.1-1.49-.14-2.23 0-.49-.07-1-.08-1.48v-3.75c0-1.21.12-2.42.23-3.65a.71.71 0 010-.14c.24-1.21.51-2.41.8-3.6 2-8.34 5.2-16.4 6.54-24.94 1.91-12.24 3.26-24.49 2.57-36.92-.45-8.09-.75-16.17 1.27-24.17.2-.79.43-1.56.69-2.29.08-.25.19-.47.28-.7.18-.48.37-1 .58-1.42.12-.27.27-.51.41-.77s.41-.79.64-1.16.35-.5.53-.75.47-.67.73-1 .43-.46.64-.69.55-.58.85-.85.49-.4.75-.6.63-.49 1-.72.58-.35.88-.52.71-.4 1.09-.58.66-.29 1-.42.44-.21.69-.29c.87-3 1.42-4.94 2.05-7.11l.81-5.31-.44-.61-.65-.88-.76-1.08-.62-.9c-.25-.36-.48-.73-.72-1.09l-.57-.91c-.23-.37-.44-.75-.65-1.13s-.35-.61-.51-.92-.39-.79-.58-1.19-.3-.62-.43-.93-.34-.86-.5-1.3-.23-.59-.33-.9c-.16-.49-.28-1-.4-1.51-.07-.26-.15-.52-.21-.79a20.87 20.87 0 01-.36-2.41 20.69 20.69 0 016.3-20.84 21.37 21.37 0 013.23-2.41 24.72 24.72 0 0116.61-2.94c6.41 1 10.85 4.91 13.54 10.65 1.55 3.3 3.18 4 6.76 2.57 4.88-2 10.11-3.1 15.23-4.45 1.75-.47 3.75-.5 4.29 1.82.58 2.48-1.06 3.38-3.18 3.8q-9.93 1.95-19.84 4c0 .95.08 1.9.11 2.85.06 1.75.1 3.5.1 5.24a71.15 71.15 0 01-1.15 13.48c-.3 2-.45 4.05-.92 6-2.21 9.11-7.67 11.11-15.78 5.86-1.12 2.22-1 5-3 6.79 1 1.1 1.87 2.25 2.72 3.42a53.82 53.82 0 013.18 4.89c.56 1 1.1 2 1.61 3 2.85 2.32 5.68 4.67 8.52 7s5.71 4.64 8.62 6.89c1.87 1.44 1.5 2.94 1.18 4.67 4.28-.09 7.81 2.31 11.65 3.65l.7.24.22.06.46.12h.25l.41.06h.88l.42-.11.2-.07a3.11 3.11 0 00.62-.33 6.67 6.67 0 001.43-1.34 117.67 117.67 0 0123.84-21.07 9.35 9.35 0 001.26-1 6.33 6.33 0 00.45-.44 8.81 8.81 0 00.66-.85c.11-.17.23-.34.33-.52a7.46 7.46 0 00.46-1c.06-.16.13-.32.18-.5a8.43 8.43 0 00.32-1.73c.31-4.15 2-7.35 6.09-9.25 1.9-.88 4.09-1.75 5.4-3.67v-.14h-.07V.04H129.64c-3 1.89-5.88 3.88-8.71 6-5.1 3.83-10.85 7.05-14.33 12.75 7.31-.39 14.38-.05 20.32 5.23a22.12 22.12 0 016.28 8.34c1.11 2.88 2.13 4 5.63 3.45 7.83-1.14 13.81 3.35 15.69 10.4.89 3.34.18 4.71-3.38 4.53-3.09-.16-6.2 0-9.3 0H94c-6.93 0-6.93 0-6.94-7.08V41c-1.86 0-3 1.36-3.83 2.68-.69 1.06-1.35 2.13-2 3.2l3.3 25-10.06 17.55s-12.84 29.58-12.08 3c-.74 6.35-1.5 12.71-1.07 19.17q.45 6.72.28 13.52c-.24 9.43-4 17.61-7.76 25.77-1.05 2.28-2.09 5.77-5.74 6.17v128.17c0 2.06-.19 4.15 1.14 5.95.31-.39.6-.8.91-1.2a55.35 55.35 0 0111.65-13.83 22.44 22.44 0 015.92-3.81 24.36 24.36 0 014.28-1.61.41.41 0 01.48.52l-.2.6a3.05 3.05 0 01.62 1.33 3.76 3.76 0 01.86-.42l.3-.85a.4.4 0 01.72-.08c.16.25.35.58.57 1a5 5 0 011.76 1.83 22.5 22.5 0 013.42 11.31q.16 3.35.13 6.66a59.7 59.7 0 01-2 18.45 64.69 64.69 0 01-12.25 26.14l.37.33a34.63 34.63 0 008 5.41c13.66 6.66 27.26 13.46 42.16 17.13.24-2.69.5-5.38.75-8.06s.49-5.32.75-7.97zM162.3 46c1.79-2.59 4.49-3.71 7.42-4.38 6.07-1.4 12-1.27 17.52 2 2 1.18 3.74 2.89 3.25 5.28-.53 2.58-3.06 1.71-4.85 1.76-3.4.11-6.79 0-10.18 0h-11.07c-1.18 0-2.51.14-3.16-1.09-.76-1.42.34-2.49 1.07-3.57zM63.14 83.5v1.14c.06-.39.11-.79.17-1.17z"/><path class="cls-5" d="M300.61 366.83V76.77c0-5.85 0-5.85 5.64-5.85H387c1.68 0 3.58.68 5-.94-.18-2-1.86-2.93-3-4.19-17.17-18.25-36.73-33.51-58-46.68A323.93 323.93 0 00295.32 0h-62v140.3h.07c2.07-.39 3.56-1.89 5.32-2.87 1.53-.86 3-.68 3.87.73v.05c0 .05 0 0 .05.06a2.94 2.94 0 01-.6 4c-.22.19-.48.34-.71.52-5 4.13-5 4.13-2 9.6 3.43 6.1 1 11.17-6 12.73v149.06c2 4.12 3.78 8.3 3.51 13.06-.12 2 .73 3.73 1.43 5.51a8.57 8.57 0 00.38.8c1 1.62 2.49 2 4.49 1a10.49 10.49 0 014.19-1.27c2.93-.13 4.58.33 5.46 1.86a8.5 8.5 0 01.93 4c.31 6.25-1.18 12.26-2.3 18.32a23.29 23.29 0 00.33 10.59c4.68-32.44 6.64-65.39 18.42-96.41l-.35 1.28c.15-.39.28-.78.42-1.17-9.81 34.83-13.42 70.63-16.71 106.49 8.92-.56 17.87-.8 26.73-1.8 6.51-.74 13.18-.83 19.45-3.12 1.19-2.05.91-4.32.91-6.49zM258 307.1c-.88 1.32-4.85-.34-7.32-1.15a9.29 9.29 0 01-4.78-2.95 5.75 5.75 0 01-1.14-3.37c-.14-2.45 1.32-3.93 3.18-4.93s3.38.25 4.58 1.62a25.51 25.51 0 012.67 3.48l.06.1c.15.26.33.52.51.78.43.61.91 1.24 1.34 1.87 1.09 1.57 1.9 3.13.9 4.55zm1.31-14.57c-2.4-.88-5.33-1.29-7.77-3.11a6.1 6.1 0 01-1.59-1.65c-1.08-1.66-.58-3.41.93-5.21 2.06-2.45 4.06-1.64 6 .34a22.58 22.58 0 012.62 3.33 40.24 40.24 0 012.14 3.66c1.18 2.25.36 2.96-2.29 2.64zm1.84-13a12.51 12.51 0 01-4.34-3.49c-1.47-2-1.35-4.12.46-6.19 2.24-2.57 4.53-2.54 6.13 0a8.06 8.06 0 01.68 1.25 16.5 16.5 0 011.14 6c.06 4.25-.22 4.45-4.03 2.43zM257.31 150c-1.71.05-2.69-.33-3.17-1.27a4.59 4.59 0 01-.43-2.42c.15-5.59.14-11.19 0-16.78-.06-2.59.67-3.74 3.47-3.66 6 .16 12.07.08 18.1 0 1.21 0 2.06.06 2.44.76a2.86 2.86 0 01.21 2c-.42 3-.1 6.16-.1 9.25h-.1c0 2.65-.35 5.36.09 7.94.58 3.35-.32 4.33-3.73 4.15-5.58-.23-11.19-.13-16.78.03zm17.79 160.84c-3.16.07-6.37-.81-9.52-1.45a2.45 2.45 0 01-1.6-.83c-.51-.56-.37-1.38.51-2.42a14.82 14.82 0 019.89-5.31 4.29 4.29 0 014.23 1.75 5.06 5.06 0 01.81 3.06c.23 3.23-1.63 5.15-4.32 5.2zm5.15-18.76c-.87 3.68-4 1.91-6.2 2.46-2.08-.37-5.24.57-6.18-1.21a2.1 2.1 0 01-.33-1c-.28-2.64 3.1-4.23 5.76-5.24 2-.76 3.93-1.34 5.77.36a4 4 0 01.81 1 4.79 4.79 0 01.37 3.63zm-7.58-9.2c-.67-.23-1.79.28-2.3-.42a1.45 1.45 0 01-.34-1c-.13-2.57 5.74-8.56 8.23-8.39a3.74 3.74 0 013 1.46 5 5 0 01.85 3.16c-.04 3.22-3.77 5.31-9.44 5.19zm7.68-19.2a21.06 21.06 0 01-4.16 3.9c-1.28.85-2.57 2.82-4.11 2a1.42 1.42 0 01-.51-.45c-.83-.95.13-2.69-.05-3.32a12.41 12.41 0 01.88-6.82 5.66 5.66 0 015.12-3.6c1.78-.12 2.94 1 3.76 2.35l.4.68c1.06 2.02-.08 3.79-1.33 5.26z"/><path class="cls-6" d="M386.06 337.52a15.45 15.45 0 01-.34-4.63c0-41.18.09-82.36-.12-123.54 0-4.68 1.38-5.64 5.7-5.5 9.73.31 19.48.07 29.22.11.43 0 .87 0 1.3-.05h.66a6 6 0 011.27.12l.36.11a2.5 2.5 0 01.25.09 3.11 3.11 0 011.14.82c1.65 1.55 1.23 3.41 1 5.23a7.76 7.76 0 000 1.8c.05.46.08.91.13 1.34.12 1 .39 1.87 1.54 2.1a8.36 8.36 0 013.19-3 .75.75 0 01.43-.24 8.52 8.52 0 013.56-.81 8.4 8.4 0 017.06 3.85c1.38-.74 1-2.4 1-3.75 0-6.74 0-13.47.06-20.21 0-1.43-.86-3.37 1.44-4.07v-2.19l-3.54 2.51s-3.76-4.21-3.91-4.58-.88-14.26-.88-14.26l5.59-10.24a89.69 89.69 0 00-6.23-17.43 106.89 106.89 0 00-.3 15c.23 3.52-.53 4.66-4.38 4.64-34.52-.18-69.05-.1-103.58-.13-1.57 0-3.28.52-4.65-.78-1.28-1-1-2.34-1-3.64v-45.93c0-1.35-.65-3.09 1.44-3.68.24-1.93.64-3.88-.3-5.75a9.36 9.36 0 01-.46 1.14s-.52 0-.54-.1c-.19-.8.27-1.29.91-1.67 1.86-1.34 4-.75 6-.76q40.72-.06 81.45-.06c1.37 0 3.33.85 4-.66s-1.09-2.56-1.88-3.73c-2.07-3-4.29-6-6.44-9q-43 0-86 .1c-6.87 0-6-.84-6 6.16 0 1.76.14 3.52.22 5.28.86-1.72.6-3.56.6-5.6a11.39 11.39 0 01.61-3.91v275.2l-.65.07v-92.82c0-1.73.48-3.55-.55-5.19-.07 10.16-.2 20.33-.21 30.49q-.06 32.26 0 64.55c0 2.48.41 5 .63 7.46l.38.46c-.16-.12-.32-.24-.47-.37-.2.57-.4 1.14-.59 1.7l4.33.4 2.67-.18 15-3.9c1.13-.57 2.14-1.5 3.56-1.28 17.54-5.47 34.3-12.68 49.71-22.77 1.11-.73 3.35-.84 2.64-3.19-3.99.26-5.48.35-6.03-1.13zm-67.4-235.86c-.17.07-.46-.17-.69-.27.1-.23.15-.6.32-.67s.46.17.7.27c-.1.24-.16.6-.33.67zm54.84 229.87c0 7.34 0 7.33-7.24 7.34-10 0-20.06 0-30.08.09a6.1 6.1 0 01-1.52-.1 1.67 1.67 0 01-1.1-1 2.75 2.75 0 01-.68-.88 2.79 2.79 0 01-.2-.55 4.34 4.34 0 01-.13-1.35c0-.6.1-1.2.1-1.79q-.06-36.68 0-73.37c0-1.55-.56-3.29.93-4.57v-7.9a1.06 1.06 0 00-.12-.1c-.36-.27-.57-.54-.57-.81s.22-.61.69-.91v-8.81a2.22 2.22 0 01-.88-1.49 9.91 9.91 0 01-.06-1.73v-22.88c0-1.16-.16-2.38.94-3.22v-1.71a1.42 1.42 0 01-.34-.23.3.3 0 01-.06-.11s-.06-.08-.06-.12a.32.32 0 01.1-.24 1.32 1.32 0 01.35-.23 2.13 2.13 0 012.16-1.14c11.06.1 22.12.26 33.17.07 3.67-.06 4.71 1 4.7 4.69-.14 41.04-.09 82.04-.1 123.05z"/><path class="cls-4" d="M212.62 357.41c-2.61-4.72-.53-7.94 5-8a12.17 12.17 0 017 2.48c2.58 1.69 3.44.46 3.67-2a10.67 10.67 0 00-2.06-7.46c-4.34-6.17-8.1-12.66-9-20.36-.53-4.36.14-8.49 2.89-12.08 3.07-4 6.55-4.12 9.83-.29 1.24 1.45 2.37 3 3.56 4.49V165.07a10.39 10.39 0 00-6.62 3.07c-1.73 1.63-3.5 3.22-5.28 4.79-5.35 4.73-10.81 9.34-15.57 14.69l1.74-.07c.48-.22.7-.12.75.2a1.34 1.34 0 010 .39q.09 13.71.17 27.42a14.21 14.21 0 012.41 2 12 12 0 011.84 2.36 10.75 10.75 0 01.7 9.34c-1.09 3-2.95 4.49-6.68 4.3-7.84-.39-15.64-1.32-23.44-2.17s-15.6-1.62-23.46-1.7q-.6 3.56-1.18 7.11-.88 5.26-1.78 10.54c1.39 10.38 2.1 20.91 4 31.14a306.76 306.76 0 014.52 31.32q.54 6.29.64 12.63v6.31a12 12 0 01.53 3.59 26.05 26.05 0 01-.25 3.63q.31 10.7.61 21.4a27.76 27.76 0 01.74 7.47v1.88c0 1.88-.1 3.76 0 5.63l.06.07c8.16 2.48 16.69 2.51 25 3.77 10.56 1.6 21.19 2 31.83 2.4 1.7.07 3.31 0 3.61-2.23-3.87-4.4-7.8-8.76-11.59-13.24a36 36 0 01-4.19-5.7zm-35.15-104l-.28-.25c.11-.06.22-.17.33-.16s.19.14.29.22zm-3 .42c.29 1.66 1.28 3.56-1.39 4.25l-.88.89a6.21 6.21 0 01-1.15 1.14 1.71 1.71 0 00-.62 1.49c.85.14 1.68.34 1.59 1.47 0 .19-.34.53-.45.51a1.22 1.22 0 01-.93-.76 6.43 6.43 0 01-.24-1.19 2.51 2.51 0 01-2.4-1.53 3.63 3.63 0 01-.23-1.1l-.88-.89a7.23 7.23 0 01-2.83-1.45c-.63-.83.32-2 2.83-4.77a2.12 2.12 0 011.08-.75 3.91 3.91 0 011.29-.12c2.25.12 3.7.19 3.25-3.19s2.2-4.37 6.07-3c-4.68.67-5.32 2.08-4.11 9.03zm14.06-6.19c-.58.84-1.37.8-2.24.38a1.65 1.65 0 012-1.07.8.8 0 01.24.72zm-.13-4a5.36 5.36 0 01-1.14.23c-.29.3-.59.59-.89.89a6 6 0 01-1.43.8 14.79 14.79 0 01-2.59 0c1.61-1.26 2.88-.64 4-.84l.88-.89a9.71 9.71 0 00-.13-3.14c-.19-1-.49-2-.76-3.05-3.87-.79-5.6 1.18-6.23 4.82-1.11-3.23.12-5.1 3-6.59 1.74-.89 2.49-.54 2.91.5a6.82 6.82 0 01.33 1.25 7.8 7.8 0 013.93 2.61 8.41 8.41 0 011.28 5.59c-.82-2.71-2-2.46-3.16-2.13z"/><path class="cls-6" d="M329.86 101.9c-3 0-3.75 1-3.73 3.81.09 16.09.13 32.19 0 48.28 0 3.43 1.17 4.18 4.36 4.16 16.38-.14 32.77-.07 49.16-.07h49.17c2.3 0 4.15.21 4.34-3.24.79-14.51.07-28.59-8.74-41.05a75 75 0 01-5.38-9.16c-1.12-2.19-2.67-2.73-5-2.72q-42.09.09-84.18-.01zM423 209c.11-2.28-.72-3.12-3-3.1-9.74.09-19.48.14-29.21 0-3.23-.06-3.08 1.77-3.08 4v120.8c0 7.11-.68 6.08 6.08 6.18.89 0 1.77.08 2.65.12a118.59 118.59 0 0024-22.1c1.31-1.56 2.75-3.15 2.71-5.42q-.09-46-.17-92c.02-2.87-.08-5.68.02-8.48z"/><path class="cls-6" d="M310.48 88.49c0-1.43-.45-3 .91-4.15 1.49-1.45 3.37-.81 5.06-.81 27.44 0 54.87 0 82.31-.07 1.67 0 3.57.72 5-.87-4.17-3.93-6.69-9.39-11.7-12.53-1.41 1.62-3.32.94-5 1h-80.72c-5.65 0-5.65 0-5.65 5.85v290.06c0 2.2.28 4.44-.83 6.5a28.86 28.86 0 0010.65-1.76q-.02-141.63-.03-283.22z"/><path class="cls-7" d="M140.48 347.67q5.58-34.67 11.36-69.28l1.29-7.67q.72-4.32 1.38-8.64c.72-4.81 1.36-9.64 1.75-14.5-1.2.24-2.41.43-3.62.62a107.77 107.77 0 01-18.49 1.45c-1.84 0-3.68-.08-5.52-.19a120.31 120.31 0 01-16.56-2.15.71.71 0 000 .14 65 65 0 00-.23 3.65v3.75c0 .5.05 1 .08 1.48 0 .74.07 1.49.14 2.23 0 .52.13 1 .19 1.56.09.7.17 1.41.29 2.1.09.54.21 1.06.32 1.59s.26 1.36.43 2 .3 1.07.45 1.6.37 1.31.58 2 .4 1.07.6 1.61.48 1.27.75 1.91.49 1.06.74 1.6c.38.78.74 1.56 1.16 2.34 3.1 5.66 4.14 11.93 4.09 18.38v.56c0 1.42-.06 2.84-.1 4.26 0 1.23 0 2.46-.08 3.68 0 1.49-.13 3-.2 4.47-.06 1.2-.1 2.4-.17 3.6-.09 1.54-.19 3.07-.29 4.6-.08 1.15-.14 2.3-.23 3.45-.11 1.58-.24 3.16-.37 4.73-.09 1.11-.17 2.22-.26 3.34l-.45 5-.27 3.05c-.18 1.93-.37 3.86-.55 5.79-.08.76-.15 1.53-.22 2.3-.26 2.65-.51 5.29-.77 7.94s-.51 5.37-.75 8.06c5.29 2.43 11 3.56 16.51 5.28 3.2 1 4.92-.26 5-3.79 0-1.05-1-3.2 1.64-3.07-1.2-3.66-.19-7.28.38-10.83z"/><path class="cls-4" d="M35.67 182.62a10.07 10.07 0 010-2.63 3.34 3.34 0 01.8-1.65v-3.57a3.31 3.31 0 00-.83 0c-1.43.16-2.29 1.35-3.18 2.33-3.15 3.48-6 7.32-9.33 10.55C13.87 196.5 7.7 207.32 3 219a43.46 43.46 0 00-2.7 12c-1.6 17 3.36 32.67 10 48 5.5 12.67 13.61 23.65 22.41 34.16a3.85 3.85 0 003 1.72V183.49q-.01-.49-.04-.87z"/><path class="cls-2" d="M167 357.43q-.3-10.69-.61-21.4c-.83-2.38-.39-4.8-.28-7.22q.09-3.17 0-6.31-.09-6.34-.64-12.63a306.76 306.76 0 00-4.47-31.36c-1.92-10.23-2.63-20.76-4-31.14a.93.93 0 00-.71.21c-.39 4.86-1 9.69-1.75 14.5q-.66 4.32-1.38 8.64l-1.29 7.67q-5.73 34.64-11.36 69.28c-.57 3.55-1.58 7.17-.36 10.81.84 3.14-1.25 7.17 2.83 9.32l24 4.6q.02-7.48.02-14.97z"/><path class="cls-6" d="M269.88 272.93c-11.4 30.72-13.38 63.3-18 95.38 0-.09 0-.17-.05-.25a23.29 23.29 0 01-.33-10.59c1.12-6.06 2.61-12.07 2.3-18.32a8.5 8.5 0 00-.93-4c-.9-1.43-2.53-1.88-5.39-1.75a10.39 10.39 0 00-4.18 1.27c-2.06 1-3.59.61-4.57-1.11a8.57 8.57 0 01-.38-.8c-.7-1.78-1.55-3.55-1.43-5.51.27-4.76-1.47-8.94-3.51-13.06-1.19-1.5-2.32-3-3.56-4.49-3.28-3.83-6.76-3.73-9.83.29-2.75 3.59-3.42 7.72-2.89 12.08.94 7.7 4.7 14.19 9 20.36a10.67 10.67 0 012.06 7.46c-.23 2.45-1.09 3.68-3.67 2a12.17 12.17 0 00-7-2.48c-5.49.08-7.57 3.3-5 8a36 36 0 004 5.77c3.79 4.48 7.72 8.84 11.59 13.24a5.54 5.54 0 005.25 2.27c4-.17 8.09-.07 12.14-.09-.23-2.63-1.46-4.89-2.59-7.17a3.83 3.83 0 00-2.29-2c-6.25-1.94-22.22-12.38-22.11-13.2a.4.4 0 01.28-.28c.92-.12 24.8 14.8 24.85 13.46a7.93 7.93 0 00-.75-2.53 13.56 13.56 0 01-.91-4.58l-10.16-26.21a49.37 49.37 0 01-4.7-14.75c1.59 4.75 3.59 9.35 5.34 14.05 1.82 4.78 8.08 19.53 10 24.49a10.45 10.45 0 011.1-2.15c3.37-5.06 3.6-11.34 3.06-17.44 1.39 6.33 1 12.59-2 18.36a9.57 9.57 0 00-.78 7.89c1.21 4 1.85 8.15 2.74 12.24l6.83-.43v-.12c3.29-35.86 6.9-71.66 16.71-106.49.04.41-.12.8-.24 1.19z"/><path class="cls-8" d="M94 50.67h47.81c3.1 0 6.21-.12 9.3 0 3.56.18 4.27-1.19 3.38-4.53-1.88-7-7.86-11.54-15.69-10.4-3.5.51-4.52-.57-5.63-3.45a22.12 22.12 0 00-6.25-8.29c-5.94-5.28-13-5.62-20.32-5.23-5.7 3.22-9.68 8.33-13.86 13.12-2.31 2.64-5.91 4.72-5.66 9.05v2.66c.02 7.07.02 7.07 6.92 7.07z"/><path class="cls-6" d="M443.42 227.91a13.75 13.75 0 01.09-2.92 2.27 2.27 0 00-.53-1.57 8.41 8.41 0 01-7.6 4.84 8.32 8.32 0 01-6.3-2.9 10 10 0 00-1.72 1.56 4 4 0 00-.85 2.69c.13 23.17.08 46.34.1 69.51a11.76 11.76 0 00.25 1.77c1.85.39 1.62-2.64 3.48-2 1.21-.52 1.61-1.68 2.12-2.72 9.23-18.75 14.4-38.35 12.45-59.44-2.91-2.5-.81-5.9-1.49-8.82z"/><path class="cls-7" d="M37.42 73.73a8.48 8.48 0 01.87.06h8.92c1.93 0 3.87-.06 5.79 0 2.26.09 3.53-.79 4.08-3.07 3.21-13.28 6.51-26.53 9.73-39.81.5-2 .32-3.91-2.47-4.08l-45-.13c-3.34.92-3 3.36-2.39 5.85q3.84 15.87 7.72 31.71c2.2 9 2.31 9.26 11 9.58h.85zm9.87-41.48c3.53.12 7.06.1 10.59 0 2-.06 2.48.55 2 2.58-2.55 10.1-5 20.23-7.36 30.38-.82 3.59-3.43 2.42-5.58 2.59-2.92.23-2.33-2-2.34-3.61V50.07c0-5 .07-10 0-15-.13-2.07.57-2.9 2.69-2.82zM30.64 63.88c-2.33-9.44-4.49-18.88-6.95-28.33-.71-2.73 0-3.42 2.61-3.31 3.24.14 6.49 0 9.74 0a4.53 4.53 0 012.33.32 1.91 1.91 0 01.85 1.27 2 2 0 01.5.44c.34.44.16.87-.52 1.29v1.84a2.54 2.54 0 01.93 2.2c0 .48-.05 1-.05 1.45v21.88c0 1.27.37 2.67-.85 3.67-4.31 2.94-7.43 1.98-8.59-2.72z"/><path class="cls-4" d="M314.78 367.8c-.22-2.49-.63-5-.63-7.46q-.09-32.28 0-64.55c0-10.16.14-20.33.21-30.49v-12.62c-.07-1.62-.21-3.24-.21-4.86V112.29c0-1.73-.43-3.56.61-5.18v-.27a5 5 0 01-.69-2.74 13.37 13.37 0 01.1-1.4l.18-1.41v-3.74c-.08-1.76-.23-3.52-.22-5.28.05-7-.84-6.15 6-6.16q43-.09 86-.1c-.34-1.48-.59-3-2.44-3.42-1.44 1.59-3.34.87-5 .87-27.44.05-54.87 0-82.31.07-1.69 0-3.57-.64-5.06.81 0 2.66.1 5.31.1 8v274c0 1.77.05 3.54.08 5.31 1.4 0 2.44-.39 2.52-2 .19-.56.39-1.13.59-1.7z"/><path class="cls-8" d="M425.52 205a3.28 3.28 0 00-1.14-.82 2.5 2.5 0 00-.25-.09l-.36-.11a6 6 0 00-1.27-.12h-.66c-.43 0-.87.06-1.3.05-9.74 0-19.49.2-29.22-.11-4.32-.14-5.72.82-5.7 5.5.21 41.18.12 82.36.12 123.54a15.45 15.45 0 00.34 4.63c.55 1.48 2 1.39 6 1.15 1.1-1.51 3.35-.05 4.4-1.69-.88 0-1.76-.11-2.65-.12-6.76-.1-6.07.93-6.08-6.18v-120.8c0-2.19-.15-4 3.08-4 9.73.15 19.47.1 29.21 0 2.32 0 3.15.82 3 3.1-.13 2.8 0 5.61 0 8.41q.09 46 .17 92c.63-.61 1.26-1.22 1.9-1.82v-98.25c0-1.33.26-2.79.41-4.27z"/><path class="cls-2" d="M47.89 12.7c-3.75-3.09-8.32-3.31-11.78-.45-5.68 4.68-11.11 9.6-16.73 14.41l45 .13c-5.52-4.71-10.93-9.49-16.49-14.09z"/><path class="cls-9" d="M311.49 92.3c0-2.65-.06-5.3-.1-8-1.36 1.15-.91 2.72-.91 4.15v283.19l1.08-.07c0-1.77-.08-3.54-.08-5.31q.02-136.95.01-273.96zm115.37 208.59a11.76 11.76 0 01-.25-1.77c0-23.17 0-46.34-.1-69.51a4 4 0 01.85-2.69 10 10 0 011.72-1.56 8.23 8.23 0 01-.88-9.86c-1.15-.23-1.42-1.07-1.54-2.1-.05-.43-.08-.88-.13-1.34a7.76 7.76 0 010-1.8c.19-1.82.61-3.68-1-5.23-.15 1.45-.41 2.91-.42 4.36v98.25a13.16 13.16 0 005.27-8.71c-1.9-.68-1.67 2.35-3.52 1.96zm16.61-109.58c-.09 6.74 0 13.47-.06 20.21 0 1.35.41 3-1 3.75a8.23 8.23 0 01.54 8.15 2.27 2.27 0 01.53 1.57 13.75 13.75 0 00-.09 2.92c.68 2.92-1.47 6.32 1.49 8.86v-49.53c-2.27.7-1.4 2.64-1.41 4.07zM322 110.26q-.06 23 0 45.93c0 1.3-.25 2.69 1 3.64a.79.79 0 000-.67l.39-1.16v-3.69a1.73 1.73 0 010-2.49v-38.27a1 1 0 010-1.64v-1.92a1 1 0 01.1-1.64v-1.77c-2.13.59-1.49 2.33-1.49 3.68zm126.58 84.14l-1.32.07v14.79s.08 16.84 0 22.07l1.4.1a237.19 237.19 0 00-.08-37.03z"/><path class="cls-4" d="M167.32 372.45l-.4-.05-24-4.6c.19 2.47 2.36 2.35 3.9 2.73 5.59 1.38 11.42 1.65 16.89 3.8.83.32 3.51.54 4-1.85l-.06-.07z"/><path class="cls-5" d="M446.47 178.64c-.69 5.33.64 10.55.79 15.83l1.32-.07c.32-5.4-1.43-10.5-2.11-15.76zm.76 52.69v11.32c.79-3.73 2-7.39 1.4-11.22z"/><path class="cls-4" d="M321.1 369.81l-2.67.18c1.05 2.38 1.8.27 2.67-.18z"/><path class="cls-6" d="M323.42 154.31v-2.49a1.73 1.73 0 000 2.49z"/><path class="cls-9" d="M322.15 101.87c0 .08.52.15.54.1a9.36 9.36 0 00.46-1.14 1.34 1.34 0 00-.09-.63c-.64.38-1.06.87-.91 1.67z"/><path class="cls-6" d="M323.41 113.55v-1.64a1 1 0 000 1.64z"/><path class="cls-10" d="M344.13 370.43c.11 0 .23-.11.34-.17l-.64-.06c.1.08.17.22.3.23z"/><path class="cls-6" d="M323.37 110c0-.55.07-1.09.1-1.64a1 1 0 00-.1 1.64z"/><path d="M444.76 170.2v.08M323 159.16l.39-1.16" stroke="#7ab0de" stroke-linecap="round" stroke-linejoin="round" stroke-width="0" fill="none"/><path class="cls-12" d="M149.28 235a63.75 63.75 0 01-8.88-3.77 7.52 7.52 0 01-3.73-4.65 145.51 145.51 0 01-4.3-17c-.63-3 0-6.13-3.76-8.07-1.35-.69-1.34-4.55-1.48-7-.44-7.16-.65-14.35-.95-21.52-.26-2.94-.87-5.86-.24-8.8a10.49 10.49 0 01.35-1.27 13.92 13.92 0 0113.6-9.38c6.44.43 11.41 4.81 12.82 11.48 1.58 7.45 3.06 14.92 4.59 22.38 1.32 6.39 1.33 6.39-4.59 7.29 1.88 6.62 3.7 13.24 5.67 19.82a2 2 0 00.52.86 6.46 6.46 0 002.79 1c.79-5.61 1.23-11.24 1.48-16.9.09-1.88.15-3.77.19-5.65 0-8.68-.28-17.33-2.11-25.76a66.16 66.16 0 00-2.38-8.37c-.51-1-1.05-2-1.61-3a53.82 53.82 0 00-3.18-4.89c-.85-1.17-1.75-2.32-2.72-3.42a21.21 21.21 0 00-9.88-3.87 25.25 25.25 0 00-6.49.08 17.23 17.23 0 00-1.71.62c-.34.13-.68.27-1 .42s-.74.38-1.09.58-.6.34-.88.52-.65.47-1 .72-.51.39-.75.6-.57.56-.85.85-.44.45-.64.69-.49.66-.73 1-.36.49-.53.75-.43.77-.64 1.16-.29.5-.41.77c-.21.45-.4.94-.58 1.42-.09.23-.2.45-.28.7-.26.73-.49 1.5-.69 2.29-2 8-1.72 16.08-1.27 24.17.69 12.43-.66 24.68-2.57 36.92-1.34 8.54-4.49 16.6-6.54 24.94-.29 1.19-.56 2.39-.8 3.6a120.31 120.31 0 0016.56 2.15c1.84.11 3.68.17 5.52.19a107.77 107.77 0 0018.49-1.45c1.21-.19 2.42-.38 3.62-.62a.93.93 0 01.71-.21q.89-5.26 1.78-10.54a33.2 33.2 0 01-4.83-.59 40.52 40.52 0 01-4.6-1.24z"/><path class="cls-13" d="M238.82 137.51c-1.79 1-3.28 2.52-5.4 2.9-1.31 1.92-3.5 2.79-5.4 3.67-4.11 1.9-5.78 5.1-6.09 9.25a8.43 8.43 0 01-.32 1.73c-.05.18-.12.34-.18.5a7.46 7.46 0 01-.46 1c-.1.18-.22.35-.33.52a8.81 8.81 0 01-.66.85 6.33 6.33 0 01-.44.46c-.09.09-.15.18-.24.26-8.56 7.58-17.18 15.1-25.69 22.73a4.92 4.92 0 01-.6.47 3.11 3.11 0 01-.62.33l-.2.07a3.25 3.25 0 01-.42.11h-.88l-.41-.06h-.25l-.46-.12-.22-.06-.7-.24c-3.84-1.34-7.37-3.74-11.65-3.65a28.87 28.87 0 00-4.43 9.4l8.23.37 9.82.22c5-1.06 10.06 0 15.06-.64 4.76-5.35 10.22-10 15.57-14.69 1.78-1.57 3.55-3.16 5.28-4.79a10.39 10.39 0 016.62-3.07c7.06-1.56 9.46-6.63 6-12.73-3.07-5.47-3.07-5.47 2-9.6.23-.18.49-.33.71-.52a2.94 2.94 0 00.6-4l-.05-.06c-.88-1.28-2.29-1.46-3.79-.61z"/><path class="cls-14" d="M137.88 114.13c.57-.33 1.14-.7 1.71-1a10.75 10.75 0 011.48-.74c.18-.07.37-.13.55-.18a4.06 4.06 0 013.61.66l7.54-1.11c4.78-1.13 9.56-2.22 14.4-3 1.62-.25 3.24-.46 4.87-.62l19.84-4c2.12-.42 3.76-1.32 3.18-3.8-.54-2.32-2.54-2.29-4.29-1.82-5.12 1.35-10.35 2.47-15.23 4.45-3.58 1.46-5.21.73-6.76-2.57-2.69-5.74-7.13-9.64-13.54-10.65a24.72 24.72 0 00-16.61 2.94 21.37 21.37 0 00-3.23 2.41 20.69 20.69 0 00-6.3 20.9z"/><path class="cls-13" d="M167.17 108.74c-4.84.76-9.62 1.85-14.4 3a56.77 56.77 0 00-2.09 8 12.37 12.37 0 001.43 8.12c2.69 4.72 7.12 6.28 12 4.14 2.24-1 4.18-2.86 6.93-2.23a71.15 71.15 0 001.15-13.48c0-1.74 0-3.49-.1-5.24 0-1-.07-1.9-.11-2.85-1.57.08-3.19.29-4.81.54zm-25.69 35.78a21.21 21.21 0 019.88 3.87c2.07-1.79 1.92-4.57 3-6.79-5.15-5-7.1-11.26-7-18.22.05-3.72-.23-7.28-2.16-10.55a4.06 4.06 0 00-3.61-.66c-.18 0-.37.11-.55.18a10.75 10.75 0 00-1.48.74c-.57.34-1.14.71-1.71 1-.14 4-.06 7.52 2.89 11.12 1.43 1.74-.67 5.8-3.94 7.26l-.81 5.31q-.51 3.39-1 6.78a25.25 25.25 0 016.49-.04z"/><path class="cls-15" d="M164.17 132c-4.93 2.14-9.36.58-12-4.14a12.37 12.37 0 01-1.43-8.12 56.77 56.77 0 012.09-8l-7.54 1.11c1.93 3.27 2.21 6.83 2.16 10.55-.09 7 1.86 13.23 7 18.22 8.11 5.25 13.57 3.25 15.78-5.86.47-2 .62-4 .92-6-2.8-.67-4.74 1.24-6.98 2.24z"/><path class="cls-14" d="M161.25 168.08c1.83 8.43 2.11 17.08 2.11 25.75q.4.07.81.18c.07-3.27.1-4.7 1.63-5.41 1.18-.56 3.26-.69 7-.92a28.87 28.87 0 014.43-9.4c.32-1.73.69-3.23-1.18-4.67-2.91-2.25-5.77-4.56-8.62-6.89s-5.67-4.68-8.52-7a66.16 66.16 0 012.34 8.36z"/><path class="cls-8" d="M164.39 50.67h11.07c3.39 0 6.78.08 10.18 0 1.79 0 4.32.82 4.85-1.76.49-2.39-1.23-4.1-3.25-5.28-5.55-3.23-11.45-3.36-17.52-2-2.93.67-5.63 1.79-7.42 4.38-.73 1.06-1.83 2.13-1.07 3.56.65 1.24 1.98 1.09 3.16 1.1z"/><path class="cls-15" d="M140.77 125.25c-3-3.6-3-7.14-2.89-11.12L129.1 116a20.87 20.87 0 00.36 2.41c.06.27.14.53.21.79.12.51.24 1 .4 1.51.1.31.22.6.33.9s.32.88.5 1.3.29.62.43.93.37.8.58 1.19.34.61.51.92.42.76.65 1.13l.57.91c.24.36.47.73.72 1.09l.62.9.76 1.08.65.88.44.61c3.27-1.5 5.37-5.55 3.94-7.3z"/><path class="cls-8" d="M277.82 145.89c-.44-2.58-.09-5.29-.09-7.94h.1c0-3.09-.32-6.22.1-9.25a2.86 2.86 0 00-.21-2c-.41-.59-1.23-.66-2.37-.65-6 0-12.07.12-18.1 0-2.8-.08-3.53 1.07-3.46 3.66.14 5.59.15 11.19 0 16.78a5 5 0 00.36 2.31c.48.94 1.46 1.32 3.17 1.27 5.59-.16 11.2-.26 16.78 0 3.4.15 4.3-.83 3.72-4.18zm-15.42-8.2c.19-2.33 1.69-3.2 3.78-3.41 2.33.45 3.74 1.7 3.49 4.18a3.4 3.4 0 01-3.81 3.34 3.44 3.44 0 01-3.46-4.11z"/><path class="cls-6" d="M274.46 300.94a14.84 14.84 0 00-9.9 5.31c-.82 1-1 1.75-.58 2.31a2.45 2.45 0 001.6.83c3.15.64 6.36 1.52 9.52 1.45 2.69 0 4.55-2 4.32-5.2a5.06 5.06 0 00-.81-3.06 4.31 4.31 0 00-4.15-1.64zm-18.68-.23c-.18-.26-.36-.52-.51-.78a25.35 25.35 0 00-2.66-3.47c-1.2-1.37-2.64-2.65-4.57-1.61s-3.33 2.47-3.19 4.92a5.78 5.78 0 001.05 3.23 9.29 9.29 0 004.82 2.93c2.47.81 6.44 2.47 7.32 1.15s.15-3-.92-4.52c-.44-.56-.91-1.24-1.34-1.85zm25.5-42.93a4 4 0 00-3.68-2.24 5.65 5.65 0 00-5.12 3.6 12.25 12.25 0 00-.88 6.83c.16.6-.71 2.23 0 3.2a1.42 1.42 0 00.51.45c1.54.78 2.83-1.19 4.11-2a21.06 21.06 0 004.16-3.9c1.25-1.47 2.39-3.24 1.33-5.22zm-21.78 28.45A22.4 22.4 0 00257 283c-1.9-2-3.9-2.79-6-.34-1.48 1.76-2 3.48-1 5.1a6.1 6.1 0 001.59 1.65c2.44 1.82 5.37 2.23 7.77 3.11 2.62.32 3.47-.39 2.29-2.64a40.24 40.24 0 00-2.15-3.65zm3.94-16.42c-1.6-2.38-3.85-2.38-6.06.15-1.77 2-1.92 4.11-.53 6.08a12.51 12.51 0 004.34 3.49c3.77 2 4.09 1.82 4.07-2.46a16.5 16.5 0 00-1.14-6 8.06 8.06 0 00-.68-1.26zm14.89 3.36c-2.49-.17-8.35 5.82-8.23 8.39a1.63 1.63 0 00.27.9c.51.7 1.63.19 2.3.42 5.67.11 9.4-2 9.42-5.2a5 5 0 00-.85-3.16 3.81 3.81 0 00-2.91-1.35zm.81 14.41c-1.83-1.7-3.79-1.12-5.76-.36-2.67 1-6 2.6-5.77 5.24a2.35 2.35 0 00.26.87c.94 1.78 4.1.84 6.18 1.21 2.18-.55 5.33 1.22 6.2-2.46a4.79 4.79 0 00-.37-3.56 3.78 3.78 0 00-.74-.94z"/><path class="cls-16" d="M368.89 203.83c-11.05.19-22.11 0-33.17-.07a2.13 2.13 0 00-2.16 1.14v133a1.67 1.67 0 001.1 1 6.1 6.1 0 001.52.1c10-.08 20.05-.08 30.08-.09 7.24 0 7.24 0 7.24-7.34 0-41 0-82 .09-123 .01-3.75-1.03-4.8-4.7-4.74zm-2.46 132.62c-8.7-.27-17.42-.19-26.13 0-2.95.05-4.13-.69-4.12-3.91q.13-61.12 0-122.24c0-3.22 1.18-3.94 4.13-3.89 8.86.15 17.72.2 26.57 0 3.44-.09 4.19 1.19 4.17 4.37-.12 20.23-.06 40.45-.05 60.68 0 20.07-.08 40.15.07 60.23.03 3.52-.84 4.87-4.64 4.76z"/><path class="cls-9" d="M314.34 101.29c1.06 1.78.44 3.68.41 5.54v.28q.09 27 .15 54v86.8c0 1.59.44 3.26-.55 4.75v5.5a2.68 2.68 0 010 3.38v3.74c1 1.64.54 3.46.55 5.19v92.82l.65-.07V88a11.39 11.39 0 00-.55 4c0 2 .26 3.88-.6 5.6-.06 1.2-.06 2.45-.06 3.69zm19.24 154.1c-1.49 1.28-.93 3-.93 4.57q-.06 36.69 0 73.37c0 .59-.08 1.19-.1 1.79a4.34 4.34 0 00.13 1.35 2.79 2.79 0 00.2.55 2.75 2.75 0 00.68.88q.02-41.25.02-82.51zm-.01-47.85c-1.1.84-.94 2.06-.94 3.22v22.88a9.91 9.91 0 00.06 1.73 2.22 2.22 0 00.88 1.49zm-15.28-106.82c-.17.07-.22.44-.32.67.23.1.52.34.69.27s.23-.43.33-.67c-.24-.1-.53-.33-.7-.27zm15.27 144.95c-.47.3-.7.6-.69.91s.21.54.57.81a1.06 1.06 0 01.12.1zm-18.4 122.59l-.38-.46-.09.09c.15.11.31.25.47.37zm18.4-163.36a1.32 1.32 0 00-.35.23.32.32 0 00-.1.24s0 .08.06.12a.3.3 0 00.06.11 1.42 1.42 0 00.34.23c0-.31-.01-.62-.01-.93z"/><path d="M205.92 187.62c-5 .68-10.08-.42-15.06.64 0 5-.21 10 0 15 .11 2.48-1 2.91-3 3-5.86.38-6.83-.5-6.84-6.35V188c-2.76-.12-5.52-.25-8.28-.36-3.7.23-5.78.36-7 .92-1.53.71-1.56 2.14-1.63 5.41v22.43c13.84 2.5 27.69 5 41.52 7.53 2 .38 2.66-.4 2.68-2.26 0-2.05.14-4.1.22-6.15q-.08-13.71-.17-27.42l-.73-.59z" fill="#f08935"/><path class="cls-13" d="M208.34 221.71c0 1.86-.64 2.64-2.68 2.26-13.83-2.56-27.68-5-41.52-7.53l-2.45-.05a6.46 6.46 0 01-2.79-1 2 2 0 01-.52-.86c-2-6.58-3.79-13.2-5.67-19.81L135.28 197c2.24 7.9 4.55 15.79 6.68 23.72 1.27 4.71 4.15 7 9 7.62 3 .37 6.17-.25 9 1.41 7.86.08 15.66.85 23.46 1.7s15.6 1.78 23.44 2.17c3.73.19 5.59-1.34 6.68-4.3a10.75 10.75 0 00-.7-9.34 12 12 0 00-1.84-2.36 14.21 14.21 0 00-2.41-2c-.11 1.99-.24 4.04-.25 6.09z"/><path d="M151 228.31c-4.86-.6-7.74-2.91-9-7.62-2.13-7.93-4.44-15.82-6.68-23.72-2.85.53-4.07-.74-4.61-3.53-1.34-6.85-2.33-13.78-4.49-20.45.3 7.17.51 14.36.95 21.52.14 2.44.13 6.3 1.48 7 3.8 1.94 3.13 5.1 3.76 8.07a145.51 145.51 0 004.3 17 7.52 7.52 0 003.73 4.65 63.75 63.75 0 008.88 3.77 40.52 40.52 0 004.64 1.21 33.2 33.2 0 004.83.59q.58-3.56 1.18-7.11c-2.83-1.63-5.97-1.01-8.97-1.38z" fill="#c87e19"/><path class="cls-4" d="M172.48 247.83c.45 3.38-1 3.31-3.25 3.19a3.91 3.91 0 00-1.29.12 2.12 2.12 0 00-1.08.75c5.65.11 6.11.56 6.19 6.19 2.67-.69 1.68-2.59 1.39-4.25-1.21-7-.57-8.36 4.08-9.06-3.84-1.31-6.52-.24-6.04 3.06zm13.9-10.13c.27 1 .57 2 .76 3.05a9.71 9.71 0 01.13 3.14 5.36 5.36 0 001.14-.23c1.16-.33 2.34-.58 3.19 2.21a8.41 8.41 0 00-1.28-5.59 7.8 7.8 0 00-3.94-2.58z"/><path class="cls-4" d="M186.38 237.7a6.82 6.82 0 00-.33-1.25c-.42-1-1.17-1.39-2.91-.5-2.89 1.49-4.12 3.36-3 6.59.63-3.64 2.36-5.61 6.23-4.82z"/><path class="cls-5" d="M166.92 372.4l.4.05h.4c-.11-1.87-.05-3.75 0-5.63v-1.88a27.76 27.76 0 00-.74-7.47q.02 7.45-.06 14.93z"/><path class="cls-4" d="M166.88 258.09a4.41 4.41 0 01-.48-1.55c-.17-1.55.41-3.09.47-4.64-2.51 2.81-3.46 3.94-2.83 4.77a7.23 7.23 0 002.83 1.45zm5.29.91h-4.41a3.63 3.63 0 00.23 1.1 2.51 2.51 0 002.43 1.56 1.71 1.71 0 01.62-1.49 6.21 6.21 0 001.16-1.17z"/><path class="cls-7" d="M166.39 336a26.05 26.05 0 00.25-3.63 12 12 0 00-.53-3.59c-.11 2.45-.55 4.87.28 7.22z"/><path class="cls-4" d="M188.29 247a1.65 1.65 0 00-2 1.07c.87.42 1.66.46 2.24-.38a.8.8 0 00-.24-.69zm-17.89 14.66a6.43 6.43 0 00.24 1.19 1.22 1.22 0 00.93.76c.11 0 .44-.32.45-.51.09-1.13-.74-1.33-1.59-1.47zm15.97-16.85c-1.14.2-2.41-.42-4 .84a14.79 14.79 0 002.59 0 6 6 0 001.43-.8zm-9.18 8.38l.28.25.34-.19c-.1-.08-.19-.21-.29-.22s-.22.1-.33.16z"/><path class="cls-10" d="M166.88 258.09l.88.89zm5.29.91l.88-.89zm14.2-14.19c.3-.3.6-.59.89-.89l-.88.89z"/><path class="cls-13" d="M207.66 187.55l.73.59a1.34 1.34 0 000-.39c-.03-.32-.25-.42-.73-.2z"/><path class="cls-3" d="M232.59 335.42c-1.75-4.7-3.75-9.3-5.34-14.05a49.37 49.37 0 004.7 14.75c.35-.12.29-.55.64-.7z"/><path class="cls-3" d="M232.59 335.42c-.35.15-.29.55-.64.7l10.16 26.21c.33-.17.19-2.13.53-2.26l-.06-.16c-1.9-5-8.16-19.71-10-24.49z"/><path class="cls-16" d="M39.2 37.4v-3.54a1.91 1.91 0 00-.85-1.27 4.53 4.53 0 00-2.35-.32c-3.25 0-6.5.11-9.74 0-2.6-.11-3.32.58-2.61 3.31 2.46 9.41 4.62 18.89 7 28.33 1.16 4.7 4.28 5.66 8.59 2.72zm5.35 12.67v14.12c0 1.65-.58 3.84 2.34 3.61 2.15-.17 4.76 1 5.58-2.59 2.32-10.15 4.81-20.28 7.36-30.38.52-2 .08-2.64-2-2.58-3.53.1-7.06.12-10.59 0-2.12-.08-2.82.73-2.78 2.82.16 5 .09 10 .09 15z"/><path class="cls-2" d="M39.23 66.6c1.22-1 .85-2.4.85-3.67V41.05c0-.47.05-1 .05-1.45a2.54 2.54 0 00-.93-2.2zm-.03-31.01c.68-.42.86-.85.52-1.29a2 2 0 00-.5-.44z"/><path class="cls-6" d="M314.89 247.93v-86.8q0-27-.15-54c-1 1.62-.61 3.45-.61 5.18v135.53c0 1.62.14 3.24.21 4.86.99-1.51.55-3.18.55-4.77zm-.55-146.64l-.18 1.41a13.37 13.37 0 00-.1 1.4 5 5 0 00.69 2.73c.03-1.83.65-3.76-.41-5.54zm0 156.89v3.38a2.68 2.68 0 000-3.38z"/><path class="cls-4" d="M75.37 291.58c-.69-.47-.71.45-1 .85l.58.51c.45-.39.96-1 .42-1.36zm-2.02 17.31c-.1-.06-.43.27-.66.42l.54.54c.38-.29.66-.61.12-.96z"/><path class="cls-14" d="M157.3 187.4c-1.53-7.46-3-14.93-4.59-22.38-1.41-6.67-6.38-11.05-12.82-11.48a13.92 13.92 0 00-13.6 9.38 10.49 10.49 0 00-.35 1.27c-.63 2.94 0 5.86.24 8.8 2.16 6.67 3.15 13.6 4.49 20.45.54 2.79 1.76 4.06 4.61 3.53l17.43-2.28c5.92-.9 5.91-.9 4.59-7.29z"/><path class="cls-16" d="M163.17 199.49c-.25 5.66-.69 11.29-1.48 16.9l2.45.05v-22.43a7.78 7.78 0 00-.81-.17c-.01 1.88-.07 3.77-.16 5.65z"/><path class="cls-12" d="M181.06 200c0 5.85 1 6.73 6.84 6.35 1.95-.13 3.09-.56 3-3-.23-5 0-10 0-15L181 188q.06 6 .06 12z"/><path class="cls-15" d="M265.86 141.8a3.4 3.4 0 003.81-3.34c.25-2.48-1.16-3.73-3.49-4.18-2.09.21-3.59 1.08-3.78 3.41a3.44 3.44 0 003.46 4.11z"/><path class="cls-6" d="M371 271.41c0-20.23-.07-40.45.05-60.68 0-3.18-.73-4.46-4.17-4.37-8.85.22-17.71.17-26.57 0-2.95 0-4.14.67-4.13 3.89q.13 61.12 0 122.24c0 3.22 1.17 4 4.12 3.91 8.71-.16 17.43-.24 26.13 0 3.8.11 4.67-1.24 4.64-4.81-.15-20.03-.07-40.11-.07-60.18z"/><path class="cls-4" d="M443.81 219.84a8.47 8.47 0 00-8.43-8.42 8.52 8.52 0 00-3.56.81c-.15.07-.28.16-.43.24a8.31 8.31 0 00-2.31 12.89 8.32 8.32 0 006.3 2.9 8.41 8.41 0 007.6-4.84 8.29 8.29 0 00.83-3.58zm-6.86-1c-.25 1.48-.78 2.9-1.54 5.59-.8-2.71-1.28-4.06-1.57-5.44a1.62 1.62 0 011.48-2.17c1.28-.05 1.82.96 1.68 2.05z"/><path class="cls-6" d="M435.32 216.85a1.62 1.62 0 00-1.48 2.17c.29 1.38.77 2.73 1.57 5.44.76-2.69 1.29-4.11 1.54-5.59.19-1.09-.35-2.1-1.63-2.02z"/><path class="cls-4" d="M166.4 256.54a4.41 4.41 0 00.48 1.55l.88.88h4.41l.89-.88c-.08-5.63-.54-6.08-6.19-6.19-.06 1.55-.64 3.1-.47 4.64z"/><path class="cls-6" d="M72 270.73a24.36 24.36 0 00-4.29 1.61 30.55 30.55 0 00-5.92 3.81A55.35 55.35 0 0050.14 290c-1 1.7-2 3.41-2.93 5.12a121.28 121.28 0 00-8.9 21.77v.08l8.92 8.1a.41.41 0 00.69-.36l-.41-3.22-1.41-11a1 1 0 01.75-1.07 1 1 0 011.18.84l1.28 11.5.52 4.7 1.83 1.72a.64.64 0 001-.23l2.83-7.1-4-25.65a.87.87 0 011.71-.28L57.05 317l2.51-8 1.15-29.55a.76.76 0 011.51 0l-.13 21.17a.29.29 0 00.57.1l9.62-28.87.2-.6a.41.41 0 00-.48-.52zm8.66 21.87a46.13 46.13 0 00-5.31-19.8c-.22-.39-.41-.72-.57-1a.4.4 0 00-.72.08l-.3.85L61 308.23l.52 1.4 12.59-18.3a1 1 0 011.72.08 1 1 0 01-.07 1.09l-16.64 22.67-2.26 7.1a.39.39 0 00.64.41l14.76-14a1.18 1.18 0 111.64 1.7l-19 18.46a.63.63 0 00.09 1l11.37 7.4a86.94 86.94 0 0012.25-26.14 59.7 59.7 0 002.05-18.5z"/><path class="cls-4" d="M74.47 89.43l10.06-17.64-3.3-25s-14.1 14.87-17.91 36.68c-.06.38-.11.78-.17 1.17a62.71 62.71 0 00-.76 7.78c-.76 26.58 12.08-2.99 12.08-2.99z"/><path class="cls-6" d="M437.46 183c.15.37 3.91 4.58 3.91 4.58l3.54-2.51a71.36 71.36 0 00-.15-14.85 50.68 50.68 0 00-2.59-11.74l-5.59 10.24s.74 13.89.88 14.28z"/></g></g></svg>