<svg xmlns="http://www.w3.org/2000/svg" xmlns:xlink="http://www.w3.org/1999/xlink" viewBox="0 0 368.53 367.28"><defs><linearGradient id="Безымянный_градиент_25" x1="25.14" y1="323.91" x2="163.5" y2="323.91" gradientUnits="userSpaceOnUse"><stop offset="0" stop-color="#ee776d"/><stop offset=".33" stop-color="#ea7361"/><stop offset=".92" stop-color="#df6943"/><stop offset="1" stop-color="#dd683e"/></linearGradient><linearGradient id="Безымянный_градиент_25-2" x1="11.03" y1="336.09" x2="96.33" y2="336.09" xlink:href="#Безымянный_градиент_25"/><linearGradient id="Безымянный_градиент_28" x1="50.82" y1="256.16" x2="124.8" y2="256.16" gradientUnits="userSpaceOnUse"><stop offset="0" stop-color="#dd683e"/><stop offset=".98" stop-color="#ee776d"/></linearGradient><style>.cls-2{fill:#94b2de}.cls-3{fill:#f2f2f2}.cls-6,.cls-8{fill:none;stroke:#717aba;stroke-width:1.5px}.cls-6{stroke-miterlimit:10}.cls-7{fill:#717aba}.cls-8{stroke-linecap:round;stroke-linejoin:round}.cls-13{fill:#293070}.cls-14{fill:#7b8fc8}.cls-15{fill:#282b61}.cls-17{fill:#2b2f75}.cls-18{fill:#e65f53}.cls-25{fill:#30ac67}.cls-29{fill:#94b0dc}.cls-32{fill:#f18a85}.cls-35{fill:#fff}.cls-36{fill:#242857}.cls-43{fill:#fdfcfe}.cls-48{fill:#fafcfc}.cls-49{fill:#584f89}.cls-50{fill:#f39b93}.cls-51{fill:#fffbf7}.cls-54{fill:#f29091}.cls-57{fill:#292c66}</style></defs><g id="Слой_2" data-name="Слой 2"><g id="Слой_1-2" data-name="Слой 1"><path d="M333.38 61.3S309 16.59 292.74 2a7.72 7.72 0 00-12.25 2.77c-3.06 7.29-7.08 22-11 51.64l48.06 54.87 20.12-17.57z" fill="#beceeb"/><path class="cls-2" d="M353.85 188s39.57-52.62-11.2-147.29a4 4 0 00-7.15.19c-3.49 7.57-9 24.16-14.75 60"/><path class="cls-3" d="M345.64 72c.59 6.75 1 13.49 1.25 20.25s.41 13.51.34 20.29-.29 13.55-.92 20.33a113.54 113.54 0 01-3.4 20.27 2 2 0 11-3.85-1.08V152a109.31 109.31 0 003.74-19.47c.79-6.63 1.18-13.33 1.41-20s.27-13.43.16-20.15-.33-13.46-.74-20.16a1 1 0 01.93-1.06 1 1 0 011.08.84z"/><path class="cls-2" d="M353.85 188s39.57-52.62-11.2-147.29a4 4 0 00-7.15.19c-3.49 7.57-9 24.16-14.75 60"/><path class="cls-3" d="M345.64 72c.59 6.75 1 13.49 1.25 20.25s.41 13.51.34 20.29-.29 13.55-.92 20.33a113.54 113.54 0 01-3.4 20.27 2 2 0 11-3.85-1.08V152a109.31 109.31 0 003.74-19.47c.79-6.63 1.18-13.33 1.41-20s.27-13.43.16-20.15-.33-13.46-.74-20.16a1 1 0 01.93-1.06 1 1 0 011.08.84zm-45.08-26.79c1.44 6.62 2.68 13.25 3.81 19.91s2.13 13.36 2.91 20.09 1.44 13.48 1.67 20.28a112.54 112.54 0 01-.79 20.55 2 2 0 01-4-.59v-.08a110.16 110.16 0 001.23-19.79c-.06-6.68-.52-13.38-1.15-20.06s-1.43-13.35-2.4-20-2-13.3-3.3-19.89a1 1 0 012-.4z"/><ellipse cx="183.93" cy="177.94" rx="170.26" ry="157.75" fill="#4756a2"/><ellipse cx="175.25" cy="164.96" rx="135.02" ry="126.77" fill="#4a5ba5"/><ellipse class="cls-6" cx="183.93" cy="177.92" rx="42.67" ry="153.97"/><ellipse class="cls-6" cx="179.38" cy="177.92" rx="117.03" ry="153.97"/><path class="cls-7" d="M319.2 236.51l-240.26.25a.75.75 0 010-1.5l240.26.25a.5.5 0 01.5.5.5.5 0 01-.5.5z"/><path class="cls-8" d="M33.06 176.78h271.42"/><path class="cls-7" d="M48.3 115.06l32.88-.24 32.89-.09 65.77-.16 65.77.15 32.89.09 32.88.25a.5.5 0 01.5.5.5.5 0 01-.5.5l-32.88.25-32.89.09-65.77.15-65.77-.16-32.89-.09-32.88-.24a.5.5 0 01-.5-.5.5.5 0 01.5-.5z"/><path class="cls-8" d="M118.88 57.74h166.95"/><path d="M284.53 57.74h35.08v21.14h-37.05V59.71a2 2 0 011.97-1.97z" fill="#ed6f67"/><path fill="#f18884" d="M285.83 57.74h33.78v21.14h-33.78z"/><path fill="#ef7867" d="M330.26 304.89h27.33l7.18 21.42v19.39h-34.51v-40.81z"/><path d="M352.17 345.7h12.92a2.65 2.65 0 012.65 2.65v3.58a2.65 2.65 0 01-2.65 2.65h-12.92v-8.88zm-167.68 0h160.99v8.88H184.49z" fill="#e05248"/><circle class="cls-13" cx="346.37" cy="354.59" r="12.69"/><circle class="cls-14" cx="346.37" cy="354.59" r="9.91"/><circle class="cls-15" cx="346.37" cy="354.59" r="4.69"/><path d="M330.26 290.69h7.58a8.48 8.48 0 018.48 8.48v5.72h-16.06v-14.2z" fill="#e55a56"/><path class="cls-17" d="M357.24 326.28l-18.54-3.06a1.57 1.57 0 01-1.32-1.55v-13.55h16.67a1.57 1.57 0 011.53 1.21l3.42 15.06a1.56 1.56 0 01-1.76 1.89z"/><rect class="cls-18" x="337.38" y="327.93" width="6.74" height="1.95" rx=".58"/><path class="cls-18" d="M362.91 337.89h2.21a1.89 1.89 0 011.89 1.89v2.56a1.89 1.89 0 01-1.89 1.89h-2.21v-6.35.01z"/><path fill="#fbddde" d="M360.38 337.89h2.54v6.35h-2.54z"/><rect x="330.89" y="307.58" width="1.56" height="29.68" rx=".47" fill="#f2958e"/><path class="cls-17" d="M364.66 326h-1.77a1.38 1.38 0 01-1.33-1l-4.42-15.86a.78.78 0 01.76-1h.77z"/><path fill="#ef7875" d="M181.07 286.59H328.4v59.12H181.07z"/><rect x="185.66" y="289.32" width="140.49" height="53.47" rx="6.06" fill="#ee9d9d"/><circle class="cls-13" cx="297.31" cy="354.59" r="12.69"/><circle class="cls-14" cx="297.31" cy="354.59" r="9.91"/><circle class="cls-15" cx="297.31" cy="354.59" r="4.69"/><circle class="cls-13" cx="226.08" cy="354.59" r="12.69"/><circle class="cls-14" cx="226.08" cy="354.59" r="9.91"/><circle class="cls-15" cx="226.08" cy="354.59" r="4.69"/><circle class="cls-13" cx="197.18" cy="354.59" r="12.69"/><circle class="cls-14" cx="197.18" cy="354.59" r="9.91"/><circle class="cls-15" cx="197.18" cy="354.59" r="4.69"/><path d="M182.05 343l2.44 2.72v9.43h-3.42v-11.8a.56.56 0 01.98-.35z" fill="#22244e"/><path d="M257.41 324.14h61.37c.47 0 .47 0 .37.47 0 .17-.13.19-.27.2l-1.86.09-4.6.25-3.68.18-4.78.25-3.27.16c-1.47.08-2.94.17-4.42.24l-2.67.12-4.39.24-3.44.17-6.14.32-2.18.11-4.91.26-4.78.23-3.05.16c-1.41.06-2.81.15-4.22.23l-3.82.19-2.81.13-4.64.26-4.77.23-5.41.28-3.16.16c-1.54.07-3.09.17-4.63.25l-4.39.22c-1.34.06-2.67.14-4 .21l-3.13.15-4 .21-5.44.28-5.38.28-3.16.16c-1.2.05-2.41.13-3.61.19-1 .05-2.08.12-3.13.16-.21 0-.41 0-.62.06s-.24 0-.2-.21.13-.64.2-1c.36-1.78.73-3.56 1.09-5.34 0-.1.05-.2.07-.31.06-.28.06-.28.32-.28h61.54zM207 322.15a4 4 0 01-2.16-.6 4.4 4.4 0 01-1.55-1.6 4.23 4.23 0 01-.58-2.2v-1c0-.08 0-.11.1-.11h2.46c.05 0 .08 0 .08.11v1a1.72 1.72 0 00.49 1.24 1.56 1.56 0 002.32 0 1.76 1.76 0 00.48-1.23c0-.54-.35-1-1.05-1.4l-1.1-.61-1.4-.79a4.56 4.56 0 01-1.78-1.76 4.9 4.9 0 01-.58-2.4 4.1 4.1 0 01.59-2.2 4.34 4.34 0 011.56-1.54 4.14 4.14 0 012.12-.57 4.06 4.06 0 012.13.58 4.37 4.37 0 011.56 1.55 4.26 4.26 0 01.58 2.18v1.8c0 .05 0 .08-.09.08h-2.45c-.06 0-.09 0-.09-.08v-1.8a1.66 1.66 0 00-.49-1.25 1.55 1.55 0 00-1.13-.48 1.5 1.5 0 00-1.16.52 1.67 1.67 0 00-.49 1.21 2.23 2.23 0 00.31 1.2 2.84 2.84 0 001.12.92c.07 0 .21.12.42.23s.45.24.69.38l.67.36.36.19a5.21 5.21 0 011.73 1.5 3.63 3.63 0 01.64 2.18 4.49 4.49 0 01-.58 2.25 4.35 4.35 0 01-1.56 1.57 4.1 4.1 0 01-2.17.57zm5.89-.22c-.06 0-.09 0-.09-.11v-15s0-.08.09-.08h2.67a.19.19 0 01.15.08l2 2.89 2-2.89a.19.19 0 01.15-.08h2.69c.06 0 .09 0 .09.08l.05 15c0 .08 0 .11-.09.11h-2.48c-.05 0-.08 0-.08-.11v-11.16l-2.3 3.33-2.28-3.33v11.16c0 .08 0 .11-.09.11zm10.92-.11l2.72-15a.1.1 0 01.1-.08h3.18a.11.11 0 01.11.08l2.6 15c0 .08 0 .11-.08.11H230c-.06 0-.1 0-.11-.11l-.24-1.59h-3l-.24 1.59c0 .08-.05.11-.11.11h-2.4c-.06 0-.09-.03-.09-.11zm3.31-3.94h2.1l-.9-6.15-.13-.81-.09.81zm6.88 4.05c-.06 0-.09 0-.09-.11v-15a.07.07 0 01.08-.08h4.43a4.2 4.2 0 012.17.58 4.3 4.3 0 011.59 1.55 4.1 4.1 0 01.59 2.2 4.18 4.18 0 01-.24 1.46 4.46 4.46 0 01-.57 1.09 3.8 3.8 0 01-.59.67 4.46 4.46 0 011.18 3.09v4.48a.1.1 0 01-.11.11H240q-.09 0-.09-.06v-4.53a1.91 1.91 0 00-.55-1.37 1.83 1.83 0 00-1.37-.58h-1.45v6.43c0 .08 0 .11-.09.11zm2.58-9.17h1.89a1.71 1.71 0 001.2-.5 1.66 1.66 0 00.53-1.23 1.62 1.62 0 00-.52-1.2 1.66 1.66 0 00-1.21-.51h-1.89zm9.63 9.17c-.06 0-.09 0-.09-.11v-12.47h-2.84a.1.1 0 01-.11-.11v-2.46s0-.08.09-.08h8.31c.08 0 .11 0 .11.08v2.46c0 .07 0 .11-.08.11h-2.87v12.47c0 .08 0 .11-.09.11z" fill="#386ab2"/><path class="cls-25" d="M251.64 321.93c-.06 0-.08 0-.08-.11v-15a.07.07 0 01.08-.08h7c.06 0 .09 0 .09.11v2.45a.08.08 0 01-.09.09h-4.44v3.41h2.86v2.65h-2.86v3.83h4.51c.06 0 .09 0 .09.11v2.5s0 .08-.09.08z"/><path class="cls-25" d="M258.66 321.93c-.06 0-.08 0-.07-.11l2.5-7.81-2.45-7.23s0-.08.06-.08h2.45c.08 0 .12 0 .13.08l1.47 5.21 1.49-5.21s.06-.08.13-.08h2.43c.06 0 .08 0 .07.08l-2.46 7.22 2.48 7.83c0 .08 0 .11-.07.11h-2.45c-.06 0-.1 0-.13-.11l-1.49-5.64-1.51 5.64a.12.12 0 01-.13.11zm10.01 0a.1.1 0 01-.11-.11l.05-15s0-.08.08-.08h4.21a4.21 4.21 0 013.18 1.22 4.63 4.63 0 011.17 3.33 5.57 5.57 0 01-.61 2.69 4.46 4.46 0 01-1.6 1.75 4 4 0 01-2.14.62h-1.67v5.51c0 .08 0 .11-.11.11zm2.56-8.27h1.67a1.49 1.49 0 001.21-.67 2.77 2.77 0 00.52-1.74 2.12 2.12 0 00-.46-1.4 1.56 1.56 0 00-1.27-.55h-1.67zm7.6 8.27c-.06 0-.09 0-.09-.11l.05-15s0-.08.08-.08h4.42a4.21 4.21 0 012.18.58 4.3 4.3 0 011.59 1.55 4.46 4.46 0 01.35 3.66 4.46 4.46 0 01-.57 1.09 3.8 3.8 0 01-.59.67 4.46 4.46 0 011.18 3.09v4.48c0 .08 0 .11-.11.11h-2.47q-.09 0-.09-.06v-4.53a1.91 1.91 0 00-.55-1.37 1.83 1.83 0 00-1.37-.58h-1.45v6.43c0 .08 0 .11-.09.11zm2.58-9.17h1.88a1.71 1.71 0 001.21-.5 1.65 1.65 0 00.5-1.26 1.61 1.61 0 00-.51-1.2 1.67 1.67 0 00-1.22-.51h-1.88zm7.97 9.17c-.06 0-.09 0-.09-.11v-15s0-.08.09-.08h7c.06 0 .09 0 .09.11v2.45a.08.08 0 01-.09.09h-4.49v3.41h4.49a.08.08 0 01.09.09v2.47a.08.08 0 01-.09.09h-4.51v3.83h4.51c.06 0 .09 0 .09.11v2.5s0 .08-.09.08zm12.7.22a4 4 0 01-2.16-.6 4.4 4.4 0 01-1.55-1.6 4.23 4.23 0 01-.58-2.2v-1c0-.08 0-.11.11-.11h2.45c.06 0 .09 0 .09.11v1a1.75 1.75 0 00.48 1.24 1.54 1.54 0 001.16.51 1.52 1.52 0 001.16-.52 1.76 1.76 0 00.48-1.23c0-.54-.35-1-1.05-1.4l-1.1-.61-1.4-.79a4.63 4.63 0 01-1.78-1.76 4.9 4.9 0 01-.58-2.4 4.19 4.19 0 01.59-2.2 4.37 4.37 0 011.57-1.54 4.2 4.2 0 014.24 0 4.37 4.37 0 011.56 1.55 4.26 4.26 0 01.58 2.18v1.8c0 .05 0 .08-.09.08h-2.45c-.06 0-.09 0-.09-.08v-1.8a1.7 1.7 0 00-.48-1.25 1.56 1.56 0 00-1.14-.48 1.52 1.52 0 00-1.16.52 1.7 1.7 0 00-.48 1.21 2.23 2.23 0 00.3 1.2 2.92 2.92 0 001.12.92 4.18 4.18 0 00.43.23l.69.38.66.36.36.19a5.21 5.21 0 011.73 1.5 3.63 3.63 0 01.64 2.18 4.33 4.33 0 01-2.14 3.82 4.05 4.05 0 01-2.17.59zm9.3 0a4 4 0 01-2.15-.6 4.51 4.51 0 01-1.56-1.6 4.33 4.33 0 01-.58-2.2v-1a.1.1 0 01.11-.11h2.45c.06 0 .09 0 .09.11v1a1.75 1.75 0 00.48 1.24 1.54 1.54 0 001.16.51 1.52 1.52 0 001.16-.52 1.76 1.76 0 00.48-1.23c0-.54-.35-1-1-1.4l-1.09-.61-1.4-.79a4.66 4.66 0 01-1.79-1.76 5 5 0 01-.58-2.4 4.19 4.19 0 01.59-2.2 4.45 4.45 0 011.57-1.54 4.21 4.21 0 014.25 0 4.34 4.34 0 011.55 1.55 4.16 4.16 0 01.58 2.18v1.8c0 .05 0 .08-.09.08h-2.45c-.06 0-.09 0-.09-.08v-1.8a1.7 1.7 0 00-.48-1.25 1.56 1.56 0 00-1.14-.48 1.52 1.52 0 00-1.16.52 1.7 1.7 0 00-.48 1.21 2.14 2.14 0 00.31 1.2 2.8 2.8 0 001.11.92l.43.23.69.38.67.36.36.19a5.21 5.21 0 011.73 1.5 3.69 3.69 0 01.63 2.18 4.39 4.39 0 01-.58 2.25 4.25 4.25 0 01-1.55 1.57 4.11 4.11 0 01-2.23.59z"/><path d="M323.94 198.72h-45.1l-10.74 18.81h7.22l2.8-4.95h47.32l2.47 4.95h6.84zm-43.15 8.66l2.93-6.45h34.88l3.65 6.45z" fill="#96b0dd"/><path fill="#272a60" d="M275.78 192.47h49.66v6.25h-49.66z"/><path d="M325 194h-48.78a3.48 3.48 0 01-3.46-3.75l4.12-50.47a3.47 3.47 0 013.46-3.18h40.2a3.45 3.45 0 013.45 3.16l4.47 50.47A3.47 3.47 0 01325 194z" fill="#232551"/><path class="cls-29" d="M319.3 163.77h-15.13a1.45 1.45 0 01-1.45-1.45v-19.43a1.45 1.45 0 011.45-1.45h13.43a1.46 1.46 0 011.45 1.33l1.7 19.42a1.46 1.46 0 01-1.45 1.58zm-37.87 0h15.12a1.45 1.45 0 001.45-1.45v-19.43a1.45 1.45 0 00-1.45-1.45h-13.42a1.46 1.46 0 00-1.45 1.33L280 162.19a1.46 1.46 0 001.43 1.58z"/><path fill="#f08999" d="M296.41 134.28h8.07v4.69h-8.07z"/><path d="M326.25 165.33H274.8l-.31 3.76h52.09l-.33-3.76zm.87 9.57h-53.1l-.31 3.75h53.72l-.31-3.75z" fill="#f08583"/><ellipse class="cls-32" cx="314.44" cy="188.01" rx="4.16" ry="3.42"/><ellipse class="cls-32" cx="285.38" cy="188.01" rx="4.16" ry="3.42"/><path d="M310.67 101.87s2.73-6.67 15-12.24l8.53-14.06-20.62-.13-1.68 3.26h-46.02s-6.19-.41-8.73-8.59h-52.38s0 7.76 15.62 12.85c0 0 7.87 3.71 8.46 11.83l1 7.08z" fill="#682b6e"/><path d="M310.67 101.87s2.73-6.32 15-11.59l7.68-13.41h-19.04l-1.63 3.06h-46.8s-6.7-.39-9.24-8.13h-51.55s-.32 7.35 15.3 12.17c0 0 7.87 3.51 8.46 11.19l1 6.71z" fill="#2b2f72"/><circle class="cls-35" cx="310.14" cy="86.04" r="2.87"/><circle class="cls-36" cx="310.14" cy="86.04" r="2.41"/><circle class="cls-35" cx="310.14" cy="86.04" r="2.87"/><circle class="cls-36" cx="310.14" cy="86.04" r="2.41"/><circle class="cls-35" cx="302.35" cy="86.04" r="2.87"/><circle class="cls-36" cx="302.35" cy="86.04" r="2.41"/><circle class="cls-35" cx="302.35" cy="86.04" r="2.87"/><circle class="cls-36" cx="302.35" cy="86.04" r="2.41"/><circle class="cls-35" cx="294.55" cy="86.04" r="2.87"/><circle class="cls-36" cx="294.55" cy="86.04" r="2.41"/><circle class="cls-35" cx="294.55" cy="86.04" r="2.87"/><circle class="cls-36" cx="294.55" cy="86.04" r="2.41"/><circle class="cls-35" cx="247.9" cy="76.57" r="2.87"/><circle class="cls-36" cx="247.9" cy="76.57" r="2.41"/><circle class="cls-35" cx="247.9" cy="76.57" r="2.87"/><circle class="cls-36" cx="247.9" cy="76.57" r="2.41"/><circle class="cls-35" cx="240.11" cy="76.57" r="2.87"/><circle class="cls-36" cx="240.11" cy="76.57" r="2.41"/><circle class="cls-35" cx="240.11" cy="76.57" r="2.87"/><circle class="cls-36" cx="240.11" cy="76.57" r="2.41"/><circle class="cls-35" cx="232.31" cy="76.57" r="2.87"/><circle class="cls-36" cx="232.31" cy="76.57" r="2.41"/><circle class="cls-35" cx="232.31" cy="76.57" r="2.87"/><circle class="cls-36" cx="232.31" cy="76.57" r="2.41"/><rect class="cls-35" x="267.84" y="81.45" width="45.76" height="1.05" rx=".31"/><rect class="cls-35" x="211.28" y="72.12" width="39.7" height="1.05" rx=".31"/><path d="M220.27 61.3h35.39v8.8h-35.39zm2.44-21.48h27.14v18.45h-27.14z" fill="#f18d89"/><path d="M227.84 64.48h2.83v5.63h-2.83zm5.47 0h2.83v5.63h-2.83zm5.47 0h2.83v5.63h-2.83zm5.46 0h2.83v5.63h-2.83zm-17.72-22.05h2.83v5.63h-2.83zm5.47 0h2.83v5.63h-2.83zm5.47 0h2.83v5.63h-2.83zm5.47 0h2.83v5.63h-2.83z" fill="#e55d56"/><rect x="219.3" y="58.28" width="37.34" height="3.03" rx=".9" fill="#e0554e"/><path d="M246 36.06h1.28a.95.95 0 01.95.95v2.81H245V37a.95.95 0 011-.94zm-20.29 0H227a.95.95 0 01.95.95v2.81h-3.17V37a.95.95 0 01.93-.94zm14.58-9.03h1.66v12.79h-1.66z" fill="#1f1b3f"/><path class="cls-29" d="M139.35 140.4s8.81 5.34 11.54-3.35a3.62 3.62 0 01.13-.35c.72-1.57 6.26-12.33 16.8 1.33a3.43 3.43 0 001.54 1.14c2.77 1 10.86 3.29 16.86-2.84a3.53 3.53 0 011.27-.86c1.65-.61 5.68-1.48 11.23 1.49a3.38 3.38 0 002 .37c2.71-.31 9.93-.88 13.92 1.31a3.42 3.42 0 01.73 5.4 36.82 36.82 0 01-5.46 4.33 3.42 3.42 0 00-1.41 3.64 8.76 8.76 0 002.17 4.12 3.45 3.45 0 011 2.28 8.37 8.37 0 01-.6 3.37 3.77 3.77 0 00.16 2.89c.34.75.28 1.76-1.44 2.74 0 0-6.72 5.3-29.82 2.57a3.4 3.4 0 01-.46-.09c-1.75-.44-14-3-15.9 11.27a3.34 3.34 0 01-2.38 2.85 2.37 2.37 0 01-2.88-1.5 3.28 3.28 0 00-2-1.69c-3.44-1-11.45-4-7.69-9a3.43 3.43 0 00.48-3.27c-.81-2.14-3-4.92-8.67-3.78l-.38.1c-1.18.37-8 2.28-3.84-4a3.43 3.43 0 00-1.8-5.2 22.7 22.7 0 00-7.35-.68 3.42 3.42 0 01-3.15-1.86c-1.33-2.58-2.87-6.76 1.14-6.62 0 0 4.52.18 5.83-3.79a3.38 3.38 0 01.87-1.36 6 6 0 017.56-.96z"/><circle cx="158.75" cy="162.46" r="7.88" fill="#ed6f62"/><path d="M164.87 154.59s8.1-25.09 40.22-35.93m-36.32 42.57s38.67-16.31 77.62-12.79m-91.19 22.84s-8.49 15.23-8.49 29.59m4.29-44.33a63.55 63.55 0 00-27.88-14.35m32.18 11.23s-10.25-33.2-21.48-54.87" stroke-dasharray="2" stroke="#ed6f63" stroke-linecap="round" stroke-miterlimit="10" fill="none"/><circle class="cls-43" cx="218.86" cy="113.58" r="6.35"/><circle class="cls-43" cx="125.23" cy="87.81" r="6.35"/><circle class="cls-43" cx="110.78" cy="137.54" r="6.35"/><circle class="cls-43" cx="146.12" cy="217.56" r="6.35"/><circle class="cls-43" cx="262.89" cy="149.37" r="6.35"/><path d="M149.72 201.07l-2.95 4.74-3.07-4.74m60.87-85.51l6.02 1.2-3.69 5m41.76 24.26l4.09 2.85-4.37 2.52M130.71 97.98l-.32-4.4 4.17 1.6m-13.5 49.14l-2.83-3.39 4.32-1.13" stroke="#ed6f63" stroke-linejoin="round" stroke-linecap="round" fill="none"/><path d="M68.41 231.13s-21-33.65-34.79-46.88a6.71 6.71 0 00-11.16 3.28c-2.38 9.88-5 28.67-2.09 58.07l18.06 14.31 5.31 20.14 32.93 10.25-12.56-40.23z" fill="#94b1dd"/><path class="cls-3" d="M33.54 211.07c2.3 6.89 4.88 13.71 7.78 20.35 1.44 3.33 3 6.59 4.72 9.75a42.72 42.72 0 005.9 8.73 1.5 1.5 0 11-2.2 2.05v-.05a45.48 45.48 0 01-5.89-9.61c-1.62-3.32-3-6.7-4.35-10.13-2.63-6.84-4.89-13.79-6.88-20.82a.49.49 0 01.34-.62.5.5 0 01.61.32z"/><path d="M0 236.93s35.08 8.67 46.65 28.29c.12.2.23.4.34.6 11.2 20.05 12.15 22.79 12.15 22.79L38.4 298.5l-7.68-2.74S13 244.22 0 237.77" fill="#bfcbe9"/><path class="cls-3" d="M24 253.9q7 6 13.7 12.34c4.47 4.22 8.89 8.51 13 13.16a1 1 0 01-.09 1.41 1 1 0 01-1.41-.09c-3.9-4.65-8.18-9.05-12.51-13.37s-8.8-8.54-13.32-12.67a.51.51 0 010-.71.5.5 0 01.63-.07z"/><path d="M47.34 283.34l96.66-1.93c10.68-.21 19.47 7 19.47 16v53.05c0 8.82-8.51 16-19 16H44.16c-10.95 0-19.63-7.74-19-16.92l3.62-51.13c.61-8.34 8.67-14.87 18.56-15.07z" fill="url(#Безымянный_градиент_25)"/><path class="cls-48" d="M140.55 318.87l.28-17.24a4.57 4.57 0 00-4.57-4.64H123a4.57 4.57 0 00-4.54 4.05l-1.77 15.54a4.57 4.57 0 004 5.06l14.76 1.69a4.57 4.57 0 005.1-4.46z"/><rect class="cls-49" x="122.86" y="302.53" width="2.31" height="13.7" rx=".69"/><rect class="cls-49" x="125.92" y="301.38" width="2.31" height="16.01" rx=".69"/><rect class="cls-49" x="128.96" y="302.13" width="2.31" height="14.5" rx=".69" transform="rotate(-180 130.11 309.385)"/><rect class="cls-49" x="131.82" y="303.11" width="2.31" height="12.55" rx=".69" transform="rotate(180 132.97 309.385)"/><rect class="cls-49" x="134.84" y="300.58" width="2.31" height="17.61" rx=".69" transform="rotate(-180 135.995 309.385)"/><path class="cls-50" d="M101.76 282.23l-.07 45.29a3.6 3.6 0 01-3.22 3.57l-12.6 1.3a3.59 3.59 0 01-4-3.79l2.8-46z"/><path class="cls-51" d="M91.83 282.46l3.54-.08-1.54 40a1.57 1.57 0 01-1.57 1.51 1.56 1.56 0 01-1.57-1.61z"/><path d="M24.71 306.31l59.62-1.41a11.73 11.73 0 0112 11.72v38.93a11.73 11.73 0 01-11.73 11.73H22.76a11.73 11.73 0 01-11.71-12.42l2.24-37.52a11.73 11.73 0 0111.42-11.03z" fill="url(#Безымянный_градиент_25-2)"/><path class="cls-48" d="M87.6 332.39l.21-12.65a3.36 3.36 0 00-3.35-3.41h-9.74a3.35 3.35 0 00-3.33 3l-1.3 11.4a3.35 3.35 0 003 3.71l10.83 1.25a3.35 3.35 0 003.68-3.3z"/><rect class="cls-49" x="74.62" y="320.4" width="1.69" height="10.06" rx=".51"/><rect class="cls-49" x="76.87" y="319.55" width="1.69" height="11.75" rx=".51"/><rect class="cls-49" x="79.1" y="320.11" width="1.69" height="10.64" rx=".51" transform="rotate(-180 79.945 325.43)"/><rect class="cls-49" x="81.2" y="320.82" width="1.69" height="9.21" rx=".51" transform="rotate(180 82.045 325.43)"/><rect class="cls-49" x="83.42" y="318.97" width="1.69" height="12.92" rx=".51" transform="rotate(180 84.265 325.43)"/><path class="cls-50" d="M59.14 305.5v33.24a2.64 2.64 0 01-2.37 2.62l-9.24.95a2.63 2.63 0 01-2.9-2.78l2.06-33.74z"/><path class="cls-51" d="M51.86 305.67l2.59-.06L53.32 335a1.16 1.16 0 01-1.15 1.11A1.15 1.15 0 0151 334.9z"/><path d="M62.69 230.34l51.7-1.23a10.18 10.18 0 0110.41 10.17V273a10.17 10.17 0 01-10.17 10.17H61a10.17 10.17 0 01-10.15-10.77l1.94-32.54a10.16 10.16 0 019.9-9.52z" fill="url(#Безымянный_градиент_28)"/><path class="cls-48" d="M117.23 253l.19-11a2.92 2.92 0 00-2.91-2.95h-8.45a2.91 2.91 0 00-2.89 2.58L102 251.5a2.91 2.91 0 002.56 3.21l9.39 1.08a2.9 2.9 0 003.28-2.79z"/><rect class="cls-49" x="105.98" y="242.55" width="1.47" height="8.72" rx=".44"/><rect class="cls-49" x="107.92" y="241.82" width="1.47" height="10.19" rx=".44"/><rect class="cls-49" x="109.86" y="242.3" width="1.47" height="9.23" rx=".44" transform="rotate(-180 110.59 246.915)"/><rect class="cls-49" x="111.68" y="242.92" width="1.47" height="7.99" rx=".44" transform="rotate(180 112.41 246.915)"/><rect class="cls-49" x="113.6" y="241.31" width="1.47" height="11.21" rx=".44" transform="rotate(180 114.335 246.915)"/><path class="cls-50" d="M92.54 229.63v28.83a2.29 2.29 0 01-2 2.27l-8 .83a2.29 2.29 0 01-2.51-2.42l1.78-29.25z"/><path class="cls-51" d="M86.23 229.78l2.25-.05-1 25.47a1 1 0 01-1 1 1 1 0 01-1-1z"/><path class="cls-54" d="M151.26 58.28s.16-5.93-9.2-5.54a3.71 3.71 0 01-1.55-.24l-9.77-3.82a12.25 12.25 0 00-7.4-.5L87.8 56.83l-3.75-2.17a1.88 1.88 0 00-1.35-.21l-9.91 2.26a1.87 1.87 0 00-1 3.07l1 1.15L48.5 68a5.86 5.86 0 01-4.18-.34L29.5 60.53a4.06 4.06 0 01-1.5-1.29L20.47 48.8a4.76 4.76 0 00-5.65-1.63l-6 2.45a2.19 2.19 0 00-1.32 2.5L13 76.94s-4 .52-2.69 2.86c0 0 .56 1.7 6 1l28.81 6a35.18 35.18 0 0012.53.36 327 327 0 0047.51-11.06S137 67 146.42 63.11c0 0 4.91-2.05 4.84-4.83z"/><path d="M141.26 52.7l-16 6.1a1 1 0 01-1.31-.9v-1.1a2.6 2.6 0 011.68-2.43l9.93-3.79z" fill="#2a2e6b"/><path d="M93.73 73l-19 27.8a4.61 4.61 0 01-3.13 1.94L55.64 105a.81.81 0 01-.84-1.17L68 78.31zM8.6 57.14l2.66-.83 4.36 17.11-3.22 1-3.8-17.28zm26.09 19.15l-8 11.41A3 3 0 0124.1 89l-6.1-.19a2.68 2.68 0 01-2.52-3.4L17 80.06z" fill="#ee7063"/><ellipse class="cls-57" cx="116.74" cy="59.72" rx="1.63" ry="2.28"/><ellipse class="cls-57" cx="110.88" cy="60.54" rx="1.63" ry="2.28"/><ellipse class="cls-57" cx="104.95" cy="62.59" rx="1.63" ry="2.28"/><ellipse class="cls-57" cx="98.93" cy="63.76" rx="1.63" ry="2.28"/><ellipse class="cls-57" cx="93.14" cy="64.87" rx="1.63" ry="2.28"/><ellipse class="cls-57" cx="87.09" cy="66.56" rx="1.63" ry="2.28"/><ellipse class="cls-57" cx="80.81" cy="68.02" rx="1.63" ry="2.28"/><ellipse class="cls-57" cx="74.4" cy="69.68" rx="1.63" ry="2.28"/><ellipse class="cls-57" cx="68.9" cy="71.34" rx="1.63" ry="2.28"/><ellipse class="cls-57" cx="62.87" cy="73" rx="1.63" ry="2.28"/><ellipse class="cls-57" cx="56.63" cy="73.75" rx="1.63" ry="2.28"/><path class="cls-54" d="M95.4 78.83s-2.27-1.44-5.92.38L78.57 95.12s10.49 4.45 19.27-2.92c0 0 4.24-7.56-2.3-13.18"/><path d="M98.48 85.17s-3.15-8.62-6-4.9a4.13 4.13 0 00-.68 3.41c.62 2.75 1.86 7.88 5.59 8.28" stroke="#ee7064" stroke-width=".8" stroke-linejoin="round" stroke-linecap="round" fill="none"/></g></g></svg>