<svg xmlns="http://www.w3.org/2000/svg" viewBox="0 0 624.66 657.8"><defs><style>.cls-4{fill:#ccb498}.cls-5{fill:#ddcdb6}.cls-8{fill:#464646}.cls-9{fill:#e2e1e1}.cls-13{fill:#191919}.cls-14{fill:#eb701d}.cls-15{fill:#0e0405}.cls-18{fill:#d02c29}.cls-19{fill:#c5c8ca}.cls-21{fill:#30ac67}.cls-27{fill:#f49a72}.cls-30{fill:#efefef}.cls-31{fill:#395990}.cls-32{fill:#e87730}.cls-33{fill:#f0a772}.cls-34{fill:#ddcdb7}.cls-35{fill:#181717}.cls-36{fill:#304b7b}.cls-37{fill:#fffffe}.cls-38{fill:#080505}.cls-39{fill:#ceb596}.cls-40{fill:#ddc8ad}.cls-46{fill:#f8eadf}.cls-47{fill:#393838}</style></defs><g id="Слой_2" data-name="Слой 2"><g id="Слой_1-2" data-name="Слой 1"><path fill="#e48e5a" d="M498.49 67.72l.37 9.83-3.23 7.79h-12.58l-1.25-4-.98-3.67V64.01l4.04-7.75 10.41 4.27 3.05 6.75.17.44z"/><path d="M480.82 77.67l-25.57 5.75-5.53 23.46a2.66 2.66 0 001.87 3.17l11.41 3.18a3.45 3.45 0 012.44 2.6 164.13 164.13 0 013 45.37s20.87 9.48 47.89 0l3.42-75-20.86-8.51-3.17 4.16a7.06 7.06 0 01-10.94.36z" fill="#ed6f22"/><path d="M474.89 51.41s-1.57 18.17 3.8 16.47c0 0 4.48 0 5-2.46L486 53.94v-4.87s-9.53-2.07-11.11 2.34z" fill="#502d1b"/><path class="cls-4" d="M532.1 124.06l46.67-32.08 5.96 35.24-50.41 33.98-2.22-37.14z"/><path class="cls-5" d="M578.77 91.98l-37.98-7.27-43.55 27.97 34.86 11.38 46.67-32.08z"/><path fill="#bc9b7e" d="M534.32 161.2l-31.14-10.91-5.94-37.61 34.86 11.38 2.22 37.14z"/><path fill="#f2ddc8" d="M558.05 106.22l3.19 16.63-4.85-2.64-1.79 6.38-3.39-15.67 6.84-4.7z"/><path class="cls-8" d="M47.72 159.51h401.41v47.36H47.72z"/><path class="cls-9" d="M180.5 0h265.45a3.19 3.19 0 013.19 3.19v195.3H177.31V3.19A3.19 3.19 0 01180.5 0z"/><path d="M87.17 59.88l-34.35 48.41a27.6 27.6 0 00-5.1 16v74.21H160v-23.82l14.75-14.75V51.63h-71.6a19.58 19.58 0 00-15.98 8.25z" fill="#d36217"/><path d="M155.82 55.79v57.05l-93.2 17.47A6.67 6.67 0 0155 122a61.41 61.41 0 0110-20.53l27.64-37.23a21 21 0 0116.82-8.45z" fill="#b2dde3"/><path fill="#323232" d="M155.82 55.79v57.05l-10.39 1.95v-59h10.39z"/><circle class="cls-13" cx="132.01" cy="198.49" r="37.3"/><circle class="cls-14" cx="132.01" cy="198.49" r="23.81"/><circle class="cls-15" cx="132.01" cy="198.49" r="6.53"/><circle class="cls-13" cx="382.97" cy="198.49" r="37.3"/><circle class="cls-14" cx="382.97" cy="198.49" r="23.81"/><circle class="cls-15" cx="382.97" cy="198.49" r="6.53"/><path d="M162.3 137.81v6.48a1.18 1.18 0 01-1.26 1.1H146a1.12 1.12 0 01-1.12-1.61l3.83-6.48a1.29 1.29 0 011.12-.6H161a1.19 1.19 0 011.3 1.11z" fill="#30140c"/><rect class="cls-13" x="65.58" y="134.49" width="8.22" height="15.17" rx="1.06"/><rect class="cls-13" x="72.22" y="65.43" width="20.7" height="39.51" rx="1.41"/><path fill="none" stroke="#191919" stroke-miterlimit="10" d="M81.86 101.93L71.43 126.9l-1.74 7.59v8.53"/><path class="cls-18" d="M44.67 161.2h3.06v18.33h-4.19a.88.88 0 01-.87-.87V163.2a2 2 0 012-2z"/><path class="cls-19" d="M44.2 179.53h3.53v15.8H44.2a1.53 1.53 0 01-1.53-1.53v-12.74a1.53 1.53 0 011.53-1.53z"/><path class="cls-18" d="M451.13 177h3.06v18.33H450a.87.87 0 01-.87-.87V179a2 2 0 012-2z" transform="rotate(180 451.665 186.165)"/><path class="cls-19" d="M450.67 161.2h3.53V177h-3.53a1.53 1.53 0 01-1.53-1.53v-12.74a1.53 1.53 0 011.53-1.53z" transform="rotate(180 451.665 169.1)"/><path d="M312.91 95h116.45c.9 0 .9 0 .71.89-.08.33-.25.37-.51.38l-3.53.17-8.73.49c-2.33.12-4.66.21-7 .33l-9.06.48c-2.06.11-4.13.19-6.19.3-2.8.15-5.6.32-8.4.46-1.68.09-3.37.15-5.06.23-2.78.14-5.55.31-8.33.45l-6.53.32-11.66.62-4.13.19-9.33.5c-3 .16-6 .28-9.06.45-1.93.1-3.87.2-5.8.28-2.66.13-5.33.3-8 .44q-3.63.19-7.26.36c-1.78.09-3.56.16-5.34.26-2.93.15-5.86.33-8.79.48s-6 .3-9.06.45l-10.26.53q-3 .17-6 .3c-2.93.13-5.86.33-8.79.48-2.78.15-5.55.27-8.33.41l-7.59.4-5.93.29-7.6.4-10.33.53-10.19.53q-3 .17-6 .3c-2.29.1-4.57.25-6.86.36-2 .1-4 .23-5.93.3-.4 0-.79.07-1.19.12s-.44 0-.38-.39c.12-.61.26-1.22.38-1.83q1-5.07 2.08-10.13c0-.2.09-.39.13-.59.11-.53.11-.53.61-.54h116.79zm-95.71-3.78a7.64 7.64 0 01-4.09-1.14 8.56 8.56 0 01-3-3 8.18 8.18 0 01-1.1-4.18V81a.19.19 0 01.21-.21h4.65c.11 0 .17.07.17.21v1.91a3.3 3.3 0 00.91 2.35 2.94 2.94 0 004.4 0 3.33 3.33 0 00.92-2.33c0-1-.67-1.91-2-2.66l-2.07-1.16c-.95-.52-1.83-1-2.66-1.49a8.73 8.73 0 01-3.39-3.35 9.37 9.37 0 01-1.1-4.55 7.85 7.85 0 011.12-4.17 8.42 8.42 0 013-2.93 8 8 0 018.06 0 8.34 8.34 0 012.95 3 7.86 7.86 0 011.1 4.13v3.41c0 .11-.05.17-.16.17h-4.66c-.11 0-.16-.06-.16-.17v-3.41a3.21 3.21 0 00-.92-2.37 3 3 0 00-2.16-.91 2.91 2.91 0 00-2.2 1 3.25 3.25 0 00-.91 2.3 4.16 4.16 0 00.58 2.29 5.47 5.47 0 002.12 1.74c.13.09.4.23.81.44l1.3.7c.48.27.9.5 1.27.69s.6.32.69.37a10 10 0 013.28 2.85 6.93 6.93 0 011.2 4.13 8.25 8.25 0 01-1.1 4.26 8.14 8.14 0 01-3 3 7.77 7.77 0 01-4.06.98zm11.22-.41c-.11 0-.17-.07-.17-.21l.08-28.54a.15.15 0 01.17-.17h5.07a.36.36 0 01.29.17l3.78 5.48 3.78-5.48a.36.36 0 01.29-.17h5.11a.15.15 0 01.17.17l.08 28.54c0 .14-.06.21-.17.21h-4.69c-.11 0-.17-.07-.17-.21V69.41l-4.36 6.32-4.32-6.32V90.6c0 .14-.06.21-.17.21zm20.73-.21l5.15-28.54a.2.2 0 01.21-.17h6a.2.2 0 01.21.17l4.94 28.54c0 .14 0 .21-.16.21h-4.6c-.11 0-.18-.07-.2-.21l-.46-3h-5.65l-.46 3c0 .14-.09.21-.2.21h-4.62c-.11 0-.16-.07-.16-.21zm6.27-7.48h4l-1.7-11.67-.25-1.54-.17 1.54zm13.05 7.69c-.12 0-.17-.07-.17-.21l.08-28.54a.15.15 0 01.17-.17h8.39a8.08 8.08 0 014.13 1.1 8.54 8.54 0 013 2.95 8.42 8.42 0 01.66 6.94 8.28 8.28 0 01-1.06 2.12 7.6 7.6 0 01-1.12 1.27 8.48 8.48 0 012.24 5.85v8.52a.18.18 0 01-.2.21h-4.7c-.11 0-.17 0-.17-.13v-8.6a3.63 3.63 0 00-1.05-2.59 3.46 3.46 0 00-2.6-1.1h-2.74v12.21c0 .14-.06.21-.17.21zm4.9-17.41h3.57a3.21 3.21 0 002.28-1 3.2 3.2 0 000-4.62 3.23 3.23 0 00-2.31-1h-3.57zm18.28 17.41c-.11 0-.16-.07-.16-.21V66.92h-5.4a.19.19 0 01-.21-.21v-4.65a.15.15 0 01.17-.17h15.78c.14 0 .21.06.21.17v4.65c0 .14-.06.21-.17.21h-5.44V90.6c0 .14-.05.21-.16.21z" fill="#386ab2"/><path class="cls-21" d="M302 90.81c-.11 0-.16-.07-.16-.21V62.06a.15.15 0 01.17-.17h13.33c.11 0 .17.07.17.21v4.65a.15.15 0 01-.17.17h-8.52v6.48h5.43v5h-5.46v7.3h8.56c.11 0 .17.07.17.21v4.73a.15.15 0 01-.17.17z"/><path class="cls-21" d="M315.27 90.81q-.16 0-.12-.21l4.73-14.83-4.65-13.71c0-.11 0-.17.13-.17H320a.23.23 0 01.25.17L323 72l2.83-9.89c0-.11.11-.17.25-.17h4.61c.11 0 .15.06.12.17l-4.61 13.62 4.69 14.87q.09.21-.12.21h-4.65a.27.27 0 01-.25-.21L323 79.88l-2.82 10.72a.24.24 0 01-.25.21zm19.01 0a.19.19 0 01-.21-.21l.08-28.54a.15.15 0 01.17-.17h8a8 8 0 016 2.33 8.78 8.78 0 012.22 6.32 10.74 10.74 0 01-1.16 5.11 8.72 8.72 0 01-3 3.32 7.64 7.64 0 01-4.08 1.16h-3.15V90.6a.19.19 0 01-.21.21zm4.86-15.71h3.15a2.86 2.86 0 002.31-1.26 5.28 5.28 0 001-3.3 3.93 3.93 0 00-.88-2.66 3 3 0 00-2.41-1h-3.15zm14.41 15.71c-.11 0-.16-.07-.16-.21l.08-28.54a.15.15 0 01.17-.17H362a8.11 8.11 0 014.13 1.1 8.43 8.43 0 013 2.95 8.48 8.48 0 01.67 6.94 9 9 0 01-1.04 2.12 7.6 7.6 0 01-1.12 1.27 8.48 8.48 0 012.24 5.85v8.52a.19.19 0 01-.21.21H365c-.11 0-.17 0-.17-.13v-8.6a3.6 3.6 0 00-1.06-2.59 3.42 3.42 0 00-2.59-1.1h-2.75v12.21c0 .14-.05.21-.16.21zm4.9-17.41H362a3.21 3.21 0 002.28-1 3.19 3.19 0 000-4.62 3.21 3.21 0 00-2.3-1h-3.58zm15.13 17.41c-.11 0-.17-.07-.17-.21V62.06a.15.15 0 01.17-.17H387c.11 0 .17.07.17.21v4.65a.15.15 0 01-.17.17h-8.51v6.48H387a.15.15 0 01.17.17v4.69c0 .11-.05.17-.16.17h-8.56v7.27H387c.11 0 .16.07.16.21v4.73c0 .11-.05.17-.16.17zm24.09.41a7.64 7.64 0 01-4.09-1.14 8.56 8.56 0 01-2.95-3 8.18 8.18 0 01-1.1-4.18V81a.19.19 0 01.21-.21h4.65c.11 0 .17.07.17.21v1.91a3.3 3.3 0 00.91 2.35 2.94 2.94 0 004.4 0 3.33 3.33 0 00.92-2.33c0-1-.67-1.91-2-2.66l-2.07-1.16c-1-.52-1.83-1-2.66-1.49a8.73 8.73 0 01-3.39-3.35 9.37 9.37 0 01-1.1-4.55 7.85 7.85 0 011.12-4.17 8.42 8.42 0 013-2.93 8 8 0 018.06 0 8.34 8.34 0 012.95 3 7.86 7.86 0 011.1 4.13v3.41c0 .11 0 .17-.16.17H401c-.11 0-.16-.06-.16-.17v-3.41a3.21 3.21 0 00-.92-2.37 3 3 0 00-2.16-.91 2.91 2.91 0 00-2.2 1 3.25 3.25 0 00-.91 2.3 4.16 4.16 0 00.58 2.29 5.54 5.54 0 002.12 1.74c.13.09.4.23.81.44l1.31.7q.71.4 1.26.69c.38.19.6.32.69.37a10 10 0 013.28 2.85 6.93 6.93 0 011.2 4.13 8.25 8.25 0 01-1.1 4.26 8.14 8.14 0 01-2.95 3 7.77 7.77 0 01-4.18.98zm17.66 0a7.62 7.62 0 01-4.09-1.14 8.48 8.48 0 01-2.95-3 8.09 8.09 0 01-1.1-4.18V81c0-.14.06-.21.2-.21h4.66c.11 0 .16.07.16.21v1.91a3.31 3.31 0 00.92 2.35 2.94 2.94 0 004.4 0 3.32 3.32 0 00.91-2.33c0-1-.66-1.91-2-2.66l-2.08-1.16-2.66-1.49a8.7 8.7 0 01-3.38-3.35 9.26 9.26 0 01-1.1-4.55 7.85 7.85 0 011.12-4.17 8.42 8.42 0 013-2.93 8 8 0 018.06 0 8.42 8.42 0 012.95 3 8 8 0 011.1 4.13v3.41a.15.15 0 01-.17.17h-4.65a.15.15 0 01-.17-.17v-3.41a3.2 3.2 0 00-.91-2.37 3 3 0 00-2.16-.91 2.91 2.91 0 00-2.2 1 3.26 3.26 0 00-.92 2.3 4.25 4.25 0 00.58 2.29 5.62 5.62 0 002.12 1.74c.14.09.41.23.81.44l1.31.7c.47.27.89.5 1.27.69s.6.32.68.37a10 10 0 013.29 2.85 6.93 6.93 0 011.2 4.13 8.34 8.34 0 01-1.1 4.26 8.21 8.21 0 01-2.95 3 7.79 7.79 0 01-4.15.98z"/><path d="M510 306.26a252.72 252.72 0 012.76-44.71 62.35 62.35 0 00.76-8.17c.25-7.62 1-23.73 3.4-36.8a70.07 70.07 0 001-7.62c.56-7.62 1.15-24.46-1.69-47.76 0 0-23.39 7.27-47.89 0 0 0-11.49 18.65-5.46 51.17a42 42 0 01.73 6.8 100.13 100.13 0 01-3.12 26.8 69.75 69.75 0 00-2.31 15.4 417.52 417.52 0 00.52 48.22 19.09 19.09 0 0011.38 0s3.64-13.59 6.64-30.5c0 0 7.27-25.6 8.38-36.66l3.07-19.35a1.53 1.53 0 013-.08c1.29 6.16 2.61 14.93 1.5 21.48 0 0-3.66 47.83 8.36 64.69.08 0 7.65 5.45 8.97-2.91z" fill="#30467c"/><path d="M501.11 309.17a29.39 29.39 0 007.64-2.66 2.15 2.15 0 012.66.44 22.29 22.29 0 0013.9 7.12s3.26 5.9-3.69 5.37h-21a2.27 2.27 0 01-2.24-2.67l1.05-5.87a2.15 2.15 0 011.68-1.73zm-30.96.42a27.3 27.3 0 007 12.94 3.42 3.42 0 01.66 4.09c-1.07 1.8-3.66 3.71-9.89 2.94a58.15 58.15 0 01-8.06-2.3 2.94 2.94 0 01-1.75-3.15 71.26 71.26 0 00.69-14.52s6.88 2.41 11.35 0z" fill="#030305"/><path class="cls-5" d="M511.19 77.96l22.76 9.28 31.39-19.86-22.75-9.22-31.4 19.8z"/><path class="cls-4" d="M565.34 67.38l3.38 22.17-32.03 21.71-2.74-24.02 31.39-19.86z"/><path fill="#bb9b7b" d="M511.19 77.96l1.28 22.93 24.22 10.37-2.74-24.02-22.76-9.28z"/><path d="M483.74 52S478 73 494.81 71c0 0 13-.16 10.8-23.76 0 0-7.7-12.54-12.07-10.11s-8.16 2.31-8.37 3.37-1.43 11.5-1.43 11.5z" fill="#f5a070"/><path d="M487.54 52.26l-13.44-.9s-3.16-16.28 12.17-19c0 0 15.82-3.24 19.23 8.33a4.39 4.39 0 002 2.48c2.49 1.52 6.88 4.87 5.5 9 0 0-5 1.79-7.32-2.48a14.51 14.51 0 00-4-5c-3.68-2.57-9.68-4.3-14.14 7.57z" fill="#ed7021"/><path class="cls-27" d="M565 140.54s-2 14-12.75 8.6a5.82 5.82 0 015-6.06s4.48-2.96 7.75-2.54z"/><path fill="#676566" d="M465.45 108.48h-46.66l18.97 44.5 33.18-1.33-5.49-43.17z"/><path class="cls-27" d="M431.28 142.23s2.86-8.6 9.61-5a3.38 3.38 0 011.74 2.72l.42 5.12a3.32 3.32 0 01-2.63 3.52 20.83 20.83 0 00-5.67 1.79z"/><path d="M440.7 104.38h8.3a2 2 0 012 2v3.06h-12.3v-3.06a2 2 0 012-2z" fill="#ed6d26"/><ellipse class="cls-30" cx="501.32" cy="640.87" rx="123.35" ry="16.93"/><path class="cls-31" d="M568 509.26c1 10.51-4 19.11-9 27.66-2.88 5-6.32 9.63-9.54 14.41-13.29 19.77-13.18 19.7-.67 39.31 9 14.08 11.1 30.84 17.3 46l-.67.37-.4-.64-12.19-2.73c-2.91-4.44-5.91-8.82-8.69-13.33-10-16.32-23.91-30.19-30.8-48.5-.3-11.47 3.29-22.23 5.69-33.26 2.21-10.11 8.58-19.87 4-30.9l5-7.54z"/><path class="cls-32" d="M568 509.26l-40-9.13q2.71-11 5.45-21.9c12.17-.45 23.6-9.2 22.77-20.17-.69-9.18-11.71-2.27-16.57-6.71-.74-.67-2.37-.36-3.58-.51.5-11.38 8.92-19.34 12.69-29.31L569 415.3c10.58 6.39 13.45 17.44 12.34 27.82A392.28 392.28 0 01568 509.26z"/><path class="cls-33" d="M481.41 470.48c.17-1.46.89-3.86 1.07-5.32 13.4-2 26.39-2.63 39.68-5.16 5.53-1.05 11.24-3.13 13.9-9.16 1.21.15 2.84-.16 3.58.51 4.86 4.44 15.88-2.47 16.57 6.71.83 11-10.6 19.72-22.77 20.17-17.34-2.34-35.44-.08-52.03-7.75zM569 415.3l-20.2 6.23a13.75 13.75 0 00-4.29-10.9c-5.86-5.72-7.15-12.56-2.94-20 2.25-3.22.77-9.32 7.52-9.15 4.61.12 7.51 1.85 9 6.28 1.83 5.33 7.42 5.51 11.41 7.88 2.64 6.64-9.38 12.87-.5 19.66z"/><path class="cls-32" d="M569.48 395.65c-4-2.37-9.58-2.55-11.41-7.88-1.52-4.43-4.42-6.16-9-6.28-6.75-.17-5.27 5.93-7.52 9.15-6.87-8.71-1.38-14.33 5.38-18.73 7.92-5.15 16.69-5.39 23.58 1.49 7.11 7.14 6 15.13-1.03 22.25z"/><path class="cls-34" d="M367.3 478.29l-2.77 2.24z"/><path class="cls-35" d="M549.2 634.9l3.64-1.24 12.2 2.73c1.62 5.35 2 9.61-5.9 9.18-7-.38-14-.08-21.72-.08 2.4-7.9 9.37-6.25 11.78-10.59zm-64.29-2.49a1.5 1.5 0 00.32 1.6c-1.4 5.35-3.28 9.12-10 5.32a134.94 134.94 0 00-14-6.4 1.45 1.45 0 010-2.65c5.24-2.44 11.35-1.6 16.71-3.59 1.53 2.9 3.63 5.07 6.97 5.72z"/><path class="cls-36" d="M484.91 632.41c-3.34-.65-5.44-2.82-6.93-5.72 2.75-19.47 5.6-38.92 8.22-58.41.86-6.44 4.83-11.27 8-16.42 9.18-15 17.63-30.49 28.82-44.19 4.62 11-1.75 20.79-4 30.9-2.4 11-6 21.79-5.69 33.26-6.86 5.83-6.58 14.74-9.3 22.28-4.87 13.56-9.18 27.31-19.12 38.3z"/><path class="cls-37" d="M437.11 619.92l-1.54 1.23c-.09-1-.17-1.93-.27-2.9a16.81 16.81 0 011.81 1.67z"/><path class="cls-38" d="M318.94 605.15l-1.25 5.38 110.83 26.33 44.22-168.37 8.67 1.99 1.16-5.29-12.91-3.31-45.36 169.5-105.36-26.23z"/><circle class="cls-38" cx="437.76" cy="634.37" r="12.14"/><circle class="cls-8" cx="437.76" cy="634.37" r="7.65"/><circle class="cls-38" cx="437.76" cy="634.37" r="3.42"/><path class="cls-39" d="M424.3 631.38l-125.04-31.23 20.53-69.96 122.94 32.34-18.43 68.85z"/><path class="cls-40" d="M319.79 530.19h24.5l100.1 26.13-1.66 6.21"/><path class="cls-39" d="M344.29 530.19l14.35-52.31 99.74 26.15-13.99 52.29-100.1-26.13z"/><path class="cls-40" d="M400.13 488.76l-7.06 28.34-2.87-9.87-9.05 7.29 7.73-28.71 11.25 2.95zm-41.49-10.88h22.51l69.3 17.66 7.93 8.49-99.74-26.15z"/><path fill="#ccb394" d="M379.16 477.88l11.48-38.63 26.05 4.42-8.18 41.18-29.35-6.97z"/><path fill="#bc9a7f" d="M408.51 484.85l12.15-8.52 39.29 13.03-9.5 6.18-41.94-10.69z"/><path fill="#ccb395" d="M459.95 489.36l5.95-76.37-40.16-11.48-5.08 74.82 39.29 13.03z"/><path fill="#ddc9b1" d="M425.74 401.51l-8.62 15.89-8.61 67.45 12.15-8.52 5.08-74.82z"/><path fill="#e1cbb4" d="M390.64 439.25l23.89-1.59-.7 5.52-23.19-3.93z"/><path class="cls-9" d="M256.74 481.08c8.17.05 16.35.43 24.49 0 5.69-.27 7.11 1.92 7 7.25-.28 14.81-.07 29.63-.06 44.45.07 4.93-3.68 3.43-6.17 3.43-63.77.06-127.54 0-191.3.18-5.66 0-7.6-1.75-6.81-7.06-.87-5.43 1.29-7.18 6.85-7 11.61.44 23.25.14 34.88.13 7.58 0 7.85 0 7.53-7.76-.19-4.74 1.25-6.24 6.06-6.13 12.76.32 25.54 0 38.31.19 4 .07 5.61-1.3 5.11-5.24-.14-1.13.1-2.3 0-3.43-.49-3.91 1-5.37 5.09-5.27 9.14.22 18.29 0 27.44-.05l12.12.14c9.37-.07 8.24.62 8-8.25-.09-4.08.91-6.15 5.32-5.51a29 29 0 004 0z"/><path class="cls-34" d="M66.73 418.14q46.41-14 92.82-28.07c15.29-4.64 30.53-9.42 45.8-14.08 3.65-1.11 6.29-.4 7.09 4 .57 3.17 1.66 6.24 2.51 9.35a96.69 96.69 0 00-2.46 23.17c0 3.68-1 5.36-5.06 5.88a184.19 184.19 0 00-19.5 4c-33.51 8.11-66.5 17.86-98.09 31.84-3 1.31-4.63 1.1-7.06-1.78-4.48-5.3-8-11.8-14.82-14.81l-4.77-17.14z"/><path class="cls-46" d="M68 437.63c6.83 3 10.34 9.51 14.82 14.81 2.43 2.88 4.11 3.09 7.06 1.78 31.59-14 64.58-23.73 98.09-31.84a184.19 184.19 0 0119.5-4c4-.52 5-2.2 5.06-5.88a96.69 96.69 0 012.47-23.17c2.74.73 5.12-1.27 7.8-1 1.95 8.16 3.2 16.5 2.08 24.79-.65 4.78-.58 8.15 4.54 9.75a6.78 6.78 0 01-1.71 6.28 52 52 0 01-5.24 2.21q-36.6 11.2-73.22 22.32-35.64 10.88-71.28 21.81l-3.25-4.83c3.12-5.17.11-8.37-3.21-12.1a43.64 43.64 0 01-9.38-17.43z"/><path class="cls-30" d="M83.89 529.37c-.79 5.31 1.15 7.08 6.81 7.06 63.76-.21 127.53-.12 191.3-.18 2.49 0 6.24 1.5 6.17-3.43a69.93 69.93 0 0120.92 2.18c1 .28 2.6 0 2.55 1.58 0 1.3-1.28 1.74-2.47 1.93-4.87.78-9.71 2.06-14.6 2.25-17.69.69-35.33 2.18-53 2.77-14.49.48-29-.06-43.45.85a535.75 535.75 0 01-58.06.84c-20-.91-40.07-.35-60.08-1q-30.5-1.05-60.92-3.56c-6.08-.5-12.8-.14-19-4.24 7.47-3.79 15.17-2.25 22-4.73h2.07c6.45.3 12.94.56 19.29-.51 2.34-.39 3.59 0 4.75 1.74l.47.09c0 4.76 2.33 5.57 10.93 3.55l-5.63-3.89.33-2.08c9.89.83 19.73-2.06 29.62-1.22z"/><path class="cls-31" d="M19.44 520c3.56-6.13 7.78-11.84 14.17-15.1 4.32-2.2 5-5.27 4.22-9.27-.81-4.28-1.93-8.5-2.73-12.78-.66-3.53-1.2-7.13.69-10.53 3.8 1.85 7.87 1 11.74.77 4.92-.31 6 1.93 5.43 6.06-1.31 9.14-2.68 18.27-4 27.4-.89-1.78-1.59-.59-2.48.08-7.59 5.65-15 11.51-23.19 16.37a4.68 4.68 0 01-3.85-3z"/><path class="cls-32" d="M36 470.6c-.44-10.06-1.47-20.14-.21-30.18.61-4.81 2.62-9.2 7.74-11.16 2.31 1.42 4.32 3.39 7.17 3.79 1.77 3.59 1.37 7.89 3.67 11.31-.9 1.94-1.92 3.47-4.45 3.82-4.43.61-4.29 3.32-2.62 6.64 2 4 6.85 6.31 6.72 11.52l.09 3.48z"/><path class="cls-31" d="M236.87 433c2.52 2.58 4.81 5.47 7.63 7.68 6.47 5.07 8 11.45 6.53 19.24-1 5.39-1.23 10.94-1.8 16.42l-4.45 1.27c-2.06-6.71-3.94-13.35-2.68-20.59 1.05-6.08-4.92-6.12-8.2-8.47-3-2.13-5.24-1.32-7.27 1.31 1.11-3-2.88-3.85-2.78-6.45 5-1.67 8.23-4.63 7.45-10.45z"/><path class="cls-36" d="M36 470.6l18.11-.78c1.39 6.83 2.85 13.65 4.15 20.5 1.54 8.09 2.19 16-.64 24.17-1.78 5.11-3.4 10.46-3.38 16l-.33 2.08-5.3.34-.47-.09c-1.62-8.84-.82-17.61.82-26.35 1.34-9.13 2.71-18.26 4-27.4.6-4.13-.51-6.37-5.43-6.06-3.87.24-7.94 1.08-11.74-.77.06-.52.12-1.08.21-1.64z"/><path class="cls-32" d="M236.87 433h-5.57l-3.64-3.77a6.78 6.78 0 001.71-6.28l1.5-2.53c2.77-1.38 4.52-3.89 6.53-6.07 1.35-1.45 4.06-2.76 1.22-5.42-2.49-2.32-4.67-2.69-6.93.14-1.25-2.44-.81-5.08-.89-7.66 3-3.35 6.15-6.48 10.25-8.47 4-1 5.14 2.28 6.9 4.63 1.31 7.87-3.34 14.21-5.54 21.16-1.53 4.79-3.67 9.47-5.54 14.27z"/><path class="cls-47" d="M230.8 401.33c.08 2.58-.36 5.22.89 7.66-1 3.73-.79 7.55-.82 11.35l-1.5 2.53c-5.12-1.6-5.19-5-4.54-9.75 1.12-8.29-.13-16.63-2.08-24.79a6.77 6.77 0 001.08-.34c7.08 2.01 5.17 8.6 6.97 13.34z"/><path class="cls-32" d="M248.1 384.88c-1.75-4.43.06-7.58 4.17-8.81s7.91.19 9.76 4.53a22.33 22.33 0 002.8 5.33c2 2.54-.05 2.45-1.92 1.72-4.91-.93-9.6-3.3-14.81-2.77zM57.21 411.89l.61 1.62c.08 2.44 4.06 1.19 3.86 3.95-1.46 1.05-3.53.24-4.72 1.76-4.05.26-8.24-.86-12.08 1.3-3.7-4-1.94-7.36 1.17-10.58l6.86-.88z"/><path class="cls-33" d="M248.1 384.88c5.21-.53 9.87 1.84 14.81 2.77-.73.18-1.9.15-2.1.58-2.61 5.48-7.25 8-12.86 9.26-1.76-2.35-2.91-5.6-6.9-4.63 2.58-2.46 6.41-3.86 7.05-7.98zM44.88 420.52c3.84-2.16 8-1 12.08-1.31l.66 1.24c-.16 3.44-.25 6.91-3.5 9.18-2.42-.14-2.36 2.21-3.44 3.42-2.85-.4-4.86-2.37-7.17-3.79 2.18-2.65 1.28-5.77 1.37-8.74z"/><path class="cls-35" d="M19.44 520a4.68 4.68 0 003.83 3c-.77 3 .81 5.76.81 8.67h-2.07a58.53 58.53 0 00-4.38-5.9c-3.03-3.21-1.75-4.77 1.81-5.77zm225.34-42.43l4.45-1.27c2.33 1.86 6 1.66 7.51 4.78l-12.18.15c.07-1.23.15-2.44.22-3.66z"/><path class="cls-46" d="M223.84 388a6.77 6.77 0 01-1.08.34c.16-.78.45-1.1 1.08-.34z"/><path class="cls-35" d="M220.63 489.12c1.55 2.68 6.32 1.74 6.61 5.85l-12.12-.14a5.78 5.78 0 01.31-4.3z"/><path class="cls-37" d="M57.62 420.45h5.57L68 437.63l-5.88 3.5c-5.64 2.66-3 6.76-1.86 10.61-1 .74-1.84.27-2.66-.35-2.37-4 0-9-3.27-12.93-2.16-2.59-1.79-5.85-.17-8.83 3.21-2.27 3.3-5.74 3.46-9.18z"/><path class="cls-47" d="M215.61 446.08c-11.27 1.81-21.85 6.06-32.71 9.28-26.54 7.86-53 16.06-79.46 24.11a30.43 30.43 0 01-3.32.65l-1.3 1.2h.14c-2.92-.22-5.41 1.13-8 2.19a25.17 25.17 0 00-3.25.91c-4.81 2.06-7.53.54-8.4-4.62a28.24 28.24 0 00-1.42-4.28q35.64-10.9 71.28-21.81 36.6-11.18 73.22-22.32a52 52 0 005.24-2.21l3.64 3.77c.78 5.82-2.43 8.78-7.45 10.45-3.01-.02-5.98.22-8.21 2.68zm-155.39 5.66c-1.12-3.85-3.78-7.95 1.86-10.61a43.64 43.64 0 009.38 17.43c3.32 3.73 6.33 6.93 3.21 12.1-4.93-1.89-6.43-7.15-10.1-10.29z"/><path class="cls-35" d="M48.59 533l5.3-.34 5.63 3.89c-8.6 1.97-10.89 1.16-10.93-3.55z"/><path class="cls-33" d="M60.22 451.74l4.35 8.63a20 20 0 01-4.55.21c-4.79-.86-6.67 1.07-6 5.76.13-5.21-4.73-7.53-6.72-11.52-1.67-3.32-1.81-6 2.62-6.64 2.53-.35 3.55-1.88 4.45-3.82 2.32 1.77-1.26 6.24 3.21 7 .8.64 1.64 1.12 2.64.38z"/><path class="cls-35" d="M215.61 446.08c2.23-2.46 5.2-2.7 8.24-2.71-.1 2.6 3.89 3.43 2.78 6.45.72 1.3 1.44 2.62 2.18 3.92s1.82 2.74.42 4.1-2.77 0-4.11-.46a63.29 63.29 0 00-9.4-9.4z"/><path class="cls-33" d="M230.87 420.34c0-3.8-.15-7.62.82-11.35 2.26-2.83 4.44-2.46 6.93-.14 2.84 2.66.13 4-1.22 5.42-2.01 2.18-3.76 4.73-6.53 6.07z"/><path class="cls-36" d="M215.72 448a63.29 63.29 0 019.4 9.4c-4.24 10.19-4.26 21-4.49 31.74l-5.2 1.41c-4.71-14.24-2.79-28.41.29-42.55z"/><path class="cls-35" d="M91 483.48c2.56-1.06 5.05-2.41 8-2.19-.61 4.68-1.16 9.36-1.86 14-.24 1.59-.26 3.7-2.75 3.46-2.07-.2-1.89-2.11-2.11-3.51-.66-3.88.18-7.94-1.28-11.76zm7.82-2.16l1.3-1.2z"/></g></g></svg>